NotoSansCanadianAboriginal-Light.ufo
<glyph name="dotlessi" format="2">
  <advance width="216"/>
  <unicode hex="0131"/>
  <note>
dotlessi
</note>
  <outline>
    <contour>
      <point x="95" y="0" type="line"/>
      <point x="121" y="0" type="line"/>
      <point x="121" y="528" type="line"/>
      <point x="95" y="528" type="line"/>
    </contour>
  </outline>
</glyph>
<glyph name="caron" format="2">
  <advance width="332"/>
  <unicode hex="02C7"/>
  <note>
caron
</note>
  <outline>
    <contour>
      <point x="154" y="606" type="curve"/>
      <point x="176" y="606" type="line"/>
      <point x="200" y="647"/>
      <point x="255" y="716"/>
      <point x="292" y="757" type="curve"/>
      <point x="292" y="763" type="line"/>
      <point x="271" y="763" type="line"/>
      <point x="234" y="726"/>
      <point x="193" y="676"/>
      <point x="165" y="638" type="curve"/>
      <point x="137" y="676"/>
      <point x="98" y="726"/>
      <point x="61" y="763" type="curve"/>
      <point x="40" y="763" type="line"/>
      <point x="40" y="757" type="line"/>
      <point x="77" y="716"/>
      <point x="130" y="647"/>
    </contour>
  </outline>
</glyph>
<glyph name="breve" format="2">
  <advance width="325"/>
  <unicode hex="02D8"/>
  <note>
breve
</note>
  <outline>
    <contour>
      <point x="162" y="606" type="curve" smooth="yes"/>
      <point x="234" y="606"/>
      <point x="276" y="645"/>
      <point x="285" y="718" type="curve"/>
      <point x="260" y="718" type="line"/>
      <point x="254" y="665"/>
      <point x="227" y="630"/>
      <point x="162" y="630" type="curve" smooth="yes"/>
      <point x="101" y="630"/>
      <point x="70" y="665"/>
      <point x="65" y="718" type="curve"/>
      <point x="40" y="718" type="line"/>
      <point x="46" y="645"/>
      <point x="90" y="606"/>
    </contour>
  </outline>
</glyph>
<glyph name="dotaccent" format="2">
  <advance width="132"/>
  <unicode hex="02D9"/>
  <note>
dotaccent
</note>
  <outline>
    <contour>
      <point x="65" y="659" type="curve" smooth="yes"/>
      <point x="89" y="659"/>
      <point x="92" y="673"/>
      <point x="92" y="690" type="curve" smooth="yes"/>
      <point x="92" y="706"/>
      <point x="89" y="721"/>
      <point x="65" y="721" type="curve" smooth="yes"/>
      <point x="45" y="721"/>
      <point x="40" y="706"/>
      <point x="40" y="690" type="curve" smooth="yes"/>
      <point x="40" y="673"/>
      <point x="45" y="659"/>
    </contour>
  </outline>
</glyph>
<glyph name="ring" format="2">
  <advance width="281"/>
  <unicode hex="02DA"/>
  <note>
ring
</note>
  <outline>
    <contour>
      <point x="141" y="611" type="curve" smooth="yes"/>
      <point x="196" y="611"/>
      <point x="241" y="652"/>
      <point x="241" y="711" type="curve" smooth="yes"/>
      <point x="241" y="766"/>
      <point x="196" y="811"/>
      <point x="141" y="811" type="curve" smooth="yes"/>
      <point x="86" y="811"/>
      <point x="40" y="768"/>
      <point x="40" y="711" type="curve" smooth="yes"/>
      <point x="40" y="651"/>
      <point x="87" y="611"/>
    </contour>
    <contour>
      <point x="141" y="635" type="curve" smooth="yes"/>
      <point x="96" y="635"/>
      <point x="64" y="669"/>
      <point x="64" y="711" type="curve" smooth="yes"/>
      <point x="64" y="753"/>
      <point x="97" y="787"/>
      <point x="141" y="787" type="curve" smooth="yes"/>
      <point x="182" y="787"/>
      <point x="217" y="753"/>
      <point x="217" y="711" type="curve" smooth="yes"/>
      <point x="217" y="669"/>
      <point x="186" y="635"/>
    </contour>
  </outline>
</glyph>
<glyph name="ogonek" format="2">
  <advance width="212"/>
  <unicode hex="02DB"/>
  <note>
ogonek
</note>
  <outline>
    <contour>
      <point x="122" y="-217" type="curve" smooth="yes"/>
      <point x="143" y="-217"/>
      <point x="161" y="-213"/>
      <point x="172" y="-209" type="curve"/>
      <point x="172" y="-185" type="line"/>
      <point x="161" y="-189"/>
      <point x="143" y="-192"/>
      <point x="124" y="-192" type="curve" smooth="yes"/>
      <point x="85" y="-192"/>
      <point x="66" y="-170"/>
      <point x="66" y="-131" type="curve" smooth="yes"/>
      <point x="66" y="-80"/>
      <point x="112" y="-36"/>
      <point x="158" y="0" type="curve"/>
      <point x="140" y="11" type="line"/>
      <point x="70" y="-41"/>
      <point x="40" y="-87"/>
      <point x="40" y="-135" type="curve" smooth="yes"/>
      <point x="40" y="-190"/>
      <point x="76" y="-217"/>
    </contour>
  </outline>
</glyph>
<glyph name="uni0307" format="2">
  <unicode hex="0307"/>
  <note>
uni0307
</note>
  <outline>
    <contour>
      <point x="65" y="721" type="curve" smooth="yes"/>
      <point x="45" y="721"/>
      <point x="40" y="706"/>
      <point x="40" y="690" type="curve" smooth="yes"/>
      <point x="40" y="673"/>
      <point x="45" y="659"/>
      <point x="65" y="659" type="curve" smooth="yes"/>
      <point x="89" y="659"/>
      <point x="92" y="673"/>
      <point x="92" y="690" type="curve" smooth="yes"/>
      <point x="92" y="706"/>
      <point x="89" y="721"/>
    </contour>
  </outline>
</glyph>
<glyph name="uni1400" format="2">
  <advance width="456"/>
  <unicode hex="1400"/>
  <note>
uni1400
</note>
  <outline>
    <contour>
      <point x="49" y="418" type="line"/>
      <point x="407" y="418" type="line"/>
      <point x="407" y="439" type="line"/>
      <point x="49" y="439" type="line"/>
    </contour>
    <contour>
      <point x="49" y="294" type="line"/>
      <point x="407" y="294" type="line"/>
      <point x="407" y="315" type="line"/>
      <point x="49" y="315" type="line"/>
    </contour>
  </outline>
</glyph>
<glyph name="uni1401" format="2">
  <advance width="797"/>
  <unicode hex="1401"/>
  <note>
uni1401
</note>
  <outline>
    <contour>
      <point x="387" y="-12" type="line"/>
      <point x="410" y="-12" type="line"/>
      <point x="738" y="701" type="line"/>
      <point x="738" y="714" type="line"/>
      <point x="59" y="714" type="line"/>
      <point x="59" y="701" type="line"/>
    </contour>
    <contour>
      <point x="398" y="16" type="line"/>
      <point x="93" y="689" type="line"/>
      <point x="704" y="689" type="line"/>
    </contour>
  </outline>
</glyph>
<glyph name="uni1403" format="2">
  <advance width="797"/>
  <unicode hex="1403"/>
  <note>
uni1403
</note>
  <outline>
    <contour>
      <point x="59" y="0" type="line"/>
      <point x="738" y="0" type="line"/>
      <point x="738" y="13" type="line"/>
      <point x="410" y="726" type="line"/>
      <point x="387" y="726" type="line"/>
      <point x="59" y="13" type="line"/>
    </contour>
    <contour>
      <point x="93" y="25" type="line"/>
      <point x="398" y="698" type="line"/>
      <point x="704" y="25" type="line"/>
    </contour>
  </outline>
</glyph>
<glyph name="uni1405" format="2">
  <advance width="752"/>
  <unicode hex="1405"/>
  <note>
uni1405
</note>
  <outline>
    <contour>
      <point x="79" y="-11" type="line"/>
      <point x="89" y="-11" type="line"/>
      <point x="703" y="348" type="line"/>
      <point x="703" y="366" type="line"/>
      <point x="89" y="725" type="line"/>
      <point x="79" y="725" type="line"/>
    </contour>
    <contour>
      <point x="105" y="28" type="line"/>
      <point x="105" y="686" type="line"/>
      <point x="669" y="357" type="line"/>
    </contour>
  </outline>
</glyph>
<glyph name="uni140A" format="2">
  <advance width="752"/>
  <unicode hex="140A"/>
  <note>
uni140A
</note>
  <outline>
    <contour>
      <point x="663" y="-11" type="line"/>
      <point x="673" y="-11" type="line"/>
      <point x="673" y="725" type="line"/>
      <point x="663" y="725" type="line"/>
      <point x="49" y="366" type="line"/>
      <point x="49" y="348" type="line"/>
    </contour>
    <contour>
      <point x="647" y="28" type="line"/>
      <point x="83" y="357" type="line"/>
      <point x="647" y="686" type="line"/>
    </contour>
  </outline>
</glyph>
<glyph name="uni141C" format="2">
  <advance width="584"/>
  <unicode hex="141C"/>
  <note>
uni141C
</note>
  <outline>
    <contour>
      <point x="176" y="341" type="curve" smooth="yes"/>
      <point x="245" y="341"/>
      <point x="274" y="383"/>
      <point x="292" y="448" type="curve"/>
      <point x="310" y="383"/>
      <point x="339" y="341"/>
      <point x="408" y="341" type="curve" smooth="yes"/>
      <point x="500" y="341"/>
      <point x="535" y="421"/>
      <point x="535" y="530" type="curve" smooth="yes"/>
      <point x="535" y="714" type="line"/>
      <point x="511" y="714" type="line"/>
      <point x="511" y="530" type="line" smooth="yes"/>
      <point x="511" y="431"/>
      <point x="478" y="363"/>
      <point x="408" y="363" type="curve" smooth="yes"/>
      <point x="335" y="363"/>
      <point x="304" y="431"/>
      <point x="304" y="530" type="curve" smooth="yes"/>
      <point x="304" y="714" type="line"/>
      <point x="280" y="714" type="line"/>
      <point x="280" y="530" type="line" smooth="yes"/>
      <point x="280" y="431"/>
      <point x="249" y="363"/>
      <point x="176" y="363" type="curve" smooth="yes"/>
      <point x="106" y="363"/>
      <point x="73" y="431"/>
      <point x="73" y="530" type="curve" smooth="yes"/>
      <point x="73" y="714" type="line"/>
      <point x="49" y="714" type="line"/>
      <point x="49" y="530" type="line" smooth="yes"/>
      <point x="49" y="421"/>
      <point x="84" y="341"/>
    </contour>
  </outline>
</glyph>
<glyph name="uni141D" format="2">
  <advance width="521"/>
  <unicode hex="141D"/>
  <note>
uni141D
</note>
  <outline>
    <contour>
      <point x="376" y="526" type="curve" smooth="yes"/>
      <point x="429" y="526"/>
      <point x="472" y="569"/>
      <point x="472" y="622" type="curve" smooth="yes"/>
      <point x="472" y="675"/>
      <point x="429" y="718"/>
      <point x="376" y="718" type="curve" smooth="yes"/>
      <point x="323" y="718"/>
      <point x="280" y="675"/>
      <point x="280" y="622" type="curve" smooth="yes"/>
      <point x="280" y="569"/>
      <point x="323" y="526"/>
    </contour>
    <contour>
      <point x="145" y="356" type="curve" smooth="yes"/>
      <point x="198" y="356"/>
      <point x="241" y="399"/>
      <point x="241" y="452" type="curve" smooth="yes"/>
      <point x="241" y="505"/>
      <point x="198" y="548"/>
      <point x="145" y="548" type="curve" smooth="yes"/>
      <point x="92" y="548"/>
      <point x="49" y="505"/>
      <point x="49" y="452" type="curve" smooth="yes"/>
      <point x="49" y="399"/>
      <point x="92" y="356"/>
    </contour>
    <contour>
      <point x="145" y="378" type="curve" smooth="yes"/>
      <point x="104" y="378"/>
      <point x="72" y="411"/>
      <point x="72" y="452" type="curve" smooth="yes"/>
      <point x="72" y="493"/>
      <point x="104" y="526"/>
      <point x="145" y="526" type="curve" smooth="yes"/>
      <point x="186" y="526"/>
      <point x="218" y="493"/>
      <point x="218" y="452" type="curve" smooth="yes"/>
      <point x="218" y="411"/>
      <point x="186" y="378"/>
    </contour>
    <contour>
      <point x="376" y="548" type="curve" smooth="yes"/>
      <point x="335" y="548"/>
      <point x="303" y="581"/>
      <point x="303" y="622" type="curve" smooth="yes"/>
      <point x="303" y="663"/>
      <point x="335" y="696"/>
      <point x="376" y="696" type="curve" smooth="yes"/>
      <point x="417" y="696"/>
      <point x="449" y="663"/>
      <point x="449" y="622" type="curve" smooth="yes"/>
      <point x="449" y="581"/>
      <point x="417" y="548"/>
    </contour>
  </outline>
</glyph>
<glyph name="uni141E" format="2">
  <advance width="530"/>
  <unicode hex="141E"/>
  <note>
uni141E
</note>
  <outline>
    <contour>
      <point x="39" y="342" type="line"/>
      <point x="491" y="342" type="line"/>
      <point x="491" y="348" type="line"/>
      <point x="270" y="725" type="line"/>
      <point x="259" y="725" type="line"/>
      <point x="39" y="348" type="line"/>
    </contour>
    <contour>
      <point x="76" y="364" type="line"/>
      <point x="265" y="687" type="line"/>
      <point x="453" y="364" type="line"/>
    </contour>
  </outline>
</glyph>
<glyph name="uni141F" format="2">
  <advance width="262"/>
  <unicode hex="141F"/>
  <note>
uni141F
</note>
  <outline>
    <contour>
      <point x="29" y="352" type="line"/>
      <point x="57" y="352" type="line"/>
      <point x="233" y="714" type="line"/>
      <point x="205" y="714" type="line"/>
    </contour>
  </outline>
</glyph>
<glyph name="uni1420" format="2">
  <advance width="262"/>
  <unicode hex="1420"/>
  <note>
uni1420
</note>
  <outline>
    <contour>
      <point x="205" y="352" type="line"/>
      <point x="233" y="352" type="line"/>
      <point x="57" y="714" type="line"/>
      <point x="29" y="714" type="line"/>
    </contour>
  </outline>
</glyph>
<glyph name="uni1421" format="2">
  <advance width="386"/>
  <unicode hex="1421"/>
  <note>
uni1421
</note>
  <outline>
    <contour>
      <point x="193" y="393" type="curve" smooth="yes"/>
      <point x="304" y="393"/>
      <point x="337" y="455"/>
      <point x="337" y="572" type="curve" smooth="yes"/>
      <point x="337" y="714" type="line"/>
      <point x="313" y="714" type="line"/>
      <point x="313" y="582" type="line" smooth="yes"/>
      <point x="313" y="462"/>
      <point x="282" y="413"/>
      <point x="193" y="413" type="curve" smooth="yes"/>
      <point x="104" y="413"/>
      <point x="73" y="462"/>
      <point x="73" y="582" type="curve" smooth="yes"/>
      <point x="73" y="714" type="line"/>
      <point x="49" y="714" type="line"/>
      <point x="49" y="572" type="line" smooth="yes"/>
      <point x="49" y="455"/>
      <point x="82" y="393"/>
    </contour>
  </outline>
</glyph>
<glyph name="uni1422" format="2">
  <advance width="386"/>
  <unicode hex="1422"/>
  <note>
uni1422
</note>
  <outline>
    <contour>
      <point x="49" y="400" type="line"/>
      <point x="73" y="400" type="line"/>
      <point x="73" y="532" type="line" smooth="yes"/>
      <point x="73" y="652"/>
      <point x="104" y="701"/>
      <point x="193" y="701" type="curve" smooth="yes"/>
      <point x="282" y="701"/>
      <point x="313" y="652"/>
      <point x="313" y="532" type="curve" smooth="yes"/>
      <point x="313" y="400" type="line"/>
      <point x="337" y="400" type="line"/>
      <point x="337" y="542" type="line" smooth="yes"/>
      <point x="337" y="659"/>
      <point x="304" y="721"/>
      <point x="193" y="721" type="curve" smooth="yes"/>
      <point x="82" y="721"/>
      <point x="49" y="659"/>
      <point x="49" y="542" type="curve" smooth="yes"/>
    </contour>
  </outline>
</glyph>
<glyph name="uni1423" format="2">
  <advance width="369"/>
  <unicode hex="1423"/>
  <note>
uni1423
</note>
  <outline>
    <contour>
      <point x="49" y="382" type="line"/>
      <point x="141" y="382" type="line" smooth="yes"/>
      <point x="261" y="382"/>
      <point x="320" y="437"/>
      <point x="320" y="548" type="curve" smooth="yes"/>
      <point x="320" y="659"/>
      <point x="261" y="714"/>
      <point x="141" y="714" type="curve" smooth="yes"/>
      <point x="49" y="714" type="line"/>
      <point x="49" y="692" type="line"/>
      <point x="140" y="692" type="line" smooth="yes"/>
      <point x="263" y="692"/>
      <point x="296" y="634"/>
      <point x="296" y="548" type="curve" smooth="yes"/>
      <point x="296" y="462"/>
      <point x="263" y="404"/>
      <point x="140" y="404" type="curve" smooth="yes"/>
      <point x="49" y="404" type="line"/>
    </contour>
  </outline>
</glyph>
<glyph name="uni1424" format="2">
  <advance width="415"/>
  <unicode hex="1424"/>
  <note>
uni1424
</note>
  <outline>
    <contour>
      <point x="207" y="401" type="curve" smooth="yes"/>
      <point x="295" y="401"/>
      <point x="366" y="472"/>
      <point x="366" y="558" type="curve" smooth="yes"/>
      <point x="366" y="644"/>
      <point x="293" y="714"/>
      <point x="207" y="714" type="curve" smooth="yes"/>
      <point x="122" y="714"/>
      <point x="49" y="644"/>
      <point x="49" y="558" type="curve" smooth="yes"/>
      <point x="49" y="472"/>
      <point x="120" y="401"/>
    </contour>
    <contour>
      <point x="207" y="423" type="curve" smooth="yes"/>
      <point x="133" y="423"/>
      <point x="73" y="485"/>
      <point x="73" y="559" type="curve" smooth="yes"/>
      <point x="73" y="633"/>
      <point x="135" y="693"/>
      <point x="207" y="693" type="curve" smooth="yes"/>
      <point x="279" y="693"/>
      <point x="342" y="633"/>
      <point x="342" y="559" type="curve" smooth="yes"/>
      <point x="342" y="486"/>
      <point x="281" y="423"/>
    </contour>
  </outline>
</glyph>
<glyph name="uni1425" format="2">
  <advance width="390"/>
  <unicode hex="1425"/>
  <note>
uni1425
</note>
  <outline>
    <contour>
      <point x="157" y="352" type="line"/>
      <point x="185" y="352" type="line"/>
      <point x="361" y="714" type="line"/>
      <point x="333" y="714" type="line"/>
    </contour>
    <contour>
      <point x="29" y="352" type="line"/>
      <point x="57" y="352" type="line"/>
      <point x="233" y="714" type="line"/>
      <point x="205" y="714" type="line"/>
    </contour>
  </outline>
</glyph>
<glyph name="uni1426" format="2">
  <advance width="275"/>
  <unicode hex="1426"/>
  <note>
uni1426
</note>
  <outline>
    <contour>
      <point x="202" y="352" type="line"/>
      <point x="226" y="352" type="line"/>
      <point x="226" y="714" type="line"/>
      <point x="202" y="714" type="line"/>
    </contour>
    <contour>
      <point x="49" y="352" type="line"/>
      <point x="73" y="352" type="line"/>
      <point x="73" y="714" type="line"/>
      <point x="49" y="714" type="line"/>
    </contour>
  </outline>
</glyph>
<glyph name="uni1427" format="2">
  <advance width="185"/>
  <unicode hex="1427"/>
  <note>
uni1427
</note>
  <outline>
    <contour>
      <point x="93" y="324" type="curve" smooth="yes"/>
      <point x="111" y="324"/>
      <point x="126" y="338"/>
      <point x="126" y="357" type="curve" smooth="yes"/>
      <point x="126" y="375"/>
      <point x="111" y="390"/>
      <point x="93" y="390" type="curve" smooth="yes"/>
      <point x="74" y="390"/>
      <point x="59" y="375"/>
      <point x="59" y="357" type="curve" smooth="yes"/>
      <point x="59" y="338"/>
      <point x="74" y="324"/>
    </contour>
  </outline>
</glyph>
<glyph name="uni1428" format="2">
  <advance width="455"/>
  <unicode hex="1428"/>
  <note>
uni1428
</note>
  <outline>
    <contour>
      <point x="49" y="522" type="line"/>
      <point x="406" y="522" type="line"/>
      <point x="406" y="544" type="line"/>
      <point x="49" y="544" type="line"/>
    </contour>
  </outline>
</glyph>
<glyph name="uni1429" format="2">
  <advance width="454"/>
  <unicode hex="1429"/>
  <note>
uni1429
</note>
  <outline>
    <contour>
      <point x="215" y="352" type="line"/>
      <point x="239" y="352" type="line"/>
      <point x="239" y="522" type="line"/>
      <point x="405" y="522" type="line"/>
      <point x="405" y="544" type="line"/>
      <point x="239" y="544" type="line"/>
      <point x="239" y="714" type="line"/>
      <point x="215" y="714" type="line"/>
      <point x="215" y="544" type="line"/>
      <point x="49" y="544" type="line"/>
      <point x="49" y="522" type="line"/>
      <point x="215" y="522" type="line"/>
    </contour>
  </outline>
</glyph>
<glyph name="uni142A" format="2">
  <advance width="392"/>
  <unicode hex="142A"/>
  <note>
uni142A
</note>
  <outline>
    <contour>
      <point x="184" y="352" type="line"/>
      <point x="208" y="352" type="line"/>
      <point x="208" y="692" type="line"/>
      <point x="343" y="692" type="line"/>
      <point x="343" y="714" type="line"/>
      <point x="49" y="714" type="line"/>
      <point x="49" y="692" type="line"/>
      <point x="184" y="692" type="line"/>
    </contour>
  </outline>
</glyph>
<glyph name="uni142F" format="2">
  <advance width="797"/>
  <unicode hex="142F"/>
  <note>
uni142F
</note>
  <outline>
    <contour>
      <point x="387" y="-12" type="line"/>
      <point x="410" y="-12" type="line"/>
      <point x="738" y="701" type="line"/>
      <point x="738" y="714" type="line"/>
      <point x="715" y="714" type="line"/>
      <point x="398" y="16" type="line"/>
      <point x="82" y="714" type="line"/>
      <point x="59" y="714" type="line"/>
      <point x="59" y="701" type="line"/>
    </contour>
  </outline>
</glyph>
<glyph name="uni1431" format="2">
  <advance width="797"/>
  <unicode hex="1431"/>
  <note>
uni1431
</note>
  <outline>
    <contour>
      <point x="59" y="0" type="line"/>
      <point x="82" y="0" type="line"/>
      <point x="398" y="698" type="line"/>
      <point x="715" y="0" type="line"/>
      <point x="738" y="0" type="line"/>
      <point x="738" y="13" type="line"/>
      <point x="410" y="726" type="line"/>
      <point x="387" y="726" type="line"/>
      <point x="59" y="13" type="line"/>
    </contour>
  </outline>
</glyph>
<glyph name="uni1433" format="2">
  <advance width="732"/>
  <unicode hex="1433"/>
  <note>
uni1433
</note>
  <outline>
    <contour>
      <point x="59" y="-12" type="line"/>
      <point x="69" y="-12" type="line"/>
      <point x="683" y="348" type="line"/>
      <point x="683" y="366" type="line"/>
      <point x="69" y="725" type="line"/>
      <point x="59" y="725" type="line"/>
      <point x="59" y="702" type="line"/>
      <point x="649" y="357" type="line"/>
      <point x="59" y="12" type="line"/>
    </contour>
  </outline>
</glyph>
<glyph name="uni1438" format="2">
  <advance width="732"/>
  <unicode hex="1438"/>
  <note>
uni1438
</note>
  <outline>
    <contour>
      <point x="663" y="-12" type="line"/>
      <point x="673" y="-12" type="line"/>
      <point x="673" y="12" type="line"/>
      <point x="83" y="357" type="line"/>
      <point x="673" y="702" type="line"/>
      <point x="673" y="725" type="line"/>
      <point x="663" y="725" type="line"/>
      <point x="49" y="366" type="line"/>
      <point x="49" y="348" type="line"/>
    </contour>
  </outline>
</glyph>
<glyph name="uni1449" format="2">
  <advance width="379"/>
  <unicode hex="1449"/>
  <note>
uni1449
</note>
  <outline>
    <contour>
      <point x="330" y="336" type="line"/>
      <point x="330" y="361" type="line"/>
      <point x="63" y="531" type="line"/>
      <point x="330" y="700" type="line"/>
      <point x="330" y="726" type="line"/>
      <point x="29" y="535" type="line"/>
      <point x="29" y="526" type="line"/>
    </contour>
  </outline>
</glyph>
<glyph name="uni144B" format="2">
	<advance width="332"/>
	<unicode hex="144B"/>
	<note>
		uni144B
	</note>
	<outline>
		<contour>
			<point x="73" y="171" type="line"/>
			<point x="73" y="544" type="line"/>
			<point x="49" y="544" type="line"/>
			<point x="49" y="171" type="line"/>
		</contour>
		<contour>
			<point x="283" y="171" type="line"/>
			<point x="283" y="323" type="line" smooth="yes"/>
			<point x="283" y="405"/>
			<point x="253" y="438"/>
			<point x="182" y="438" type="curve" smooth="yes"/>
			<point x="109" y="438"/>
			<point x="66" y="395"/>
			<point x="66" y="395" type="curve"/>
			<point x="66" y="371" type="line"/>
			<point x="66" y="371"/>
			<point x="110" y="416"/>
			<point x="182" y="416" type="curve" smooth="yes"/>
			<point x="253" y="416"/>
			<point x="259" y="368"/>
			<point x="259" y="318" type="curve" smooth="yes"/>
			<point x="259" y="171" type="line"/>
		</contour>
	</outline>
</glyph>
<glyph name="uni144C" format="2">
  <advance width="759"/>
  <unicode hex="144C"/>
  <note>
uni144C
</note>
  <outline>
    <contour>
      <point x="379" y="-10" type="curve" smooth="yes"/>
      <point x="590" y="-10"/>
      <point x="680" y="123"/>
      <point x="680" y="338" type="curve" smooth="yes"/>
      <point x="680" y="714" type="line"/>
      <point x="654" y="714" type="line"/>
      <point x="654" y="338" type="line" smooth="yes"/>
      <point x="654" y="136"/>
      <point x="576" y="15"/>
      <point x="380" y="15" type="curve" smooth="yes"/>
      <point x="185" y="15"/>
      <point x="105" y="139"/>
      <point x="105" y="339" type="curve" smooth="yes"/>
      <point x="105" y="714" type="line"/>
      <point x="79" y="714" type="line"/>
      <point x="79" y="339" type="line" smooth="yes"/>
      <point x="79" y="123"/>
      <point x="171" y="-10"/>
    </contour>
  </outline>
</glyph>
<glyph name="uni144E" format="2">
  <advance width="759"/>
  <unicode hex="144E"/>
  <note>
uni144E
</note>
  <outline>
    <contour>
      <point x="79" y="0" type="line"/>
      <point x="105" y="0" type="line"/>
      <point x="105" y="377" type="line" smooth="yes"/>
      <point x="105" y="577"/>
      <point x="185" y="701"/>
      <point x="380" y="701" type="curve" smooth="yes"/>
      <point x="576" y="701"/>
      <point x="654" y="580"/>
      <point x="654" y="378" type="curve" smooth="yes"/>
      <point x="654" y="0" type="line"/>
      <point x="680" y="0" type="line"/>
      <point x="680" y="378" type="line" smooth="yes"/>
      <point x="680" y="593"/>
      <point x="590" y="726"/>
      <point x="379" y="726" type="curve" smooth="yes"/>
      <point x="171" y="726"/>
      <point x="79" y="593"/>
      <point x="79" y="377" type="curve" smooth="yes"/>
    </contour>
  </outline>
</glyph>
<glyph name="uni1450" format="2">
  <advance width="657"/>
  <unicode hex="1450"/>
  <note>
uni1450
</note>
  <outline>
    <contour>
      <point x="59" y="0" type="line"/>
      <point x="198" y="0" type="line" smooth="yes"/>
      <point x="464" y="0"/>
      <point x="578" y="121"/>
      <point x="578" y="358" type="curve" smooth="yes"/>
      <point x="578" y="595"/>
      <point x="464" y="714"/>
      <point x="198" y="714" type="curve" smooth="yes"/>
      <point x="59" y="714" type="line"/>
      <point x="59" y="689" type="line"/>
      <point x="188" y="689" type="line" smooth="yes"/>
      <point x="450" y="689"/>
      <point x="551" y="579"/>
      <point x="551" y="357" type="curve" smooth="yes"/>
      <point x="551" y="135"/>
      <point x="450" y="25"/>
      <point x="188" y="25" type="curve" smooth="yes"/>
      <point x="59" y="25" type="line"/>
    </contour>
  </outline>
</glyph>
<glyph name="uni1455" format="2">
  <advance width="657"/>
  <unicode hex="1455"/>
  <note>
uni1455
</note>
  <outline>
    <contour>
      <point x="459" y="0" type="curve" smooth="yes"/>
      <point x="598" y="0" type="line"/>
      <point x="598" y="25" type="line"/>
      <point x="469" y="25" type="line" smooth="yes"/>
      <point x="207" y="25"/>
      <point x="106" y="135"/>
      <point x="106" y="357" type="curve" smooth="yes"/>
      <point x="106" y="579"/>
      <point x="207" y="689"/>
      <point x="469" y="689" type="curve" smooth="yes"/>
      <point x="598" y="689" type="line"/>
      <point x="598" y="714" type="line"/>
      <point x="459" y="714" type="line" smooth="yes"/>
      <point x="193" y="714"/>
      <point x="79" y="595"/>
      <point x="79" y="358" type="curve" smooth="yes"/>
      <point x="79" y="121"/>
      <point x="193" y="0"/>
    </contour>
  </outline>
</glyph>
<glyph name="uni1466" format="2">
  <advance width="313"/>
  <unicode hex="1466"/>
  <note>
uni1466
</note>
  <outline>
    <contour>
      <point x="264" y="342" type="curve"/>
      <point x="264" y="364" type="line"/>
      <point x="127" y="364"/>
      <point x="74" y="421"/>
      <point x="74" y="528" type="curve" smooth="yes"/>
      <point x="74" y="635"/>
      <point x="127" y="692"/>
      <point x="264" y="692" type="curve"/>
      <point x="264" y="714" type="line"/>
      <point x="118" y="714"/>
      <point x="49" y="656"/>
      <point x="49" y="528" type="curve" smooth="yes"/>
      <point x="49" y="400"/>
      <point x="118" y="342"/>
    </contour>
  </outline>
</glyph>
<glyph name="uni146B" format="2">
  <advance width="583"/>
  <unicode hex="146B"/>
  <note>
uni146B
</note>
  <outline>
    <contour>
      <point x="478" y="0" type="line"/>
      <point x="504" y="0" type="line"/>
      <point x="504" y="470" type="line" smooth="yes"/>
      <point x="504" y="629"/>
      <point x="422" y="726"/>
      <point x="281" y="726" type="curve" smooth="yes"/>
      <point x="142" y="726"/>
      <point x="69" y="631"/>
      <point x="69" y="477" type="curve" smooth="yes"/>
      <point x="69" y="313"/>
      <point x="151" y="213"/>
      <point x="292" y="213" type="curve" smooth="yes"/>
      <point x="397" y="213"/>
      <point x="456" y="269"/>
      <point x="478" y="339" type="curve"/>
    </contour>
    <contour>
      <point x="291" y="238" type="curve" smooth="yes"/>
      <point x="169" y="238"/>
      <point x="96" y="323"/>
      <point x="96" y="476" type="curve" smooth="yes"/>
      <point x="96" y="620"/>
      <point x="160" y="701"/>
      <point x="281" y="701" type="curve" smooth="yes"/>
      <point x="410" y="701"/>
      <point x="478" y="610"/>
      <point x="478" y="470" type="curve" smooth="yes"/>
      <point x="478" y="467" type="line" smooth="yes"/>
      <point x="478" y="316"/>
      <point x="407" y="238"/>
    </contour>
  </outline>
</glyph>
<glyph name="uni146D" format="2">
  <advance width="583"/>
  <unicode hex="146D"/>
  <note>
uni146D
</note>
  <outline>
    <contour>
      <point x="79" y="0" type="line"/>
      <point x="105" y="0" type="line"/>
      <point x="105" y="339" type="line"/>
      <point x="127" y="269"/>
      <point x="186" y="213"/>
      <point x="291" y="213" type="curve" smooth="yes"/>
      <point x="432" y="213"/>
      <point x="514" y="313"/>
      <point x="514" y="477" type="curve" smooth="yes"/>
      <point x="514" y="631"/>
      <point x="441" y="726"/>
      <point x="302" y="726" type="curve" smooth="yes"/>
      <point x="161" y="726"/>
      <point x="79" y="629"/>
      <point x="79" y="470" type="curve" smooth="yes"/>
    </contour>
    <contour>
      <point x="292" y="238" type="curve" smooth="yes"/>
      <point x="176" y="238"/>
      <point x="105" y="316"/>
      <point x="105" y="467" type="curve" smooth="yes"/>
      <point x="105" y="470" type="line" smooth="yes"/>
      <point x="105" y="610"/>
      <point x="173" y="701"/>
      <point x="302" y="701" type="curve" smooth="yes"/>
      <point x="423" y="701"/>
      <point x="487" y="620"/>
      <point x="487" y="476" type="curve" smooth="yes"/>
      <point x="487" y="323"/>
      <point x="414" y="238"/>
    </contour>
  </outline>
</glyph>
<glyph name="uni146F" format="2">
  <advance width="583"/>
  <unicode hex="146F"/>
  <note>
uni146F
</note>
  <outline>
    <contour>
      <point x="281" y="-12" type="curve" smooth="yes"/>
      <point x="422" y="-12"/>
      <point x="504" y="85"/>
      <point x="504" y="244" type="curve" smooth="yes"/>
      <point x="504" y="714" type="line"/>
      <point x="478" y="714" type="line"/>
      <point x="478" y="375" type="line"/>
      <point x="456" y="445"/>
      <point x="397" y="501"/>
      <point x="292" y="501" type="curve" smooth="yes"/>
      <point x="151" y="501"/>
      <point x="69" y="401"/>
      <point x="69" y="237" type="curve" smooth="yes"/>
      <point x="69" y="83"/>
      <point x="142" y="-12"/>
    </contour>
    <contour>
      <point x="281" y="13" type="curve" smooth="yes"/>
      <point x="160" y="13"/>
      <point x="96" y="94"/>
      <point x="96" y="238" type="curve" smooth="yes"/>
      <point x="96" y="391"/>
      <point x="169" y="476"/>
      <point x="291" y="476" type="curve" smooth="yes"/>
      <point x="407" y="476"/>
      <point x="478" y="398"/>
      <point x="478" y="247" type="curve" smooth="yes"/>
      <point x="478" y="244" type="line" smooth="yes"/>
      <point x="478" y="104"/>
      <point x="410" y="13"/>
    </contour>
  </outline>
</glyph>
<glyph name="uni1472" format="2">
  <advance width="583"/>
  <unicode hex="1472"/>
  <note>
uni1472
</note>
  <outline>
    <contour>
      <point x="302" y="-12" type="curve" smooth="yes"/>
      <point x="441" y="-12"/>
      <point x="514" y="83"/>
      <point x="514" y="237" type="curve" smooth="yes"/>
      <point x="514" y="401"/>
      <point x="432" y="501"/>
      <point x="291" y="501" type="curve" smooth="yes"/>
      <point x="186" y="501"/>
      <point x="127" y="445"/>
      <point x="105" y="375" type="curve"/>
      <point x="105" y="714" type="line"/>
      <point x="79" y="714" type="line"/>
      <point x="79" y="244" type="line" smooth="yes"/>
      <point x="79" y="85"/>
      <point x="161" y="-12"/>
    </contour>
    <contour>
      <point x="302" y="13" type="curve" smooth="yes"/>
      <point x="173" y="13"/>
      <point x="105" y="104"/>
      <point x="105" y="244" type="curve" smooth="yes"/>
      <point x="105" y="247" type="line" smooth="yes"/>
      <point x="105" y="398"/>
      <point x="176" y="476"/>
      <point x="292" y="476" type="curve" smooth="yes"/>
      <point x="414" y="476"/>
      <point x="487" y="391"/>
      <point x="487" y="238" type="curve" smooth="yes"/>
      <point x="487" y="94"/>
      <point x="423" y="13"/>
    </contour>
  </outline>
</glyph>
<glyph name="uni1483" format="2">
  <advance width="391"/>
  <unicode hex="1483"/>
  <note>
uni1483
</note>
  <outline>
    <contour>
      <point x="205" y="334" type="curve" smooth="yes"/>
      <point x="291" y="334"/>
      <point x="342" y="395"/>
      <point x="342" y="471" type="curve" smooth="yes"/>
      <point x="342" y="547"/>
      <point x="291" y="607"/>
      <point x="205" y="607" type="curve" smooth="yes"/>
      <point x="158" y="607"/>
      <point x="119" y="586"/>
      <point x="93" y="544" type="curve"/>
      <point x="93" y="714" type="line"/>
      <point x="69" y="714" type="line"/>
      <point x="69" y="471" type="line" smooth="yes"/>
      <point x="69" y="395"/>
      <point x="129" y="334"/>
    </contour>
    <contour>
      <point x="205" y="355" type="curve" smooth="yes"/>
      <point x="142" y="355"/>
      <point x="93" y="405"/>
      <point x="93" y="471" type="curve" smooth="yes"/>
      <point x="93" y="539"/>
      <point x="142" y="586"/>
      <point x="205" y="586" type="curve" smooth="yes"/>
      <point x="277" y="586"/>
      <point x="318" y="537"/>
      <point x="318" y="471" type="curve" smooth="yes"/>
      <point x="318" y="405"/>
      <point x="277" y="355"/>
    </contour>
  </outline>
</glyph>
<glyph name="uni1484" format="2">
  <advance width="391"/>
  <unicode hex="1484"/>
  <note>
uni1484
</note>
  <outline>
    <contour>
      <point x="186" y="334" type="curve" smooth="yes"/>
      <point x="262" y="334"/>
      <point x="322" y="395"/>
      <point x="322" y="471" type="curve" smooth="yes"/>
      <point x="322" y="714" type="line"/>
      <point x="298" y="714" type="line"/>
      <point x="298" y="544" type="line"/>
      <point x="272" y="586"/>
      <point x="233" y="607"/>
      <point x="186" y="607" type="curve" smooth="yes"/>
      <point x="100" y="607"/>
      <point x="49" y="547"/>
      <point x="49" y="471" type="curve" smooth="yes"/>
      <point x="49" y="395"/>
      <point x="100" y="334"/>
    </contour>
    <contour>
      <point x="186" y="355" type="curve" smooth="yes"/>
      <point x="114" y="355"/>
      <point x="73" y="405"/>
      <point x="73" y="471" type="curve" smooth="yes"/>
      <point x="73" y="537"/>
      <point x="114" y="586"/>
      <point x="186" y="586" type="curve" smooth="yes"/>
      <point x="249" y="586"/>
      <point x="298" y="539"/>
      <point x="298" y="471" type="curve" smooth="yes"/>
      <point x="298" y="405"/>
      <point x="249" y="355"/>
    </contour>
  </outline>
</glyph>
<glyph name="uni1489" format="2">
  <advance width="627"/>
  <unicode hex="1489"/>
  <note>
uni1489
</note>
  <outline>
    <contour>
      <point x="522" y="0" type="line"/>
      <point x="548" y="0" type="line"/>
      <point x="548" y="462" type="line" smooth="yes"/>
      <point x="548" y="657"/>
      <point x="462" y="724"/>
      <point x="313" y="724" type="curve" smooth="yes"/>
      <point x="162" y="724"/>
      <point x="69" y="656"/>
      <point x="69" y="460" type="curve" smooth="yes"/>
      <point x="69" y="410" type="line"/>
      <point x="95" y="410" type="line"/>
      <point x="95" y="458" type="line" smooth="yes"/>
      <point x="95" y="641"/>
      <point x="179" y="699"/>
      <point x="313" y="699" type="curve" smooth="yes"/>
      <point x="450" y="699"/>
      <point x="522" y="639"/>
      <point x="522" y="470" type="curve" smooth="yes"/>
    </contour>
  </outline>
</glyph>
<glyph name="uni148B" format="2">
  <advance width="627"/>
  <unicode hex="148B"/>
  <note>
uni148B
</note>
  <outline>
    <contour>
      <point x="79" y="0" type="line"/>
      <point x="105" y="0" type="line"/>
      <point x="105" y="470" type="line" smooth="yes"/>
      <point x="105" y="639"/>
      <point x="177" y="699"/>
      <point x="314" y="699" type="curve" smooth="yes"/>
      <point x="448" y="699"/>
      <point x="532" y="641"/>
      <point x="532" y="458" type="curve" smooth="yes"/>
      <point x="532" y="410" type="line"/>
      <point x="558" y="410" type="line"/>
      <point x="558" y="460" type="line" smooth="yes"/>
      <point x="558" y="656"/>
      <point x="465" y="724"/>
      <point x="314" y="724" type="curve" smooth="yes"/>
      <point x="165" y="724"/>
      <point x="79" y="657"/>
      <point x="79" y="462" type="curve" smooth="yes"/>
    </contour>
  </outline>
</glyph>
<glyph name="uni148D" format="2">
  <advance width="627"/>
  <unicode hex="148D"/>
  <note>
uni148D
</note>
  <outline>
    <contour>
      <point x="313" y="-10" type="curve" smooth="yes"/>
      <point x="462" y="-10"/>
      <point x="548" y="57"/>
      <point x="548" y="252" type="curve" smooth="yes"/>
      <point x="548" y="714" type="line"/>
      <point x="522" y="714" type="line"/>
      <point x="522" y="244" type="line" smooth="yes"/>
      <point x="522" y="75"/>
      <point x="450" y="15"/>
      <point x="313" y="15" type="curve" smooth="yes"/>
      <point x="179" y="15"/>
      <point x="95" y="73"/>
      <point x="95" y="256" type="curve" smooth="yes"/>
      <point x="95" y="304" type="line"/>
      <point x="69" y="304" type="line"/>
      <point x="69" y="254" type="line" smooth="yes"/>
      <point x="69" y="58"/>
      <point x="162" y="-10"/>
    </contour>
  </outline>
</glyph>
<glyph name="uni1490" format="2">
  <advance width="627"/>
  <unicode hex="1490"/>
  <note>
uni1490
</note>
  <outline>
    <contour>
      <point x="314" y="-10" type="curve" smooth="yes"/>
      <point x="465" y="-10"/>
      <point x="558" y="58"/>
      <point x="558" y="254" type="curve" smooth="yes"/>
      <point x="558" y="304" type="line"/>
      <point x="532" y="304" type="line"/>
      <point x="532" y="256" type="line" smooth="yes"/>
      <point x="532" y="73"/>
      <point x="448" y="15"/>
      <point x="314" y="15" type="curve" smooth="yes"/>
      <point x="177" y="15"/>
      <point x="105" y="75"/>
      <point x="105" y="244" type="curve" smooth="yes"/>
      <point x="105" y="714" type="line"/>
      <point x="79" y="714" type="line"/>
      <point x="79" y="252" type="line" smooth="yes"/>
      <point x="79" y="57"/>
      <point x="165" y="-10"/>
    </contour>
  </outline>
</glyph>
<glyph name="uni14A2" format="2">
  <advance width="381"/>
  <unicode hex="14A2"/>
  <note>
uni14A2
</note>
  <outline>
    <contour>
      <point x="193" y="334" type="curve" smooth="yes"/>
      <point x="274" y="334"/>
      <point x="332" y="392"/>
      <point x="332" y="471" type="curve" smooth="yes"/>
      <point x="332" y="714" type="line"/>
      <point x="308" y="714" type="line"/>
      <point x="308" y="471" type="line" smooth="yes"/>
      <point x="308" y="399"/>
      <point x="264" y="356"/>
      <point x="193" y="356" type="curve" smooth="yes"/>
      <point x="122" y="356"/>
      <point x="83" y="399"/>
      <point x="83" y="471" type="curve" smooth="yes"/>
      <point x="83" y="520" type="line"/>
      <point x="59" y="520" type="line"/>
      <point x="59" y="471" type="line" smooth="yes"/>
      <point x="59" y="392"/>
      <point x="112" y="334"/>
    </contour>
  </outline>
</glyph>
<glyph name="uni14A5" format="2">
  <advance width="570"/>
  <unicode hex="14A5"/>
  <note>
uni14A5
</note>
  <outline>
    <contour>
      <point x="79" y="0" type="line"/>
      <point x="105" y="0" type="line"/>
      <point x="105" y="689" type="line"/>
      <point x="511" y="689" type="line"/>
      <point x="511" y="714" type="line"/>
      <point x="79" y="714" type="line"/>
    </contour>
  </outline>
</glyph>
<glyph name="uni14A7" format="2">
  <advance width="570"/>
  <unicode hex="14A7"/>
  <note>
uni14A7
</note>
  <outline>
    <contour>
      <point x="59" y="0" type="line"/>
      <point x="491" y="0" type="line"/>
      <point x="491" y="714" type="line"/>
      <point x="465" y="714" type="line"/>
      <point x="465" y="25" type="line"/>
      <point x="59" y="25" type="line"/>
    </contour>
  </outline>
</glyph>
<glyph name="uni14BB" format="2">
  <advance width="345"/>
  <unicode hex="14BB"/>
  <note>
uni14BB
</note>
  <outline>
    <contour>
      <point x="49" y="342" type="line"/>
      <point x="296" y="342" type="line"/>
      <point x="296" y="364" type="line"/>
      <point x="73" y="364" type="line"/>
      <point x="73" y="714" type="line"/>
      <point x="49" y="714" type="line"/>
    </contour>
  </outline>
</glyph>
<glyph name="uni14BC" format="2">
  <advance width="369"/>
  <unicode hex="14BC"/>
  <note>
uni14BC
</note>
  <outline>
    <contour>
      <point x="228" y="382" type="curve" smooth="yes"/>
      <point x="320" y="382" type="line"/>
      <point x="320" y="404" type="line"/>
      <point x="229" y="404" type="line" smooth="yes"/>
      <point x="106" y="404"/>
      <point x="73" y="462"/>
      <point x="73" y="548" type="curve" smooth="yes"/>
      <point x="73" y="634"/>
      <point x="106" y="692"/>
      <point x="229" y="692" type="curve" smooth="yes"/>
      <point x="320" y="692" type="line"/>
      <point x="320" y="714" type="line"/>
      <point x="228" y="714" type="line" smooth="yes"/>
      <point x="108" y="714"/>
      <point x="49" y="659"/>
      <point x="49" y="548" type="curve" smooth="yes"/>
      <point x="49" y="437"/>
      <point x="108" y="382"/>
    </contour>
  </outline>
</glyph>
<glyph name="uni14BD" format="2">
  <advance width="332"/>
  <unicode hex="14BD"/>
  <note>
uni14BD
</note>
  <outline>
    <contour>
      <point x="49" y="342" type="line"/>
      <point x="283" y="342" type="line"/>
      <point x="283" y="714" type="line"/>
      <point x="259" y="714" type="line"/>
      <point x="259" y="364" type="line"/>
      <point x="49" y="364" type="line"/>
    </contour>
  </outline>
</glyph>
<glyph name="uni14BE" format="2">
  <advance width="373"/>
  <unicode hex="14BE"/>
  <note>
uni14BE
</note>
  <outline>
    <contour>
      <point x="67" y="351" type="line"/>
      <point x="324" y="351" type="line"/>
      <point x="324" y="371" type="line"/>
      <point x="101" y="371" type="line"/>
      <point x="195" y="457" type="line" smooth="yes"/>
      <point x="249" y="506"/>
      <point x="298" y="542"/>
      <point x="298" y="612" type="curve" smooth="yes"/>
      <point x="298" y="678"/>
      <point x="255" y="726"/>
      <point x="175" y="726" type="curve" smooth="yes"/>
      <point x="95" y="726"/>
      <point x="49" y="678"/>
      <point x="49" y="612" type="curve"/>
      <point x="73" y="612" type="line"/>
      <point x="73" y="664"/>
      <point x="110" y="706"/>
      <point x="175" y="706" type="curve" smooth="yes"/>
      <point x="240" y="706"/>
      <point x="274" y="664"/>
      <point x="274" y="612" type="curve" smooth="yes"/>
      <point x="274" y="552"/>
      <point x="228" y="516"/>
      <point x="183" y="474" type="curve" smooth="yes"/>
      <point x="67" y="367" type="line"/>
    </contour>
  </outline>
</glyph>
<glyph name="uni14BF" format="2">
  <advance width="538"/>
  <unicode hex="14BF"/>
  <note>
uni14BF
</note>
  <outline>
    <contour>
      <point x="71" y="0" type="line"/>
      <point x="469" y="0" type="line"/>
      <point x="469" y="25" type="line"/>
      <point x="107" y="25" type="line"/>
      <point x="304" y="229" type="line" smooth="yes"/>
      <point x="424" y="354"/>
      <point x="469" y="440"/>
      <point x="469" y="530" type="curve" smooth="yes"/>
      <point x="469" y="661"/>
      <point x="377" y="726"/>
      <point x="270" y="726" type="curve" smooth="yes"/>
      <point x="154" y="726"/>
      <point x="69" y="651"/>
      <point x="69" y="539" type="curve"/>
      <point x="96" y="539" type="line"/>
      <point x="96" y="641"/>
      <point x="166" y="701"/>
      <point x="270" y="701" type="curve" smooth="yes"/>
      <point x="371" y="701"/>
      <point x="442" y="644"/>
      <point x="442" y="531" type="curve" smooth="yes"/>
      <point x="442" y="450"/>
      <point x="404" y="367"/>
      <point x="284" y="243" type="curve" smooth="yes"/>
      <point x="71" y="23" type="line"/>
    </contour>
  </outline>
</glyph>
<glyph name="uni14C4" format="2">
  <advance width="897"/>
  <unicode hex="14C4"/>
  <note>
uni14C4
</note>
  <outline>
    <contour>
      <point x="59" y="0" type="line"/>
      <point x="581" y="0" type="line" smooth="yes"/>
      <point x="718" y="0"/>
      <point x="828" y="111"/>
      <point x="828" y="247" type="curve" smooth="yes"/>
      <point x="828" y="383"/>
      <point x="717" y="493"/>
      <point x="581" y="493" type="curve" smooth="yes"/>
      <point x="446" y="493"/>
      <point x="336" y="383"/>
      <point x="336" y="247" type="curve" smooth="yes"/>
      <point x="336" y="148"/>
      <point x="395" y="60"/>
      <point x="481" y="25" type="curve"/>
      <point x="59" y="25" type="line"/>
    </contour>
    <contour>
      <point x="581" y="25" type="curve" smooth="yes"/>
      <point x="459" y="25"/>
      <point x="363" y="125"/>
      <point x="363" y="247" type="curve" smooth="yes"/>
      <point x="363" y="369"/>
      <point x="460" y="468"/>
      <point x="581" y="468" type="curve" smooth="yes"/>
      <point x="703" y="468"/>
      <point x="801" y="369"/>
      <point x="801" y="247" type="curve" smooth="yes"/>
      <point x="801" y="125"/>
      <point x="704" y="25"/>
    </contour>
  </outline>
</glyph>
<glyph name="uni14C7" format="2">
  <advance width="897"/>
  <unicode hex="14C7"/>
  <note>
uni14C7
</note>
  <outline>
    <contour>
      <point x="316" y="0" type="curve" smooth="yes"/>
      <point x="838" y="0" type="line"/>
      <point x="838" y="25" type="line"/>
      <point x="416" y="25" type="line"/>
      <point x="502" y="60"/>
      <point x="561" y="148"/>
      <point x="561" y="247" type="curve" smooth="yes"/>
      <point x="561" y="383"/>
      <point x="451" y="493"/>
      <point x="316" y="493" type="curve" smooth="yes"/>
      <point x="180" y="493"/>
      <point x="69" y="383"/>
      <point x="69" y="247" type="curve" smooth="yes"/>
      <point x="69" y="111"/>
      <point x="179" y="0"/>
    </contour>
    <contour>
      <point x="316" y="25" type="curve" smooth="yes"/>
      <point x="193" y="25"/>
      <point x="96" y="125"/>
      <point x="96" y="247" type="curve" smooth="yes"/>
      <point x="96" y="369"/>
      <point x="194" y="468"/>
      <point x="316" y="468" type="curve" smooth="yes"/>
      <point x="437" y="468"/>
      <point x="534" y="369"/>
      <point x="534" y="247" type="curve" smooth="yes"/>
      <point x="534" y="125"/>
      <point x="438" y="25"/>
    </contour>
  </outline>
</glyph>
<glyph name="uni14D0" format="2">
  <advance width="569"/>
  <unicode hex="14D0"/>
  <note>
uni14D0
</note>
  <outline>
    <contour>
      <point x="205" y="406" type="curve" smooth="yes"/>
      <point x="540" y="406" type="line"/>
      <point x="540" y="428" type="line"/>
      <point x="281" y="428" type="line"/>
      <point x="336" y="459"/>
      <point x="362" y="509"/>
      <point x="362" y="562" type="curve" smooth="yes"/>
      <point x="362" y="650"/>
      <point x="291" y="719"/>
      <point x="205" y="719" type="curve" smooth="yes"/>
      <point x="119" y="719"/>
      <point x="49" y="649"/>
      <point x="49" y="562" type="curve" smooth="yes"/>
      <point x="49" y="475"/>
      <point x="119" y="406"/>
    </contour>
    <contour>
      <point x="205" y="429" type="curve" smooth="yes"/>
      <point x="132" y="429"/>
      <point x="73" y="488"/>
      <point x="73" y="562" type="curve" smooth="yes"/>
      <point x="73" y="636"/>
      <point x="132" y="696"/>
      <point x="206" y="696" type="curve" smooth="yes"/>
      <point x="279" y="696"/>
      <point x="338" y="636"/>
      <point x="338" y="562" type="curve" smooth="yes"/>
      <point x="338" y="488"/>
      <point x="278" y="429"/>
    </contour>
  </outline>
</glyph>
<glyph name="uni14D1" format="2">
	<advance width="406"/>
	<unicode hex="14D1"/>
	<note>
		uni14D1
	</note>
	<outline>
		<contour>
			<point x="49" y="544" type="line"/>
			<point x="49" y="343" type="line" smooth="yes"/>
			<point x="49" y="226"/>
			<point x="92" y="164"/>
			<point x="203" y="164" type="curve" smooth="yes"/>
			<point x="314" y="164"/>
			<point x="357" y="226"/>
			<point x="357" y="343" type="curve" smooth="yes"/>
			<point x="357" y="544" type="line"/>
			<point x="333" y="544" type="line"/>
			<point x="333" y="353" type="line" smooth="yes"/>
			<point x="333" y="233"/>
			<point x="292" y="184"/>
			<point x="203" y="184" type="curve" smooth="yes"/>
			<point x="114" y="184"/>
			<point x="73" y="233"/>
			<point x="73" y="353" type="curve" smooth="yes"/>
			<point x="73" y="544" type="line"/>
		</contour>
	</outline>
</glyph>
<glyph name="uni14D2" format="2">
  <advance width="569"/>
  <unicode hex="14D2"/>
  <note>
uni14D2
</note>
  <outline>
    <contour>
      <point x="29" y="406" type="line"/>
      <point x="364" y="406" type="line" smooth="yes"/>
      <point x="450" y="406"/>
      <point x="520" y="475"/>
      <point x="520" y="562" type="curve" smooth="yes"/>
      <point x="520" y="649"/>
      <point x="450" y="719"/>
      <point x="364" y="719" type="curve" smooth="yes"/>
      <point x="278" y="719"/>
      <point x="207" y="650"/>
      <point x="207" y="562" type="curve" smooth="yes"/>
      <point x="207" y="509"/>
      <point x="233" y="459"/>
      <point x="288" y="428" type="curve"/>
      <point x="29" y="428" type="line"/>
    </contour>
    <contour>
      <point x="364" y="429" type="curve" smooth="yes"/>
      <point x="291" y="429"/>
      <point x="231" y="488"/>
      <point x="231" y="562" type="curve" smooth="yes"/>
      <point x="231" y="636"/>
      <point x="290" y="696"/>
      <point x="363" y="696" type="curve" smooth="yes"/>
      <point x="437" y="696"/>
      <point x="496" y="636"/>
      <point x="496" y="562" type="curve" smooth="yes"/>
      <point x="496" y="488"/>
      <point x="437" y="429"/>
    </contour>
  </outline>
</glyph>
<glyph name="uni14D3" format="2">
  <advance width="859"/>
  <unicode hex="14D3"/>
  <note>
uni14D3
</note>
  <outline>
    <contour>
      <point x="485" y="0" type="line"/>
      <point x="543" y="0" type="line" smooth="yes"/>
      <point x="679" y="0"/>
      <point x="790" y="113"/>
      <point x="790" y="249" type="curve" smooth="yes"/>
      <point x="790" y="385"/>
      <point x="680" y="500"/>
      <point x="543" y="500" type="curve" smooth="yes"/>
      <point x="59" y="500" type="line"/>
      <point x="59" y="475" type="line"/>
      <point x="543" y="475" type="line" smooth="yes"/>
      <point x="666" y="475"/>
      <point x="763" y="371"/>
      <point x="763" y="249" type="curve" smooth="yes"/>
      <point x="763" y="127"/>
      <point x="665" y="25"/>
      <point x="543" y="25" type="curve" smooth="yes"/>
      <point x="485" y="25" type="line"/>
    </contour>
  </outline>
</glyph>
<glyph name="uni14D7" format="2">
  <advance width="859"/>
  <unicode hex="14D7"/>
  <note>
uni14D7
</note>
  <outline>
    <contour>
      <point x="59" y="0" type="line"/>
      <point x="543" y="0" type="line" smooth="yes"/>
      <point x="680" y="0"/>
      <point x="790" y="115"/>
      <point x="790" y="251" type="curve" smooth="yes"/>
      <point x="790" y="387"/>
      <point x="679" y="500"/>
      <point x="543" y="500" type="curve" smooth="yes"/>
      <point x="485" y="500" type="line"/>
      <point x="485" y="475" type="line"/>
      <point x="543" y="475" type="line" smooth="yes"/>
      <point x="665" y="475"/>
      <point x="763" y="373"/>
      <point x="763" y="251" type="curve" smooth="yes"/>
      <point x="763" y="129"/>
      <point x="666" y="25"/>
      <point x="543" y="25" type="curve" smooth="yes"/>
      <point x="59" y="25" type="line"/>
    </contour>
  </outline>
</glyph>
<glyph name="uni14DA" format="2">
  <advance width="859"/>
  <unicode hex="14DA"/>
  <note>
uni14DA
</note>
  <outline>
    <contour>
      <point x="316" y="0" type="curve" smooth="yes"/>
      <point x="800" y="0" type="line"/>
      <point x="800" y="25" type="line"/>
      <point x="316" y="25" type="line" smooth="yes"/>
      <point x="193" y="25"/>
      <point x="96" y="129"/>
      <point x="96" y="251" type="curve" smooth="yes"/>
      <point x="96" y="373"/>
      <point x="194" y="475"/>
      <point x="316" y="475" type="curve" smooth="yes"/>
      <point x="374" y="475" type="line"/>
      <point x="374" y="500" type="line"/>
      <point x="316" y="500" type="line" smooth="yes"/>
      <point x="180" y="500"/>
      <point x="69" y="387"/>
      <point x="69" y="251" type="curve" smooth="yes"/>
      <point x="69" y="115"/>
      <point x="179" y="0"/>
    </contour>
  </outline>
</glyph>
<glyph name="uni14EA" format="2">
  <advance width="532"/>
  <unicode hex="14EA"/>
  <note>
uni14EA
</note>
  <outline>
    <contour>
      <point x="205" y="401" type="curve" smooth="yes"/>
      <point x="483" y="401" type="line"/>
      <point x="483" y="423" type="line"/>
      <point x="205" y="423" type="line" smooth="yes"/>
      <point x="132" y="423"/>
      <point x="73" y="483"/>
      <point x="73" y="557" type="curve" smooth="yes"/>
      <point x="73" y="631"/>
      <point x="132" y="691"/>
      <point x="206" y="691" type="curve" smooth="yes"/>
      <point x="230" y="691" type="line"/>
      <point x="230" y="714" type="line"/>
      <point x="205" y="714" type="line" smooth="yes"/>
      <point x="119" y="714"/>
      <point x="49" y="644"/>
      <point x="49" y="557" type="curve" smooth="yes"/>
      <point x="49" y="470"/>
      <point x="119" y="401"/>
    </contour>
  </outline>
</glyph>
<glyph name="uni14EB" format="2">
  <advance width="368"/>
  <unicode hex="14EB"/>
  <note>
uni14EB
</note>
  <outline>
    <contour>
      <point x="314" y="322" type="line"/>
      <point x="319" y="322" type="line"/>
      <point x="319" y="343" type="line"/>
      <point x="88" y="434" type="line"/>
      <point x="319" y="516" type="line"/>
      <point x="319" y="531" type="line"/>
      <point x="88" y="614" type="line"/>
      <point x="319" y="704" type="line"/>
      <point x="319" y="725" type="line"/>
      <point x="314" y="725" type="line"/>
      <point x="49" y="621" type="line"/>
      <point x="49" y="605" type="line"/>
      <point x="275" y="524" type="line"/>
      <point x="49" y="442" type="line"/>
      <point x="49" y="426" type="line"/>
    </contour>
  </outline>
</glyph>
<glyph name="uni14EC" format="2">
  <advance width="619"/>
  <unicode hex="14EC"/>
  <note>
uni14EC
</note>
  <outline>
    <contour>
      <point x="543" y="-12" type="line"/>
      <point x="550" y="-12" type="line"/>
      <point x="550" y="13" type="line"/>
      <point x="108" y="179" type="line"/>
      <point x="550" y="344" type="line"/>
      <point x="550" y="370" type="line"/>
      <point x="108" y="535" type="line"/>
      <point x="550" y="701" type="line"/>
      <point x="550" y="726" type="line"/>
      <point x="543" y="726" type="line"/>
      <point x="69" y="547" type="line"/>
      <point x="69" y="523" type="line"/>
      <point x="516" y="357" type="line"/>
      <point x="69" y="191" type="line"/>
      <point x="69" y="167" type="line"/>
    </contour>
  </outline>
</glyph>
<glyph name="uni14ED" format="2">
  <advance width="542"/>
  <unicode hex="14ED"/>
  <note>
uni14ED
</note>
  <outline>
    <contour>
      <point x="437" y="0" type="line"/>
      <point x="463" y="0" type="line"/>
      <point x="463" y="283" type="line"/>
      <point x="435" y="283" type="line" smooth="yes"/>
      <point x="220" y="283"/>
      <point x="95" y="386"/>
      <point x="95" y="612" type="curve" smooth="yes"/>
      <point x="95" y="714" type="line"/>
      <point x="69" y="714" type="line"/>
      <point x="69" y="604" type="line" smooth="yes"/>
      <point x="69" y="360"/>
      <point x="212" y="258"/>
      <point x="427" y="258" type="curve" smooth="yes"/>
      <point x="437" y="258" type="line"/>
    </contour>
  </outline>
</glyph>
<glyph name="uni14EF" format="2">
  <advance width="542"/>
  <unicode hex="14EF"/>
  <note>
uni14EF
</note>
  <outline>
    <contour>
      <point x="79" y="0" type="line"/>
      <point x="105" y="0" type="line"/>
      <point x="105" y="258" type="line"/>
      <point x="115" y="258" type="line" smooth="yes"/>
      <point x="330" y="258"/>
      <point x="473" y="360"/>
      <point x="473" y="604" type="curve" smooth="yes"/>
      <point x="473" y="714" type="line"/>
      <point x="447" y="714" type="line"/>
      <point x="447" y="612" type="line" smooth="yes"/>
      <point x="447" y="386"/>
      <point x="322" y="283"/>
      <point x="107" y="283" type="curve" smooth="yes"/>
      <point x="79" y="283" type="line"/>
    </contour>
  </outline>
</glyph>
<glyph name="uni14F1" format="2">
  <advance width="542"/>
  <unicode hex="14F1"/>
  <note>
uni14F1
</note>
  <outline>
    <contour>
      <point x="69" y="0" type="line"/>
      <point x="95" y="0" type="line"/>
      <point x="95" y="102" type="line" smooth="yes"/>
      <point x="95" y="328"/>
      <point x="220" y="431"/>
      <point x="435" y="431" type="curve" smooth="yes"/>
      <point x="463" y="431" type="line"/>
      <point x="463" y="714" type="line"/>
      <point x="437" y="714" type="line"/>
      <point x="437" y="456" type="line"/>
      <point x="427" y="456" type="line" smooth="yes"/>
      <point x="212" y="456"/>
      <point x="69" y="354"/>
      <point x="69" y="110" type="curve" smooth="yes"/>
    </contour>
  </outline>
</glyph>
<glyph name="uni14F4" format="2">
  <advance width="542"/>
  <unicode hex="14F4"/>
  <note>
uni14F4
</note>
  <outline>
    <contour>
      <point x="447" y="0" type="line"/>
      <point x="473" y="0" type="line"/>
      <point x="473" y="110" type="line" smooth="yes"/>
      <point x="473" y="354"/>
      <point x="330" y="456"/>
      <point x="115" y="456" type="curve" smooth="yes"/>
      <point x="105" y="456" type="line"/>
      <point x="105" y="714" type="line"/>
      <point x="79" y="714" type="line"/>
      <point x="79" y="431" type="line"/>
      <point x="107" y="431" type="line" smooth="yes"/>
      <point x="322" y="431"/>
      <point x="447" y="328"/>
      <point x="447" y="102" type="curve" smooth="yes"/>
    </contour>
  </outline>
</glyph>
<glyph name="uni1505" format="2">
  <advance width="341"/>
  <unicode hex="1505"/>
  <note>
uni1505
</note>
  <outline>
    <contour>
      <point x="268" y="342" type="line"/>
      <point x="292" y="342" type="line"/>
      <point x="292" y="387" type="line" smooth="yes"/>
      <point x="292" y="523"/>
      <point x="229" y="586"/>
      <point x="79" y="586" type="curve" smooth="yes"/>
      <point x="73" y="586" type="line"/>
      <point x="73" y="714" type="line"/>
      <point x="49" y="714" type="line"/>
      <point x="49" y="564" type="line"/>
      <point x="77" y="564" type="line" smooth="yes"/>
      <point x="224" y="564"/>
      <point x="268" y="502"/>
      <point x="268" y="382" type="curve" smooth="yes"/>
    </contour>
  </outline>
</glyph>
<glyph name="uni1506" format="2">
	<advance width="346"/>
	<unicode hex="1506"/>
	<note>
		uni1506
	</note>
	<outline>
		<contour>
			<point x="166" y="164" type="curve" smooth="yes"/>
			<point x="242" y="164"/>
			<point x="294" y="202"/>
			<point x="294" y="264" type="curve" smooth="yes"/>
			<point x="294" y="332"/>
			<point x="230" y="353"/>
			<point x="177" y="369" type="curve" smooth="yes"/>
			<point x="127" y="384"/>
			<point x="78" y="399"/>
			<point x="78" y="451" type="curve" smooth="yes"/>
			<point x="78" y="497"/>
			<point x="117" y="529"/>
			<point x="183" y="529" type="curve" smooth="yes"/>
			<point x="223" y="529"/>
			<point x="254" y="517"/>
			<point x="276" y="492" type="curve"/>
			<point x="297" y="501" type="line"/>
			<point x="272" y="534"/>
			<point x="233" y="551"/>
			<point x="182" y="551" type="curve" smooth="yes"/>
			<point x="105" y="551"/>
			<point x="54" y="512"/>
			<point x="54" y="451" type="curve" smooth="yes"/>
			<point x="54" y="382"/>
			<point x="118" y="362"/>
			<point x="171" y="346" type="curve" smooth="yes"/>
			<point x="221" y="331"/>
			<point x="270" y="315"/>
			<point x="270" y="263" type="curve" smooth="yes"/>
			<point x="270" y="217"/>
			<point x="230" y="186"/>
			<point x="165" y="186" type="curve" smooth="yes"/>
			<point x="122" y="186"/>
			<point x="91" y="199"/>
			<point x="70" y="226" type="curve"/>
			<point x="49" y="217" type="line"/>
			<point x="76" y="181"/>
			<point x="115" y="164"/>
		</contour>
	</outline>
</glyph>
<glyph name="uni1507" format="2">
  <advance width="341"/>
  <unicode hex="1507"/>
  <note>
uni1507
</note>
  <outline>
    <contour>
      <point x="49" y="342" type="line"/>
      <point x="73" y="342" type="line"/>
      <point x="73" y="382" type="line" smooth="yes"/>
      <point x="73" y="502"/>
      <point x="117" y="564"/>
      <point x="264" y="564" type="curve" smooth="yes"/>
      <point x="292" y="564" type="line"/>
      <point x="292" y="714" type="line"/>
      <point x="268" y="714" type="line"/>
      <point x="268" y="586" type="line"/>
      <point x="262" y="586" type="line" smooth="yes"/>
      <point x="112" y="586"/>
      <point x="49" y="523"/>
      <point x="49" y="387" type="curve" smooth="yes"/>
    </contour>
  </outline>
</glyph>
<glyph name="uni1508" format="2">
  <advance width="438"/>
  <unicode hex="1508"/>
  <note>
uni1508
</note>
  <outline>
    <contour>
      <point x="223" y="342" type="curve" smooth="yes"/>
      <point x="389" y="342" type="line"/>
      <point x="389" y="364" type="line"/>
      <point x="223" y="364" type="line" smooth="yes"/>
      <point x="95" y="364"/>
      <point x="73" y="448"/>
      <point x="73" y="513" type="curve" smooth="yes"/>
      <point x="73" y="702" type="line"/>
      <point x="49" y="702" type="line"/>
      <point x="49" y="515" type="line" smooth="yes"/>
      <point x="49" y="400"/>
      <point x="108" y="342"/>
    </contour>
  </outline>
</glyph>
<glyph name="uni1509" format="2">
  <advance width="325"/>
  <unicode hex="1509"/>
  <note>
uni1509
</note>
  <outline>
    <contour>
      <point x="174" y="274" type="curve" smooth="yes"/>
      <point x="229" y="274"/>
      <point x="276" y="313"/>
      <point x="276" y="405" type="curve" smooth="yes"/>
      <point x="276" y="529"/>
      <point x="192" y="566"/>
      <point x="83" y="566" type="curve" smooth="yes"/>
      <point x="73" y="566" type="line"/>
      <point x="73" y="714" type="line"/>
      <point x="49" y="714" type="line"/>
      <point x="49" y="544" type="line"/>
      <point x="73" y="544" type="line" smooth="yes"/>
      <point x="183" y="544"/>
      <point x="252" y="514"/>
      <point x="252" y="405" type="curve" smooth="yes"/>
      <point x="252" y="328"/>
      <point x="217" y="296"/>
      <point x="172" y="296" type="curve" smooth="yes"/>
      <point x="131" y="296"/>
      <point x="103" y="322"/>
      <point x="103" y="364" type="curve" smooth="yes"/>
      <point x="103" y="402"/>
      <point x="124" y="441"/>
      <point x="206" y="441" type="curve" smooth="yes"/>
      <point x="257" y="441" type="line"/>
      <point x="257" y="461" type="line"/>
      <point x="202" y="461" type="line" smooth="yes"/>
      <point x="114" y="461"/>
      <point x="79" y="416"/>
      <point x="79" y="364" type="curve" smooth="yes"/>
      <point x="79" y="311"/>
      <point x="120" y="274"/>
    </contour>
  </outline>
</glyph>
<glyph name="uni150A" format="2">
  <advance width="325"/>
  <unicode hex="150A"/>
  <note>
uni150A
</note>
  <outline>
    <contour>
      <point x="151" y="274" type="curve" smooth="yes"/>
      <point x="205" y="274"/>
      <point x="246" y="311"/>
      <point x="246" y="364" type="curve" smooth="yes"/>
      <point x="246" y="416"/>
      <point x="211" y="461"/>
      <point x="123" y="461" type="curve" smooth="yes"/>
      <point x="68" y="461" type="line"/>
      <point x="68" y="441" type="line"/>
      <point x="119" y="441" type="line" smooth="yes"/>
      <point x="201" y="441"/>
      <point x="222" y="402"/>
      <point x="222" y="364" type="curve" smooth="yes"/>
      <point x="222" y="322"/>
      <point x="194" y="296"/>
      <point x="153" y="296" type="curve" smooth="yes"/>
      <point x="108" y="296"/>
      <point x="73" y="328"/>
      <point x="73" y="405" type="curve" smooth="yes"/>
      <point x="73" y="514"/>
      <point x="142" y="544"/>
      <point x="252" y="544" type="curve" smooth="yes"/>
      <point x="276" y="544" type="line"/>
      <point x="276" y="714" type="line"/>
      <point x="252" y="714" type="line"/>
      <point x="252" y="566" type="line"/>
      <point x="242" y="566" type="line" smooth="yes"/>
      <point x="133" y="566"/>
      <point x="49" y="529"/>
      <point x="49" y="405" type="curve" smooth="yes"/>
      <point x="49" y="313"/>
      <point x="96" y="274"/>
    </contour>
  </outline>
</glyph>
<glyph name="uni150B" format="2">
  <advance width="344"/>
  <unicode hex="150B"/>
  <note>
uni150B
</note>
  <outline>
    <contour>
      <point x="250" y="349" type="line"/>
      <point x="274" y="349" type="line"/>
      <point x="274" y="384" type="line" smooth="yes"/>
      <point x="274" y="510"/>
      <point x="231" y="557"/>
      <point x="101" y="557" type="curve" smooth="yes"/>
      <point x="95" y="557" type="line"/>
      <point x="95" y="665" type="line"/>
      <point x="71" y="665" type="line"/>
      <point x="71" y="535" type="line"/>
      <point x="93" y="535" type="line" smooth="yes"/>
      <point x="223" y="535"/>
      <point x="250" y="492"/>
      <point x="250" y="376" type="curve" smooth="yes"/>
    </contour>
    <contour>
      <point x="262" y="244" type="curve" smooth="yes"/>
      <point x="280" y="244"/>
      <point x="295" y="258"/>
      <point x="295" y="277" type="curve" smooth="yes"/>
      <point x="295" y="295"/>
      <point x="280" y="310"/>
      <point x="262" y="310" type="curve" smooth="yes"/>
      <point x="243" y="310"/>
      <point x="228" y="295"/>
      <point x="228" y="277" type="curve" smooth="yes"/>
      <point x="228" y="258"/>
      <point x="243" y="244"/>
    </contour>
    <contour>
      <point x="83" y="704" type="curve" smooth="yes"/>
      <point x="101" y="704"/>
      <point x="116" y="718"/>
      <point x="116" y="737" type="curve" smooth="yes"/>
      <point x="116" y="755"/>
      <point x="101" y="770"/>
      <point x="83" y="770" type="curve" smooth="yes"/>
      <point x="64" y="770"/>
      <point x="49" y="755"/>
      <point x="49" y="737" type="curve" smooth="yes"/>
      <point x="49" y="718"/>
      <point x="64" y="704"/>
    </contour>
  </outline>
</glyph>
<glyph name="uni150C" format="2">
  <advance width="732"/>
  <unicode hex="150C"/>
  <note>
uni150C
</note>
  <outline>
    <contour>
      <point x="663" y="-10" type="line"/>
      <point x="673" y="-10" type="line"/>
      <point x="673" y="14" type="line"/>
      <point x="83" y="358" type="line"/>
      <point x="673" y="703" type="line"/>
      <point x="673" y="726" type="line"/>
      <point x="663" y="726" type="line"/>
      <point x="49" y="367" type="line"/>
      <point x="49" y="349" type="line"/>
    </contour>
    <contour>
      <point x="119" y="500" type="curve" smooth="yes"/>
      <point x="137" y="500"/>
      <point x="152" y="514"/>
      <point x="152" y="533" type="curve" smooth="yes"/>
      <point x="152" y="551"/>
      <point x="137" y="566"/>
      <point x="119" y="566" type="curve" smooth="yes"/>
      <point x="100" y="566"/>
      <point x="85" y="551"/>
      <point x="85" y="533" type="curve" smooth="yes"/>
      <point x="85" y="514"/>
      <point x="100" y="500"/>
    </contour>
    <contour>
      <point x="346" y="614" type="line"/>
      <point x="366" y="614" type="line"/>
      <point x="366" y="649" type="line" smooth="yes"/>
      <point x="366" y="775"/>
      <point x="323" y="822"/>
      <point x="193" y="822" type="curve" smooth="yes"/>
      <point x="187" y="822" type="line"/>
      <point x="187" y="930" type="line"/>
      <point x="167" y="930" type="line"/>
      <point x="167" y="803" type="line"/>
      <point x="185" y="803" type="line" smooth="yes"/>
      <point x="315" y="803"/>
      <point x="346" y="757"/>
      <point x="346" y="641" type="curve" smooth="yes"/>
    </contour>
    <contour>
      <point x="522" y="733" type="curve" smooth="yes"/>
      <point x="540" y="733"/>
      <point x="555" y="747"/>
      <point x="555" y="766" type="curve" smooth="yes"/>
      <point x="555" y="784"/>
      <point x="540" y="799"/>
      <point x="522" y="799" type="curve" smooth="yes"/>
      <point x="503" y="799"/>
      <point x="488" y="784"/>
      <point x="488" y="766" type="curve" smooth="yes"/>
      <point x="488" y="747"/>
      <point x="503" y="733"/>
    </contour>
  </outline>
</glyph>
<glyph name="uni1510" format="2">
  <advance width="856"/>
  <unicode hex="1510"/>
  <note>
uni1510
</note>
  <outline>
    <contour>
      <point x="601" y="-12" type="curve" smooth="yes"/>
      <point x="737" y="-12"/>
      <point x="787" y="83"/>
      <point x="787" y="237" type="curve" smooth="yes"/>
      <point x="787" y="282" type="line"/>
      <point x="761" y="282" type="line"/>
      <point x="761" y="238" type="line" smooth="yes"/>
      <point x="761" y="94"/>
      <point x="719" y="13"/>
      <point x="601" y="13" type="curve" smooth="yes"/>
      <point x="483" y="13"/>
      <point x="441" y="94"/>
      <point x="441" y="238" type="curve" smooth="yes"/>
      <point x="441" y="477" type="line" smooth="yes"/>
      <point x="441" y="631"/>
      <point x="391" y="726"/>
      <point x="255" y="726" type="curve" smooth="yes"/>
      <point x="119" y="726"/>
      <point x="69" y="631"/>
      <point x="69" y="477" type="curve" smooth="yes"/>
      <point x="69" y="432" type="line"/>
      <point x="95" y="432" type="line"/>
      <point x="95" y="476" type="line" smooth="yes"/>
      <point x="95" y="620"/>
      <point x="137" y="701"/>
      <point x="255" y="701" type="curve" smooth="yes"/>
      <point x="373" y="701"/>
      <point x="415" y="620"/>
      <point x="415" y="476" type="curve" smooth="yes"/>
      <point x="415" y="237" type="line" smooth="yes"/>
      <point x="415" y="83"/>
      <point x="465" y="-12"/>
    </contour>
  </outline>
</glyph>
<glyph name="uni1511" format="2">
  <advance width="856"/>
  <unicode hex="1511"/>
  <note>
uni1511
</note>
  <outline>
    <contour>
      <point x="255" y="-12" type="curve" smooth="yes"/>
      <point x="391" y="-12"/>
      <point x="441" y="83"/>
      <point x="441" y="237" type="curve" smooth="yes"/>
      <point x="441" y="476" type="line" smooth="yes"/>
      <point x="441" y="620"/>
      <point x="483" y="701"/>
      <point x="601" y="701" type="curve" smooth="yes"/>
      <point x="719" y="701"/>
      <point x="761" y="620"/>
      <point x="761" y="476" type="curve" smooth="yes"/>
      <point x="761" y="432" type="line"/>
      <point x="787" y="432" type="line"/>
      <point x="787" y="477" type="line" smooth="yes"/>
      <point x="787" y="631"/>
      <point x="737" y="726"/>
      <point x="601" y="726" type="curve" smooth="yes"/>
      <point x="465" y="726"/>
      <point x="415" y="631"/>
      <point x="415" y="477" type="curve" smooth="yes"/>
      <point x="415" y="238" type="line" smooth="yes"/>
      <point x="415" y="94"/>
      <point x="373" y="13"/>
      <point x="255" y="13" type="curve" smooth="yes"/>
      <point x="137" y="13"/>
      <point x="95" y="94"/>
      <point x="95" y="238" type="curve" smooth="yes"/>
      <point x="95" y="282" type="line"/>
      <point x="69" y="282" type="line"/>
      <point x="69" y="237" type="line" smooth="yes"/>
      <point x="69" y="83"/>
      <point x="119" y="-12"/>
    </contour>
  </outline>
</glyph>
<glyph name="uni1513" format="2">
  <advance width="1008"/>
  <unicode hex="1513"/>
  <note>
uni1513
</note>
  <outline>
    <contour>
      <point x="240" y="-21" type="curve"/>
      <point x="253" y="1" type="line"/>
      <point x="153" y="44"/>
      <point x="95" y="122"/>
      <point x="95" y="227" type="curve" smooth="yes"/>
      <point x="95" y="336"/>
      <point x="158" y="399"/>
      <point x="262" y="399" type="curve" smooth="yes"/>
      <point x="372" y="399"/>
      <point x="416" y="329"/>
      <point x="492" y="199" type="curve" smooth="yes"/>
      <point x="566" y="73"/>
      <point x="616" y="-12"/>
      <point x="746" y="-12" type="curve" smooth="yes"/>
      <point x="868" y="-12"/>
      <point x="939" y="62"/>
      <point x="939" y="185" type="curve" smooth="yes"/>
      <point x="939" y="296"/>
      <point x="881" y="375"/>
      <point x="766" y="425" type="curve"/>
      <point x="753" y="403" type="line"/>
      <point x="858" y="358"/>
      <point x="913" y="287"/>
      <point x="913" y="184" type="curve" smooth="yes"/>
      <point x="913" y="76"/>
      <point x="852" y="13"/>
      <point x="747" y="13" type="curve" smooth="yes"/>
      <point x="634" y="13"/>
      <point x="591" y="85"/>
      <point x="516" y="213" type="curve" smooth="yes"/>
      <point x="438" y="346"/>
      <point x="388" y="424"/>
      <point x="264" y="424" type="curve" smooth="yes"/>
      <point x="142" y="424"/>
      <point x="69" y="350"/>
      <point x="69" y="226" type="curve" smooth="yes"/>
      <point x="69" y="112"/>
      <point x="132" y="26"/>
    </contour>
  </outline>
</glyph>
<glyph name="uni1515" format="2">
  <advance width="1008"/>
  <unicode hex="1515"/>
  <note>
uni1515
</note>
  <outline>
    <contour>
      <point x="768" y="-21" type="line"/>
      <point x="876" y="26"/>
      <point x="939" y="112"/>
      <point x="939" y="226" type="curve" smooth="yes"/>
      <point x="939" y="350"/>
      <point x="866" y="424"/>
      <point x="744" y="424" type="curve" smooth="yes"/>
      <point x="620" y="424"/>
      <point x="571" y="347"/>
      <point x="492" y="213" type="curve" smooth="yes"/>
      <point x="415" y="82"/>
      <point x="373" y="13"/>
      <point x="262" y="13" type="curve" smooth="yes"/>
      <point x="156" y="13"/>
      <point x="95" y="76"/>
      <point x="95" y="184" type="curve" smooth="yes"/>
      <point x="95" y="287"/>
      <point x="150" y="358"/>
      <point x="255" y="403" type="curve"/>
      <point x="242" y="425" type="line"/>
      <point x="127" y="375"/>
      <point x="69" y="296"/>
      <point x="69" y="185" type="curve" smooth="yes"/>
      <point x="69" y="62"/>
      <point x="140" y="-12"/>
      <point x="262" y="-12" type="curve" smooth="yes"/>
      <point x="392" y="-12"/>
      <point x="442" y="73"/>
      <point x="516" y="199" type="curve" smooth="yes"/>
      <point x="592" y="329"/>
      <point x="636" y="399"/>
      <point x="746" y="399" type="curve" smooth="yes"/>
      <point x="850" y="399"/>
      <point x="913" y="336"/>
      <point x="913" y="227" type="curve" smooth="yes"/>
      <point x="913" y="122"/>
      <point x="855" y="44"/>
      <point x="755" y="1" type="curve"/>
    </contour>
  </outline>
</glyph>
<glyph name="uni1525" format="2">
  <advance width="654"/>
  <unicode hex="1525"/>
  <note>
uni1525
</note>
  <outline>
    <contour>
      <point x="478" y="401" type="line"/>
      <point x="561" y="435"/>
      <point x="605" y="496"/>
      <point x="605" y="578" type="curve" smooth="yes"/>
      <point x="605" y="664"/>
      <point x="554" y="720"/>
      <point x="476" y="720" type="curve" smooth="yes"/>
      <point x="393" y="720"/>
      <point x="366" y="656"/>
      <point x="317" y="563" type="curve" smooth="yes"/>
      <point x="277" y="487"/>
      <point x="244" y="430"/>
      <point x="176" y="430" type="curve" smooth="yes"/>
      <point x="114" y="430"/>
      <point x="73" y="477"/>
      <point x="73" y="552" type="curve" smooth="yes"/>
      <point x="73" y="631"/>
      <point x="117" y="674"/>
      <point x="185" y="705" type="curve"/>
      <point x="176" y="726" type="line"/>
      <point x="93" y="692"/>
      <point x="49" y="631"/>
      <point x="49" y="549" type="curve" smooth="yes"/>
      <point x="49" y="463"/>
      <point x="101" y="407"/>
      <point x="179" y="407" type="curve" smooth="yes"/>
      <point x="260" y="407"/>
      <point x="292" y="466"/>
      <point x="339" y="554" type="curve" smooth="yes"/>
      <point x="380" y="631"/>
      <point x="407" y="697"/>
      <point x="479" y="697" type="curve" smooth="yes"/>
      <point x="540" y="697"/>
      <point x="581" y="650"/>
      <point x="581" y="578" type="curve" smooth="yes"/>
      <point x="581" y="507"/>
      <point x="542" y="453"/>
      <point x="469" y="423" type="curve"/>
    </contour>
  </outline>
</glyph>
<glyph name="uni1526" format="2">
  <advance width="559"/>
  <unicode hex="1526"/>
  <note>
uni1526
</note>
  <outline>
    <contour>
      <point x="464" y="0" type="line"/>
      <point x="490" y="0" type="line"/>
      <point x="490" y="297" type="line"/>
      <point x="88" y="297" type="line"/>
      <point x="424" y="711" type="line"/>
      <point x="403" y="726" type="line"/>
      <point x="49" y="290" type="line"/>
      <point x="49" y="272" type="line"/>
      <point x="464" y="272" type="line"/>
    </contour>
  </outline>
</glyph>
<glyph name="uni1528" format="2">
  <advance width="559"/>
  <unicode hex="1528"/>
  <note>
uni1528
</note>
  <outline>
    <contour>
      <point x="69" y="0" type="line"/>
      <point x="95" y="0" type="line"/>
      <point x="95" y="272" type="line"/>
      <point x="510" y="272" type="line"/>
      <point x="510" y="290" type="line"/>
      <point x="156" y="726" type="line"/>
      <point x="135" y="711" type="line"/>
      <point x="471" y="297" type="line"/>
      <point x="69" y="297" type="line"/>
    </contour>
  </outline>
</glyph>
<glyph name="uni152A" format="2">
  <advance width="559"/>
  <unicode hex="152A"/>
  <note>
uni152A
</note>
  <outline>
    <contour>
      <point x="403" y="-12" type="line"/>
      <point x="424" y="3" type="line"/>
      <point x="88" y="417" type="line"/>
      <point x="490" y="417" type="line"/>
      <point x="490" y="714" type="line"/>
      <point x="464" y="714" type="line"/>
      <point x="464" y="442" type="line"/>
      <point x="49" y="442" type="line"/>
      <point x="49" y="424" type="line"/>
    </contour>
  </outline>
</glyph>
<glyph name="uni152D" format="2">
  <advance width="559"/>
  <unicode hex="152D"/>
  <note>
uni152D
</note>
  <outline>
    <contour>
      <point x="156" y="-12" type="line"/>
      <point x="510" y="424" type="line"/>
      <point x="510" y="442" type="line"/>
      <point x="95" y="442" type="line"/>
      <point x="95" y="714" type="line"/>
      <point x="69" y="714" type="line"/>
      <point x="69" y="417" type="line"/>
      <point x="471" y="417" type="line"/>
      <point x="135" y="3" type="line"/>
    </contour>
  </outline>
</glyph>
<glyph name="uni153E" format="2">
  <advance width="353"/>
  <unicode hex="153E"/>
  <note>
uni153E
</note>
  <outline>
    <contour>
      <point x="100" y="326" type="line"/>
      <point x="304" y="570" type="line"/>
      <point x="304" y="582" type="line"/>
      <point x="83" y="582" type="line"/>
      <point x="83" y="714" type="line"/>
      <point x="59" y="714" type="line"/>
      <point x="59" y="560" type="line"/>
      <point x="266" y="560" type="line"/>
      <point x="82" y="340" type="line"/>
    </contour>
  </outline>
</glyph>
<glyph name="uni153F" format="2">
  <advance width="522"/>
  <unicode hex="153F"/>
  <note>
uni153F
</note>
  <outline>
    <contour>
      <point x="49" y="342" type="line"/>
      <point x="69" y="342" type="line"/>
      <point x="141" y="662" type="line"/>
      <point x="259" y="342" type="line"/>
      <point x="264" y="342" type="line"/>
      <point x="381" y="662" type="line"/>
      <point x="453" y="342" type="line"/>
      <point x="473" y="342" type="line"/>
      <point x="473" y="350" type="line"/>
      <point x="392" y="714" type="line"/>
      <point x="377" y="714" type="line"/>
      <point x="261" y="400" type="line"/>
      <point x="145" y="714" type="line"/>
      <point x="130" y="714" type="line"/>
      <point x="49" y="350" type="line"/>
    </contour>
  </outline>
</glyph>
<glyph name="uni1540" format="2">
  <advance width="401"/>
  <unicode hex="1540"/>
  <note>
uni1540
</note>
  <outline>
    <contour>
      <point x="189" y="205" type="line"/>
      <point x="211" y="205" type="line"/>
      <point x="211" y="356" type="line"/>
      <point x="352" y="356" type="line"/>
      <point x="352" y="378" type="line"/>
      <point x="211" y="378" type="line"/>
      <point x="211" y="528" type="line"/>
      <point x="189" y="528" type="line"/>
      <point x="189" y="378" type="line"/>
      <point x="49" y="378" type="line"/>
      <point x="49" y="356" type="line"/>
      <point x="189" y="356" type="line"/>
    </contour>
  </outline>
</glyph>
<glyph name="uni1541" format="2">
  <advance width="386"/>
  <unicode hex="1541"/>
  <note>
uni1541
</note>
  <outline>
    <contour>
      <point x="307" y="206" type="line"/>
      <point x="337" y="206" type="line"/>
      <point x="85" y="528" type="line"/>
      <point x="56" y="528" type="line"/>
    </contour>
    <contour>
      <point x="49" y="206" type="line"/>
      <point x="79" y="206" type="line"/>
      <point x="330" y="528" type="line"/>
      <point x="301" y="528" type="line"/>
    </contour>
  </outline>
</glyph>
<glyph name="uni1542" format="2">
  <advance width="897"/>
  <unicode hex="1542"/>
  <note>
uni1542
</note>
  <outline>
    <contour>
      <point x="329" y="-10" type="curve" smooth="yes"/>
      <point x="484" y="-10"/>
      <point x="592" y="74"/>
      <point x="592" y="252" type="curve" smooth="yes"/>
      <point x="592" y="475" type="line"/>
      <point x="838" y="475" type="line"/>
      <point x="838" y="500" type="line"/>
      <point x="566" y="500" type="line"/>
      <point x="566" y="244" type="line" smooth="yes"/>
      <point x="566" y="92"/>
      <point x="472" y="15"/>
      <point x="330" y="15" type="curve" smooth="yes"/>
      <point x="181" y="15"/>
      <point x="95" y="96"/>
      <point x="95" y="256" type="curve" smooth="yes"/>
      <point x="95" y="500" type="line"/>
      <point x="69" y="500" type="line"/>
      <point x="69" y="254" type="line" smooth="yes"/>
      <point x="69" y="81"/>
      <point x="164" y="-10"/>
    </contour>
  </outline>
</glyph>
<glyph name="uni1543" format="2">
  <advance width="897"/>
  <unicode hex="1543"/>
  <note>
uni1543
</note>
  <outline>
    <contour>
      <point x="568" y="-10" type="curve" smooth="yes"/>
      <point x="733" y="-10"/>
      <point x="828" y="81"/>
      <point x="828" y="254" type="curve" smooth="yes"/>
      <point x="828" y="500" type="line"/>
      <point x="802" y="500" type="line"/>
      <point x="802" y="256" type="line" smooth="yes"/>
      <point x="802" y="96"/>
      <point x="716" y="15"/>
      <point x="567" y="15" type="curve" smooth="yes"/>
      <point x="425" y="15"/>
      <point x="331" y="92"/>
      <point x="331" y="244" type="curve" smooth="yes"/>
      <point x="331" y="500" type="line"/>
      <point x="59" y="500" type="line"/>
      <point x="59" y="475" type="line"/>
      <point x="305" y="475" type="line"/>
      <point x="305" y="252" type="line" smooth="yes"/>
      <point x="305" y="74"/>
      <point x="413" y="-10"/>
    </contour>
  </outline>
</glyph>
<glyph name="uni1544" format="2">
  <advance width="897"/>
  <unicode hex="1544"/>
  <note>
uni1544
</note>
  <outline>
    <contour>
      <point x="59" y="0" type="line"/>
      <point x="331" y="0" type="line"/>
      <point x="331" y="259" type="line" smooth="yes"/>
      <point x="331" y="411"/>
      <point x="425" y="488"/>
      <point x="567" y="488" type="curve" smooth="yes"/>
      <point x="716" y="488"/>
      <point x="802" y="407"/>
      <point x="802" y="247" type="curve" smooth="yes"/>
      <point x="802" y="0" type="line"/>
      <point x="828" y="0" type="line"/>
      <point x="828" y="249" type="line" smooth="yes"/>
      <point x="828" y="422"/>
      <point x="733" y="513"/>
      <point x="568" y="513" type="curve" smooth="yes"/>
      <point x="413" y="513"/>
      <point x="305" y="429"/>
      <point x="305" y="251" type="curve" smooth="yes"/>
      <point x="305" y="25" type="line"/>
      <point x="59" y="25" type="line"/>
    </contour>
  </outline>
</glyph>
<glyph name="uni1546" format="2">
  <advance width="897"/>
  <unicode hex="1546"/>
  <note>
uni1546
</note>
  <outline>
    <contour>
      <point x="69" y="0" type="line"/>
      <point x="95" y="0" type="line"/>
      <point x="95" y="247" type="line" smooth="yes"/>
      <point x="95" y="407"/>
      <point x="181" y="488"/>
      <point x="330" y="488" type="curve" smooth="yes"/>
      <point x="472" y="488"/>
      <point x="566" y="411"/>
      <point x="566" y="259" type="curve" smooth="yes"/>
      <point x="566" y="0" type="line"/>
      <point x="838" y="0" type="line"/>
      <point x="838" y="25" type="line"/>
      <point x="592" y="25" type="line"/>
      <point x="592" y="251" type="line" smooth="yes"/>
      <point x="592" y="429"/>
      <point x="484" y="513"/>
      <point x="329" y="513" type="curve" smooth="yes"/>
      <point x="164" y="513"/>
      <point x="69" y="422"/>
      <point x="69" y="249" type="curve" smooth="yes"/>
    </contour>
  </outline>
</glyph>
<glyph name="uni1548" format="2">
  <advance width="592"/>
  <unicode hex="1548"/>
  <note>
uni1548
</note>
  <outline>
    <contour>
      <point x="79" y="0" type="line"/>
      <point x="105" y="0" type="line"/>
      <point x="105" y="254" type="line"/>
      <point x="286" y="254" type="line" smooth="yes"/>
      <point x="433" y="254"/>
      <point x="533" y="329"/>
      <point x="533" y="484" type="curve" smooth="yes"/>
      <point x="533" y="639"/>
      <point x="433" y="714"/>
      <point x="286" y="714" type="curve" smooth="yes"/>
      <point x="79" y="714" type="line"/>
      <point x="79" y="689" type="line"/>
      <point x="286" y="689" type="line" smooth="yes"/>
      <point x="419" y="689"/>
      <point x="506" y="625"/>
      <point x="506" y="484" type="curve" smooth="yes"/>
      <point x="506" y="343"/>
      <point x="419" y="279"/>
      <point x="286" y="279" type="curve" smooth="yes"/>
      <point x="79" y="279" type="line"/>
    </contour>
  </outline>
</glyph>
<glyph name="uni154A" format="2">
  <advance width="592"/>
  <unicode hex="154A"/>
  <note>
uni154A
</note>
  <outline>
    <contour>
      <point x="79" y="0" type="line"/>
      <point x="286" y="0" type="line" smooth="yes"/>
      <point x="433" y="0"/>
      <point x="533" y="75"/>
      <point x="533" y="230" type="curve" smooth="yes"/>
      <point x="533" y="385"/>
      <point x="433" y="460"/>
      <point x="286" y="460" type="curve" smooth="yes"/>
      <point x="105" y="460" type="line"/>
      <point x="105" y="714" type="line"/>
      <point x="79" y="714" type="line"/>
      <point x="79" y="435" type="line"/>
      <point x="286" y="435" type="line" smooth="yes"/>
      <point x="419" y="435"/>
      <point x="506" y="371"/>
      <point x="506" y="230" type="curve" smooth="yes"/>
      <point x="506" y="89"/>
      <point x="419" y="25"/>
      <point x="286" y="25" type="curve" smooth="yes"/>
      <point x="79" y="25" type="line"/>
    </contour>
  </outline>
</glyph>
<glyph name="uni154B" format="2">
  <advance width="592"/>
  <unicode hex="154B"/>
  <note>
uni154B
</note>
  <outline>
    <contour>
      <point x="487" y="0" type="line"/>
      <point x="513" y="0" type="line"/>
      <point x="513" y="279" type="line"/>
      <point x="306" y="279" type="line" smooth="yes"/>
      <point x="173" y="279"/>
      <point x="86" y="343"/>
      <point x="86" y="484" type="curve" smooth="yes"/>
      <point x="86" y="625"/>
      <point x="173" y="689"/>
      <point x="306" y="689" type="curve" smooth="yes"/>
      <point x="513" y="689" type="line"/>
      <point x="513" y="714" type="line"/>
      <point x="306" y="714" type="line" smooth="yes"/>
      <point x="159" y="714"/>
      <point x="59" y="639"/>
      <point x="59" y="484" type="curve" smooth="yes"/>
      <point x="59" y="329"/>
      <point x="159" y="254"/>
      <point x="306" y="254" type="curve" smooth="yes"/>
      <point x="487" y="254" type="line"/>
    </contour>
  </outline>
</glyph>
<glyph name="uni154D" format="2">
  <advance width="592"/>
  <unicode hex="154D"/>
  <note>
uni154D
</note>
  <outline>
    <contour>
      <point x="306" y="0" type="curve" smooth="yes"/>
      <point x="513" y="0" type="line"/>
      <point x="513" y="25" type="line"/>
      <point x="306" y="25" type="line" smooth="yes"/>
      <point x="173" y="25"/>
      <point x="86" y="89"/>
      <point x="86" y="230" type="curve" smooth="yes"/>
      <point x="86" y="371"/>
      <point x="173" y="435"/>
      <point x="306" y="435" type="curve" smooth="yes"/>
      <point x="513" y="435" type="line"/>
      <point x="513" y="714" type="line"/>
      <point x="487" y="714" type="line"/>
      <point x="487" y="460" type="line"/>
      <point x="306" y="460" type="line" smooth="yes"/>
      <point x="159" y="460"/>
      <point x="59" y="385"/>
      <point x="59" y="230" type="curve" smooth="yes"/>
      <point x="59" y="75"/>
      <point x="159" y="0"/>
    </contour>
  </outline>
</glyph>
<glyph name="uni1550" format="2">
  <advance width="354"/>
  <unicode hex="1550"/>
  <note>
uni1550
</note>
  <outline>
    <contour>
      <point x="271" y="342" type="line"/>
      <point x="295" y="342" type="line"/>
      <point x="295" y="488" type="line"/>
      <point x="197" y="488" type="line" smooth="yes"/>
      <point x="127" y="488"/>
      <point x="74" y="514"/>
      <point x="74" y="590" type="curve" smooth="yes"/>
      <point x="74" y="666"/>
      <point x="127" y="692"/>
      <point x="197" y="692" type="curve" smooth="yes"/>
      <point x="295" y="692" type="line"/>
      <point x="295" y="714" type="line"/>
      <point x="197" y="714" type="line" smooth="yes"/>
      <point x="112" y="714"/>
      <point x="49" y="673"/>
      <point x="49" y="590" type="curve" smooth="yes"/>
      <point x="49" y="507"/>
      <point x="112" y="466"/>
      <point x="197" y="466" type="curve" smooth="yes"/>
      <point x="271" y="466" type="line"/>
    </contour>
  </outline>
</glyph>
<glyph name="uni1551" format="2">
  <advance width="398"/>
  <unicode hex="1551"/>
  <note>
uni1551
</note>
  <outline>
    <contour>
      <point x="49" y="322" type="line"/>
      <point x="54" y="322" type="line"/>
      <point x="319" y="426" type="line"/>
      <point x="319" y="442" type="line"/>
      <point x="93" y="524" type="line"/>
      <point x="319" y="605" type="line"/>
      <point x="319" y="621" type="line"/>
      <point x="54" y="725" type="line"/>
      <point x="49" y="725" type="line"/>
      <point x="49" y="704" type="line"/>
      <point x="280" y="614" type="line"/>
      <point x="49" y="531" type="line"/>
      <point x="49" y="516" type="line"/>
      <point x="280" y="434" type="line"/>
      <point x="49" y="343" type="line"/>
    </contour>
  </outline>
</glyph>
<glyph name="uni1552" format="2">
  <advance width="629"/>
  <unicode hex="1552"/>
  <note>
uni1552
</note>
  <outline>
    <contour>
      <point x="69" y="-12" type="line"/>
      <point x="76" y="-12" type="line"/>
      <point x="550" y="167" type="line"/>
      <point x="550" y="191" type="line"/>
      <point x="103" y="357" type="line"/>
      <point x="550" y="523" type="line"/>
      <point x="550" y="547" type="line"/>
      <point x="76" y="726" type="line"/>
      <point x="69" y="726" type="line"/>
      <point x="69" y="701" type="line"/>
      <point x="511" y="535" type="line"/>
      <point x="69" y="370" type="line"/>
      <point x="69" y="344" type="line"/>
      <point x="511" y="179" type="line"/>
      <point x="69" y="13" type="line"/>
    </contour>
  </outline>
</glyph>
<glyph name="uni1553" format="2">
  <advance width="763"/>
  <unicode hex="1553"/>
  <note>
uni1553
</note>
  <outline>
    <contour>
      <point x="335" y="-12" type="line"/>
      <point x="353" y="-12" type="line"/>
      <point x="714" y="704" type="line"/>
      <point x="714" y="714" type="line"/>
      <point x="692" y="714" type="line"/>
      <point x="344" y="22" type="line"/>
      <point x="164" y="369" type="line" smooth="yes"/>
      <point x="126" y="443"/>
      <point x="96" y="491"/>
      <point x="96" y="549" type="curve" smooth="yes"/>
      <point x="96" y="634"/>
      <point x="162" y="702"/>
      <point x="248" y="702" type="curve" smooth="yes"/>
      <point x="333" y="702"/>
      <point x="401" y="635"/>
      <point x="401" y="547" type="curve" smooth="yes"/>
      <point x="401" y="482"/>
      <point x="365" y="381"/>
      <point x="186" y="381" type="curve" smooth="yes"/>
      <point x="148" y="381" type="line"/>
      <point x="148" y="357" type="line"/>
      <point x="186" y="357" type="line" smooth="yes"/>
      <point x="357" y="357"/>
      <point x="426" y="451"/>
      <point x="426" y="546" type="curve" smooth="yes"/>
      <point x="426" y="647"/>
      <point x="346" y="726"/>
      <point x="247" y="726" type="curve" smooth="yes"/>
      <point x="149" y="726"/>
      <point x="69" y="648"/>
      <point x="69" y="544" type="curve" smooth="yes"/>
      <point x="69" y="481"/>
      <point x="98" y="436"/>
      <point x="142" y="353" type="curve" smooth="yes"/>
    </contour>
  </outline>
</glyph>
<glyph name="uni1555" format="2">
  <advance width="763"/>
  <unicode hex="1555"/>
  <note>
uni1555
</note>
  <outline>
    <contour>
      <point x="247" y="-12" type="curve" smooth="yes"/>
      <point x="346" y="-12"/>
      <point x="426" y="67"/>
      <point x="426" y="168" type="curve" smooth="yes"/>
      <point x="426" y="263"/>
      <point x="357" y="357"/>
      <point x="186" y="357" type="curve" smooth="yes"/>
      <point x="148" y="357" type="line"/>
      <point x="148" y="333" type="line"/>
      <point x="186" y="333" type="line" smooth="yes"/>
      <point x="365" y="333"/>
      <point x="401" y="232"/>
      <point x="401" y="167" type="curve" smooth="yes"/>
      <point x="401" y="79"/>
      <point x="333" y="12"/>
      <point x="248" y="12" type="curve" smooth="yes"/>
      <point x="162" y="12"/>
      <point x="96" y="80"/>
      <point x="96" y="165" type="curve" smooth="yes"/>
      <point x="96" y="223"/>
      <point x="126" y="271"/>
      <point x="164" y="345" type="curve" smooth="yes"/>
      <point x="344" y="692" type="line"/>
      <point x="692" y="0" type="line"/>
      <point x="714" y="0" type="line"/>
      <point x="714" y="10" type="line"/>
      <point x="353" y="726" type="line"/>
      <point x="335" y="726" type="line"/>
      <point x="142" y="361" type="line" smooth="yes"/>
      <point x="98" y="278"/>
      <point x="69" y="233"/>
      <point x="69" y="170" type="curve" smooth="yes"/>
      <point x="69" y="66"/>
      <point x="149" y="-12"/>
    </contour>
  </outline>
</glyph>
<glyph name="uni1557" format="2">
  <advance width="781"/>
  <unicode hex="1557"/>
  <note>
uni1557
</note>
  <outline>
    <contour>
      <point x="75" y="-12" type="line"/>
      <point x="85" y="-12" type="line"/>
      <point x="732" y="409" type="line"/>
      <point x="732" y="423" type="line"/>
      <point x="427" y="650" type="line" smooth="yes"/>
      <point x="351" y="707"/>
      <point x="310" y="726"/>
      <point x="252" y="726" type="curve" smooth="yes"/>
      <point x="128" y="726"/>
      <point x="59" y="637"/>
      <point x="59" y="544" type="curve" smooth="yes"/>
      <point x="59" y="443"/>
      <point x="139" y="362"/>
      <point x="243" y="362" type="curve" smooth="yes"/>
      <point x="340" y="362"/>
      <point x="427" y="432"/>
      <point x="427" y="594" type="curve" smooth="yes"/>
      <point x="427" y="638" type="line"/>
      <point x="402" y="651" type="line"/>
      <point x="402" y="594" type="line" smooth="yes"/>
      <point x="402" y="445"/>
      <point x="327" y="386"/>
      <point x="244" y="386" type="curve" smooth="yes"/>
      <point x="153" y="386"/>
      <point x="86" y="457"/>
      <point x="86" y="544" type="curve" smooth="yes"/>
      <point x="86" y="622"/>
      <point x="140" y="702"/>
      <point x="251" y="702" type="curve" smooth="yes"/>
      <point x="307" y="702"/>
      <point x="348" y="682"/>
      <point x="415" y="631" type="curve" smooth="yes"/>
      <point x="699" y="417" type="line"/>
      <point x="75" y="10" type="line"/>
    </contour>
  </outline>
</glyph>
<glyph name="uni1559" format="2">
  <advance width="781"/>
  <unicode hex="1559"/>
  <note>
uni1559
</note>
  <outline>
    <contour>
      <point x="696" y="-12" type="line"/>
      <point x="706" y="-12" type="line"/>
      <point x="706" y="10" type="line"/>
      <point x="82" y="417" type="line"/>
      <point x="366" y="631" type="line" smooth="yes"/>
      <point x="433" y="682"/>
      <point x="474" y="702"/>
      <point x="530" y="702" type="curve" smooth="yes"/>
      <point x="641" y="702"/>
      <point x="695" y="622"/>
      <point x="695" y="544" type="curve" smooth="yes"/>
      <point x="695" y="457"/>
      <point x="628" y="386"/>
      <point x="537" y="386" type="curve" smooth="yes"/>
      <point x="454" y="386"/>
      <point x="379" y="445"/>
      <point x="379" y="594" type="curve" smooth="yes"/>
      <point x="379" y="651" type="line"/>
      <point x="354" y="638" type="line"/>
      <point x="354" y="594" type="line" smooth="yes"/>
      <point x="354" y="432"/>
      <point x="441" y="362"/>
      <point x="538" y="362" type="curve" smooth="yes"/>
      <point x="642" y="362"/>
      <point x="722" y="443"/>
      <point x="722" y="544" type="curve" smooth="yes"/>
      <point x="722" y="637"/>
      <point x="653" y="726"/>
      <point x="529" y="726" type="curve" smooth="yes"/>
      <point x="471" y="726"/>
      <point x="430" y="707"/>
      <point x="354" y="650" type="curve" smooth="yes"/>
      <point x="49" y="423" type="line"/>
      <point x="49" y="409" type="line"/>
    </contour>
  </outline>
</glyph>
<glyph name="uni155D" format="2">
  <advance width="546"/>
  <unicode hex="155D"/>
  <note>
uni155D
</note>
  <outline>
    <contour>
      <point x="455" y="317" type="line"/>
      <point x="465" y="317" type="line"/>
      <point x="465" y="335" type="line"/>
      <point x="80" y="530" type="line"/>
      <point x="263" y="657" type="line" smooth="yes"/>
      <point x="310" y="690"/>
      <point x="347" y="705"/>
      <point x="380" y="705" type="curve" smooth="yes"/>
      <point x="433" y="705"/>
      <point x="473" y="664"/>
      <point x="473" y="612" type="curve" smooth="yes"/>
      <point x="473" y="561"/>
      <point x="433" y="520"/>
      <point x="383" y="520" type="curve" smooth="yes"/>
      <point x="336" y="520"/>
      <point x="289" y="555"/>
      <point x="289" y="648" type="curve" smooth="yes"/>
      <point x="289" y="691" type="line"/>
      <point x="266" y="675" type="line"/>
      <point x="266" y="641" type="line" smooth="yes"/>
      <point x="266" y="540"/>
      <point x="325" y="499"/>
      <point x="383" y="499" type="curve" smooth="yes"/>
      <point x="447" y="499"/>
      <point x="497" y="549"/>
      <point x="497" y="612" type="curve" smooth="yes"/>
      <point x="497" y="676"/>
      <point x="447" y="726"/>
      <point x="381" y="726" type="curve" smooth="yes"/>
      <point x="337" y="726"/>
      <point x="297" y="704"/>
      <point x="262" y="680" type="curve" smooth="yes"/>
      <point x="49" y="535" type="line"/>
      <point x="49" y="523" type="line"/>
    </contour>
  </outline>
</glyph>
<glyph name="uni155E" format="2">
  <advance width="759"/>
  <unicode hex="155E"/>
  <note>
uni155E
</note>
  <outline>
    <contour>
      <point x="380" y="-12" type="curve" smooth="yes"/>
      <point x="589" y="-12"/>
      <point x="680" y="120"/>
      <point x="680" y="338" type="curve" smooth="yes"/>
      <point x="680" y="714" type="line"/>
      <point x="654" y="714" type="line"/>
      <point x="654" y="338" type="line" smooth="yes"/>
      <point x="654" y="135"/>
      <point x="576" y="13"/>
      <point x="381" y="13" type="curve" smooth="yes"/>
      <point x="185" y="13"/>
      <point x="105" y="136"/>
      <point x="105" y="339" type="curve" smooth="yes"/>
      <point x="105" y="488" type="line" smooth="yes"/>
      <point x="105" y="600"/>
      <point x="150" y="702"/>
      <point x="262" y="702" type="curve" smooth="yes"/>
      <point x="350" y="702"/>
      <point x="395" y="639"/>
      <point x="395" y="550" type="curve" smooth="yes"/>
      <point x="395" y="439"/>
      <point x="324" y="377"/>
      <point x="159" y="377" type="curve" smooth="yes"/>
      <point x="100" y="377" type="line"/>
      <point x="100" y="353" type="line"/>
      <point x="159" y="353" type="line" smooth="yes"/>
      <point x="334" y="353"/>
      <point x="421" y="420"/>
      <point x="421" y="550" type="curve" smooth="yes"/>
      <point x="421" y="654"/>
      <point x="365" y="726"/>
      <point x="261" y="726" type="curve" smooth="yes"/>
      <point x="124" y="726"/>
      <point x="79" y="601"/>
      <point x="79" y="488" type="curve" smooth="yes"/>
      <point x="79" y="339" type="line" smooth="yes"/>
      <point x="79" y="122"/>
      <point x="170" y="-12"/>
    </contour>
  </outline>
</glyph>
<glyph name="uni155F" format="2">
  <advance width="759"/>
  <unicode hex="155F"/>
  <note>
uni155F
</note>
  <outline>
    <contour>
      <point x="379" y="-12" type="curve" smooth="yes"/>
      <point x="589" y="-12"/>
      <point x="680" y="122"/>
      <point x="680" y="339" type="curve" smooth="yes"/>
      <point x="680" y="488" type="line" smooth="yes"/>
      <point x="680" y="601"/>
      <point x="635" y="726"/>
      <point x="498" y="726" type="curve" smooth="yes"/>
      <point x="394" y="726"/>
      <point x="338" y="654"/>
      <point x="338" y="550" type="curve" smooth="yes"/>
      <point x="338" y="420"/>
      <point x="425" y="353"/>
      <point x="600" y="353" type="curve" smooth="yes"/>
      <point x="659" y="353" type="line"/>
      <point x="659" y="377" type="line"/>
      <point x="600" y="377" type="line" smooth="yes"/>
      <point x="435" y="377"/>
      <point x="364" y="439"/>
      <point x="364" y="550" type="curve" smooth="yes"/>
      <point x="364" y="639"/>
      <point x="409" y="702"/>
      <point x="497" y="702" type="curve" smooth="yes"/>
      <point x="609" y="702"/>
      <point x="654" y="600"/>
      <point x="654" y="488" type="curve" smooth="yes"/>
      <point x="654" y="339" type="line" smooth="yes"/>
      <point x="654" y="136"/>
      <point x="574" y="13"/>
      <point x="378" y="13" type="curve" smooth="yes"/>
      <point x="183" y="13"/>
      <point x="105" y="135"/>
      <point x="105" y="338" type="curve" smooth="yes"/>
      <point x="105" y="714" type="line"/>
      <point x="79" y="714" type="line"/>
      <point x="79" y="338" type="line" smooth="yes"/>
      <point x="79" y="120"/>
      <point x="170" y="-12"/>
    </contour>
  </outline>
</glyph>
<glyph name="uni1560" format="2">
  <advance width="759"/>
  <unicode hex="1560"/>
  <note>
uni1560
</note>
  <outline>
    <contour>
      <point x="261" y="-12" type="curve" smooth="yes"/>
      <point x="365" y="-12"/>
      <point x="421" y="60"/>
      <point x="421" y="164" type="curve" smooth="yes"/>
      <point x="421" y="294"/>
      <point x="334" y="361"/>
      <point x="159" y="361" type="curve" smooth="yes"/>
      <point x="100" y="361" type="line"/>
      <point x="100" y="337" type="line"/>
      <point x="159" y="337" type="line" smooth="yes"/>
      <point x="324" y="337"/>
      <point x="395" y="275"/>
      <point x="395" y="164" type="curve" smooth="yes"/>
      <point x="395" y="75"/>
      <point x="350" y="12"/>
      <point x="262" y="12" type="curve" smooth="yes"/>
      <point x="150" y="12"/>
      <point x="105" y="114"/>
      <point x="105" y="226" type="curve" smooth="yes"/>
      <point x="105" y="375" type="line" smooth="yes"/>
      <point x="105" y="578"/>
      <point x="185" y="701"/>
      <point x="381" y="701" type="curve" smooth="yes"/>
      <point x="576" y="701"/>
      <point x="654" y="579"/>
      <point x="654" y="376" type="curve" smooth="yes"/>
      <point x="654" y="0" type="line"/>
      <point x="680" y="0" type="line"/>
      <point x="680" y="376" type="line" smooth="yes"/>
      <point x="680" y="594"/>
      <point x="589" y="726"/>
      <point x="380" y="726" type="curve" smooth="yes"/>
      <point x="170" y="726"/>
      <point x="79" y="592"/>
      <point x="79" y="375" type="curve" smooth="yes"/>
      <point x="79" y="226" type="line" smooth="yes"/>
      <point x="79" y="113"/>
      <point x="124" y="-12"/>
    </contour>
  </outline>
</glyph>
<glyph name="uni1561" format="2">
  <advance width="759"/>
  <unicode hex="1561"/>
  <note>
uni1561
</note>
  <outline>
    <contour>
      <point x="498" y="-12" type="curve" smooth="yes"/>
      <point x="635" y="-12"/>
      <point x="680" y="113"/>
      <point x="680" y="226" type="curve" smooth="yes"/>
      <point x="680" y="375" type="line" smooth="yes"/>
      <point x="680" y="592"/>
      <point x="589" y="726"/>
      <point x="379" y="726" type="curve" smooth="yes"/>
      <point x="170" y="726"/>
      <point x="79" y="594"/>
      <point x="79" y="376" type="curve" smooth="yes"/>
      <point x="79" y="0" type="line"/>
      <point x="105" y="0" type="line"/>
      <point x="105" y="376" type="line" smooth="yes"/>
      <point x="105" y="579"/>
      <point x="183" y="701"/>
      <point x="378" y="701" type="curve" smooth="yes"/>
      <point x="574" y="701"/>
      <point x="654" y="578"/>
      <point x="654" y="375" type="curve" smooth="yes"/>
      <point x="654" y="226" type="line" smooth="yes"/>
      <point x="654" y="114"/>
      <point x="609" y="12"/>
      <point x="497" y="12" type="curve" smooth="yes"/>
      <point x="409" y="12"/>
      <point x="364" y="75"/>
      <point x="364" y="164" type="curve" smooth="yes"/>
      <point x="364" y="275"/>
      <point x="435" y="337"/>
      <point x="600" y="337" type="curve" smooth="yes"/>
      <point x="659" y="337" type="line"/>
      <point x="659" y="361" type="line"/>
      <point x="600" y="361" type="line" smooth="yes"/>
      <point x="425" y="361"/>
      <point x="338" y="294"/>
      <point x="338" y="164" type="curve" smooth="yes"/>
      <point x="338" y="60"/>
      <point x="394" y="-12"/>
    </contour>
  </outline>
</glyph>
<glyph name="uni1564" format="2">
  <advance width="711"/>
  <unicode hex="1564"/>
  <note>
uni1564
</note>
  <outline>
    <contour>
      <point x="84" y="0" type="line"/>
      <point x="292" y="0" type="line" smooth="yes"/>
      <point x="558" y="0"/>
      <point x="642" y="121"/>
      <point x="642" y="358" type="curve" smooth="yes"/>
      <point x="642" y="595"/>
      <point x="558" y="714"/>
      <point x="293" y="714" type="curve" smooth="yes"/>
      <point x="139" y="714"/>
      <point x="59" y="646"/>
      <point x="59" y="530" type="curve" smooth="yes"/>
      <point x="59" y="424"/>
      <point x="127" y="354"/>
      <point x="232" y="354" type="curve" smooth="yes"/>
      <point x="372" y="354"/>
      <point x="407" y="459"/>
      <point x="407" y="556" type="curve" smooth="yes"/>
      <point x="407" y="693" type="line"/>
      <point x="381" y="693" type="line"/>
      <point x="381" y="556" type="line" smooth="yes"/>
      <point x="381" y="463"/>
      <point x="348" y="377"/>
      <point x="232" y="377" type="curve" smooth="yes"/>
      <point x="142" y="377"/>
      <point x="86" y="439"/>
      <point x="86" y="530" type="curve" smooth="yes"/>
      <point x="86" y="639"/>
      <point x="167" y="691"/>
      <point x="279" y="691" type="curve" smooth="yes"/>
      <point x="293" y="691" type="line" smooth="yes"/>
      <point x="546" y="691"/>
      <point x="615" y="576"/>
      <point x="615" y="357" type="curve" smooth="yes"/>
      <point x="615" y="135"/>
      <point x="544" y="25"/>
      <point x="282" y="25" type="curve" smooth="yes"/>
      <point x="84" y="25" type="line"/>
    </contour>
  </outline>
</glyph>
<glyph name="uni1566" format="2">
  <advance width="711"/>
  <unicode hex="1566"/>
  <note>
uni1566
</note>
  <outline>
    <contour>
      <point x="419" y="0" type="curve" smooth="yes"/>
      <point x="627" y="0" type="line"/>
      <point x="627" y="25" type="line"/>
      <point x="429" y="25" type="line" smooth="yes"/>
      <point x="167" y="25"/>
      <point x="96" y="135"/>
      <point x="96" y="357" type="curve" smooth="yes"/>
      <point x="96" y="576"/>
      <point x="165" y="691"/>
      <point x="418" y="691" type="curve" smooth="yes"/>
      <point x="432" y="691" type="line" smooth="yes"/>
      <point x="544" y="691"/>
      <point x="625" y="639"/>
      <point x="625" y="530" type="curve" smooth="yes"/>
      <point x="625" y="439"/>
      <point x="569" y="377"/>
      <point x="479" y="377" type="curve" smooth="yes"/>
      <point x="363" y="377"/>
      <point x="330" y="463"/>
      <point x="330" y="556" type="curve" smooth="yes"/>
      <point x="330" y="693" type="line"/>
      <point x="304" y="693" type="line"/>
      <point x="304" y="556" type="line" smooth="yes"/>
      <point x="304" y="459"/>
      <point x="339" y="354"/>
      <point x="479" y="354" type="curve" smooth="yes"/>
      <point x="584" y="354"/>
      <point x="652" y="424"/>
      <point x="652" y="530" type="curve" smooth="yes"/>
      <point x="652" y="665"/>
      <point x="542" y="714"/>
      <point x="429" y="714" type="curve" smooth="yes"/>
      <point x="169" y="714"/>
      <point x="69" y="615"/>
      <point x="69" y="358" type="curve" smooth="yes"/>
      <point x="69" y="121"/>
      <point x="153" y="0"/>
    </contour>
  </outline>
</glyph>
<glyph name="uni156A" format="2">
  <advance width="456"/>
  <unicode hex="156A"/>
  <note>
uni156A
</note>
  <outline>
    <contour>
      <point x="262" y="345" type="curve" smooth="yes"/>
      <point x="390" y="345" type="line"/>
      <point x="390" y="367" type="line"/>
      <point x="268" y="367" type="line" smooth="yes"/>
      <point x="136" y="367"/>
      <point x="73" y="423"/>
      <point x="73" y="536" type="curve" smooth="yes"/>
      <point x="73" y="649"/>
      <point x="135" y="704"/>
      <point x="262" y="704" type="curve" smooth="yes"/>
      <point x="270" y="704" type="line" smooth="yes"/>
      <point x="341" y="704"/>
      <point x="383" y="671"/>
      <point x="383" y="612" type="curve" smooth="yes"/>
      <point x="383" y="559"/>
      <point x="350" y="526"/>
      <point x="297" y="526" type="curve" smooth="yes"/>
      <point x="242" y="526"/>
      <point x="214" y="560"/>
      <point x="214" y="629" type="curve" smooth="yes"/>
      <point x="214" y="714" type="line"/>
      <point x="190" y="714" type="line"/>
      <point x="190" y="629" type="line" smooth="yes"/>
      <point x="190" y="550"/>
      <point x="229" y="504"/>
      <point x="297" y="504" type="curve" smooth="yes"/>
      <point x="364" y="504"/>
      <point x="407" y="548"/>
      <point x="407" y="614" type="curve" smooth="yes"/>
      <point x="407" y="688"/>
      <point x="355" y="726"/>
      <point x="256" y="726" type="curve" smooth="yes"/>
      <point x="124" y="726"/>
      <point x="49" y="657"/>
      <point x="49" y="537" type="curve" smooth="yes"/>
      <point x="49" y="413"/>
      <point x="122" y="345"/>
    </contour>
  </outline>
</glyph>
<glyph name="uni156B" format="2">
  <advance width="759"/>
  <unicode hex="156B"/>
  <note>
uni156B
</note>
  <outline>
    <contour>
      <point x="379" y="-10" type="curve" smooth="yes"/>
      <point x="590" y="-10"/>
      <point x="680" y="123"/>
      <point x="680" y="338" type="curve" smooth="yes"/>
      <point x="680" y="714" type="line"/>
      <point x="654" y="714" type="line"/>
      <point x="654" y="338" type="line" smooth="yes"/>
      <point x="654" y="136"/>
      <point x="576" y="15"/>
      <point x="380" y="15" type="curve" smooth="yes"/>
      <point x="185" y="15"/>
      <point x="105" y="139"/>
      <point x="105" y="339" type="curve" smooth="yes"/>
      <point x="105" y="714" type="line"/>
      <point x="79" y="714" type="line"/>
      <point x="79" y="339" type="line" smooth="yes"/>
      <point x="79" y="123"/>
      <point x="171" y="-10"/>
    </contour>
    <contour>
      <point x="367" y="315" type="line"/>
      <point x="393" y="315" type="line"/>
      <point x="393" y="714" type="line"/>
      <point x="367" y="714" type="line"/>
    </contour>
  </outline>
</glyph>
<glyph name="uni156D" format="2">
  <advance width="657"/>
  <unicode hex="156D"/>
  <note>
uni156D
</note>
  <outline>
    <contour>
      <point x="59" y="1" type="line"/>
      <point x="228" y="1" type="line" smooth="yes"/>
      <point x="494" y="1"/>
      <point x="578" y="121"/>
      <point x="578" y="358" type="curve" smooth="yes"/>
      <point x="578" y="595"/>
      <point x="494" y="714"/>
      <point x="228" y="714" type="curve" smooth="yes"/>
      <point x="59" y="714" type="line"/>
      <point x="59" y="689" type="line"/>
      <point x="218" y="689" type="line" smooth="yes"/>
      <point x="480" y="689"/>
      <point x="551" y="579"/>
      <point x="551" y="357" type="curve" smooth="yes"/>
      <point x="551" y="135"/>
      <point x="480" y="26"/>
      <point x="218" y="26" type="curve" smooth="yes"/>
      <point x="59" y="26" type="line"/>
    </contour>
    <contour>
      <point x="59" y="345" type="line"/>
      <point x="373" y="345" type="line"/>
      <point x="373" y="370" type="line"/>
      <point x="59" y="370" type="line"/>
    </contour>
  </outline>
</glyph>
<glyph name="uni156E" format="2">
  <advance width="657"/>
  <unicode hex="156E"/>
  <note>
uni156E
</note>
  <outline>
    <contour>
      <point x="429" y="1" type="curve" smooth="yes"/>
      <point x="598" y="1" type="line"/>
      <point x="598" y="26" type="line"/>
      <point x="439" y="26" type="line" smooth="yes"/>
      <point x="177" y="26"/>
      <point x="106" y="135"/>
      <point x="106" y="357" type="curve" smooth="yes"/>
      <point x="106" y="579"/>
      <point x="177" y="689"/>
      <point x="439" y="689" type="curve" smooth="yes"/>
      <point x="598" y="689" type="line"/>
      <point x="598" y="714" type="line"/>
      <point x="429" y="714" type="line" smooth="yes"/>
      <point x="163" y="714"/>
      <point x="79" y="595"/>
      <point x="79" y="358" type="curve" smooth="yes"/>
      <point x="79" y="121"/>
      <point x="163" y="1"/>
    </contour>
    <contour>
      <point x="284" y="345" type="line"/>
      <point x="598" y="345" type="line"/>
      <point x="598" y="370" type="line"/>
      <point x="284" y="370" type="line"/>
    </contour>
  </outline>
</glyph>
<glyph name="uni156F" format="2">
  <advance width="867"/>
  <unicode hex="156F"/>
  <note>
uni156F
</note>
  <outline>
    <contour>
      <point x="544" y="381" type="line"/>
      <point x="644" y="510" type="line"/>
      <point x="744" y="382" type="line"/>
      <point x="768" y="396" type="line"/>
      <point x="667" y="524" type="line"/>
      <point x="818" y="613" type="line"/>
      <point x="802" y="635" type="line"/>
      <point x="658" y="549" type="line"/>
      <point x="658" y="714" type="line"/>
      <point x="630" y="714" type="line"/>
      <point x="630" y="549" type="line"/>
      <point x="486" y="636" type="line"/>
      <point x="470" y="613" type="line"/>
      <point x="621" y="523" type="line"/>
      <point x="520" y="396" type="line"/>
    </contour>
    <contour>
      <point x="123" y="381" type="line"/>
      <point x="223" y="510" type="line"/>
      <point x="323" y="382" type="line"/>
      <point x="347" y="396" type="line"/>
      <point x="246" y="524" type="line"/>
      <point x="397" y="613" type="line"/>
      <point x="381" y="635" type="line"/>
      <point x="237" y="549" type="line"/>
      <point x="237" y="714" type="line"/>
      <point x="209" y="714" type="line"/>
      <point x="209" y="549" type="line"/>
      <point x="65" y="636" type="line"/>
      <point x="49" y="613" type="line"/>
      <point x="200" y="523" type="line"/>
      <point x="99" y="396" type="line"/>
    </contour>
  </outline>
</glyph>
<glyph name="uni1570" format="2">
  <advance width="759"/>
  <unicode hex="1570"/>
  <note>
uni1570
</note>
  <outline>
    <contour>
      <point x="379" y="-10" type="curve" smooth="yes"/>
      <point x="590" y="-10"/>
      <point x="680" y="123"/>
      <point x="680" y="338" type="curve" smooth="yes"/>
      <point x="680" y="714" type="line"/>
      <point x="654" y="714" type="line"/>
      <point x="654" y="338" type="line" smooth="yes"/>
      <point x="654" y="136"/>
      <point x="576" y="15"/>
      <point x="380" y="15" type="curve" smooth="yes"/>
      <point x="185" y="15"/>
      <point x="105" y="139"/>
      <point x="105" y="339" type="curve" smooth="yes"/>
      <point x="105" y="714" type="line"/>
      <point x="79" y="714" type="line"/>
      <point x="79" y="339" type="line" smooth="yes"/>
      <point x="79" y="123"/>
      <point x="171" y="-10"/>
    </contour>
    <contour>
      <point x="382" y="315" type="curve" smooth="yes"/>
      <point x="463" y="315"/>
      <point x="516" y="373"/>
      <point x="516" y="452" type="curve" smooth="yes"/>
      <point x="516" y="714" type="line"/>
      <point x="492" y="714" type="line"/>
      <point x="492" y="452" type="line" smooth="yes"/>
      <point x="492" y="380"/>
      <point x="453" y="337"/>
      <point x="382" y="337" type="curve" smooth="yes"/>
      <point x="311" y="337"/>
      <point x="267" y="380"/>
      <point x="267" y="452" type="curve" smooth="yes"/>
      <point x="267" y="714" type="line"/>
      <point x="243" y="714" type="line"/>
      <point x="243" y="452" type="line" smooth="yes"/>
      <point x="243" y="373"/>
      <point x="301" y="315"/>
    </contour>
  </outline>
</glyph>
<glyph name="uni1571" format="2">
  <advance width="759"/>
  <unicode hex="1571"/>
  <note>
uni1571
</note>
  <outline>
    <contour>
      <point x="79" y="0" type="line"/>
      <point x="105" y="0" type="line"/>
      <point x="105" y="375" type="line" smooth="yes"/>
      <point x="105" y="575"/>
      <point x="185" y="699"/>
      <point x="380" y="699" type="curve" smooth="yes"/>
      <point x="576" y="699"/>
      <point x="654" y="578"/>
      <point x="654" y="376" type="curve" smooth="yes"/>
      <point x="654" y="0" type="line"/>
      <point x="680" y="0" type="line"/>
      <point x="680" y="376" type="line" smooth="yes"/>
      <point x="680" y="591"/>
      <point x="590" y="724"/>
      <point x="379" y="724" type="curve" smooth="yes"/>
      <point x="171" y="724"/>
      <point x="79" y="591"/>
      <point x="79" y="375" type="curve" smooth="yes"/>
    </contour>
    <contour>
      <point x="243" y="0" type="line"/>
      <point x="267" y="0" type="line"/>
      <point x="267" y="262" type="line" smooth="yes"/>
      <point x="267" y="334"/>
      <point x="311" y="377"/>
      <point x="382" y="377" type="curve" smooth="yes"/>
      <point x="453" y="377"/>
      <point x="492" y="334"/>
      <point x="492" y="262" type="curve" smooth="yes"/>
      <point x="492" y="0" type="line"/>
      <point x="516" y="0" type="line"/>
      <point x="516" y="262" type="line" smooth="yes"/>
      <point x="516" y="341"/>
      <point x="463" y="399"/>
      <point x="382" y="399" type="curve" smooth="yes"/>
      <point x="301" y="399"/>
      <point x="243" y="341"/>
      <point x="243" y="262" type="curve" smooth="yes"/>
    </contour>
  </outline>
</glyph>
<glyph name="uni1572" format="2">
  <advance width="657"/>
  <unicode hex="1572"/>
  <note>
uni1572
</note>
  <outline>
    <contour>
      <point x="59" y="1" type="line"/>
      <point x="228" y="1" type="line" smooth="yes"/>
      <point x="494" y="1"/>
      <point x="578" y="121"/>
      <point x="578" y="358" type="curve" smooth="yes"/>
      <point x="578" y="595"/>
      <point x="494" y="714"/>
      <point x="228" y="714" type="curve" smooth="yes"/>
      <point x="59" y="714" type="line"/>
      <point x="59" y="689" type="line"/>
      <point x="218" y="689" type="line" smooth="yes"/>
      <point x="480" y="689"/>
      <point x="551" y="579"/>
      <point x="551" y="357" type="curve" smooth="yes"/>
      <point x="551" y="135"/>
      <point x="480" y="26"/>
      <point x="218" y="26" type="curve" smooth="yes"/>
      <point x="59" y="26" type="line"/>
    </contour>
    <contour>
      <point x="59" y="191" type="line"/>
      <point x="151" y="191" type="line" smooth="yes"/>
      <point x="271" y="191"/>
      <point x="330" y="246"/>
      <point x="330" y="357" type="curve" smooth="yes"/>
      <point x="330" y="468"/>
      <point x="271" y="523"/>
      <point x="151" y="523" type="curve" smooth="yes"/>
      <point x="59" y="523" type="line"/>
      <point x="59" y="501" type="line"/>
      <point x="150" y="501" type="line" smooth="yes"/>
      <point x="273" y="501"/>
      <point x="306" y="443"/>
      <point x="306" y="357" type="curve" smooth="yes"/>
      <point x="306" y="271"/>
      <point x="273" y="213"/>
      <point x="150" y="213" type="curve" smooth="yes"/>
      <point x="59" y="213" type="line"/>
    </contour>
  </outline>
</glyph>
<glyph name="uni1573" format="2">
  <advance width="657"/>
  <unicode hex="1573"/>
  <note>
uni1573
</note>
  <outline>
    <contour>
      <point x="429" y="1" type="curve" smooth="yes"/>
      <point x="598" y="1" type="line"/>
      <point x="598" y="26" type="line"/>
      <point x="439" y="26" type="line" smooth="yes"/>
      <point x="177" y="26"/>
      <point x="106" y="135"/>
      <point x="106" y="357" type="curve" smooth="yes"/>
      <point x="106" y="579"/>
      <point x="177" y="689"/>
      <point x="439" y="689" type="curve" smooth="yes"/>
      <point x="598" y="689" type="line"/>
      <point x="598" y="714" type="line"/>
      <point x="429" y="714" type="line" smooth="yes"/>
      <point x="163" y="714"/>
      <point x="79" y="595"/>
      <point x="79" y="358" type="curve" smooth="yes"/>
      <point x="79" y="121"/>
      <point x="163" y="1"/>
    </contour>
    <contour>
      <point x="506" y="191" type="curve" smooth="yes"/>
      <point x="598" y="191" type="line"/>
      <point x="598" y="213" type="line"/>
      <point x="507" y="213" type="line" smooth="yes"/>
      <point x="384" y="213"/>
      <point x="351" y="271"/>
      <point x="351" y="357" type="curve" smooth="yes"/>
      <point x="351" y="443"/>
      <point x="384" y="501"/>
      <point x="507" y="501" type="curve" smooth="yes"/>
      <point x="598" y="501" type="line"/>
      <point x="598" y="523" type="line"/>
      <point x="506" y="523" type="line" smooth="yes"/>
      <point x="386" y="523"/>
      <point x="327" y="468"/>
      <point x="327" y="357" type="curve" smooth="yes"/>
      <point x="327" y="246"/>
      <point x="386" y="191"/>
    </contour>
  </outline>
</glyph>
<glyph name="uni1574" format="2">
  <advance width="793"/>
  <unicode hex="1574"/>
  <note>
uni1574
</note>
  <outline>
    <contour>
      <point x="478" y="0" type="line"/>
      <point x="504" y="0" type="line"/>
      <point x="504" y="470" type="line" smooth="yes"/>
      <point x="504" y="629"/>
      <point x="422" y="726"/>
      <point x="281" y="726" type="curve" smooth="yes"/>
      <point x="142" y="726"/>
      <point x="69" y="631"/>
      <point x="69" y="477" type="curve" smooth="yes"/>
      <point x="69" y="313"/>
      <point x="151" y="213"/>
      <point x="292" y="213" type="curve" smooth="yes"/>
      <point x="397" y="213"/>
      <point x="456" y="269"/>
      <point x="478" y="339" type="curve"/>
    </contour>
    <contour>
      <point x="291" y="238" type="curve" smooth="yes"/>
      <point x="169" y="238"/>
      <point x="96" y="323"/>
      <point x="96" y="476" type="curve" smooth="yes"/>
      <point x="96" y="620"/>
      <point x="160" y="701"/>
      <point x="281" y="701" type="curve" smooth="yes"/>
      <point x="410" y="701"/>
      <point x="478" y="610"/>
      <point x="478" y="470" type="curve" smooth="yes"/>
      <point x="478" y="467" type="line" smooth="yes"/>
      <point x="478" y="316"/>
      <point x="407" y="238"/>
    </contour>
    <contour>
      <point x="504" y="0" type="line"/>
      <point x="764" y="195" type="line"/>
      <point x="749" y="215" type="line"/>
      <point x="489" y="21" type="line"/>
    </contour>
  </outline>
</glyph>
<glyph name="uni1575" format="2">
  <advance width="793"/>
  <unicode hex="1575"/>
  <note>
uni1575
</note>
  <outline>
    <contour>
      <point x="289" y="0" type="line"/>
      <point x="315" y="0" type="line"/>
      <point x="315" y="339" type="line"/>
      <point x="337" y="269"/>
      <point x="396" y="213"/>
      <point x="501" y="213" type="curve" smooth="yes"/>
      <point x="642" y="213"/>
      <point x="724" y="313"/>
      <point x="724" y="477" type="curve" smooth="yes"/>
      <point x="724" y="631"/>
      <point x="651" y="726"/>
      <point x="512" y="726" type="curve" smooth="yes"/>
      <point x="371" y="726"/>
      <point x="289" y="629"/>
      <point x="289" y="470" type="curve" smooth="yes"/>
    </contour>
    <contour>
      <point x="289" y="0" type="line"/>
      <point x="304" y="21" type="line"/>
      <point x="44" y="215" type="line"/>
      <point x="29" y="195" type="line"/>
    </contour>
    <contour>
      <point x="502" y="238" type="curve" smooth="yes"/>
      <point x="386" y="238"/>
      <point x="315" y="316"/>
      <point x="315" y="467" type="curve" smooth="yes"/>
      <point x="315" y="470" type="line" smooth="yes"/>
      <point x="315" y="610"/>
      <point x="383" y="701"/>
      <point x="512" y="701" type="curve" smooth="yes"/>
      <point x="633" y="701"/>
      <point x="697" y="620"/>
      <point x="697" y="476" type="curve" smooth="yes"/>
      <point x="697" y="323"/>
      <point x="624" y="238"/>
    </contour>
  </outline>
</glyph>
<glyph name="uni1577" format="2">
  <advance width="793"/>
  <unicode hex="1577"/>
  <note>
uni1577
</note>
  <outline>
    <contour>
      <point x="281" y="-12" type="curve" smooth="yes"/>
      <point x="422" y="-12"/>
      <point x="504" y="85"/>
      <point x="504" y="244" type="curve" smooth="yes"/>
      <point x="504" y="714" type="line"/>
      <point x="478" y="714" type="line"/>
      <point x="478" y="375" type="line"/>
      <point x="456" y="445"/>
      <point x="397" y="501"/>
      <point x="292" y="501" type="curve" smooth="yes"/>
      <point x="151" y="501"/>
      <point x="69" y="401"/>
      <point x="69" y="237" type="curve" smooth="yes"/>
      <point x="69" y="83"/>
      <point x="142" y="-12"/>
    </contour>
    <contour>
      <point x="281" y="13" type="curve" smooth="yes"/>
      <point x="160" y="13"/>
      <point x="96" y="94"/>
      <point x="96" y="238" type="curve" smooth="yes"/>
      <point x="96" y="391"/>
      <point x="169" y="476"/>
      <point x="291" y="476" type="curve" smooth="yes"/>
      <point x="407" y="476"/>
      <point x="478" y="398"/>
      <point x="478" y="247" type="curve" smooth="yes"/>
      <point x="478" y="244" type="line" smooth="yes"/>
      <point x="478" y="104"/>
      <point x="410" y="13"/>
    </contour>
    <contour>
      <point x="749" y="499" type="line"/>
      <point x="764" y="519" type="line"/>
      <point x="504" y="714" type="line"/>
      <point x="489" y="693" type="line"/>
    </contour>
  </outline>
</glyph>
<glyph name="uni1579" format="2">
  <advance width="793"/>
  <unicode hex="1579"/>
  <note>
uni1579
</note>
  <outline>
    <contour>
      <point x="512" y="-12" type="curve" smooth="yes"/>
      <point x="651" y="-12"/>
      <point x="724" y="83"/>
      <point x="724" y="237" type="curve" smooth="yes"/>
      <point x="724" y="401"/>
      <point x="642" y="501"/>
      <point x="501" y="501" type="curve" smooth="yes"/>
      <point x="396" y="501"/>
      <point x="337" y="445"/>
      <point x="315" y="375" type="curve"/>
      <point x="315" y="714" type="line"/>
      <point x="289" y="714" type="line"/>
      <point x="289" y="244" type="line" smooth="yes"/>
      <point x="289" y="85"/>
      <point x="371" y="-12"/>
    </contour>
    <contour>
      <point x="512" y="13" type="curve" smooth="yes"/>
      <point x="383" y="13"/>
      <point x="315" y="104"/>
      <point x="315" y="244" type="curve" smooth="yes"/>
      <point x="315" y="247" type="line" smooth="yes"/>
      <point x="315" y="398"/>
      <point x="386" y="476"/>
      <point x="502" y="476" type="curve" smooth="yes"/>
      <point x="624" y="476"/>
      <point x="697" y="391"/>
      <point x="697" y="238" type="curve" smooth="yes"/>
      <point x="697" y="94"/>
      <point x="633" y="13"/>
    </contour>
    <contour>
      <point x="44" y="499" type="line"/>
      <point x="304" y="693" type="line"/>
      <point x="289" y="714" type="line"/>
      <point x="29" y="519" type="line"/>
    </contour>
  </outline>
</glyph>
<glyph name="uni157B" format="2">
  <advance width="501"/>
  <unicode hex="157B"/>
  <note>
uni157B
</note>
  <outline>
    <contour>
      <point x="315" y="334" type="curve" smooth="yes"/>
      <point x="401" y="334"/>
      <point x="452" y="395"/>
      <point x="452" y="471" type="curve" smooth="yes"/>
      <point x="452" y="547"/>
      <point x="401" y="607"/>
      <point x="315" y="607" type="curve" smooth="yes"/>
      <point x="268" y="607"/>
      <point x="229" y="586"/>
      <point x="203" y="544" type="curve"/>
      <point x="203" y="714" type="line"/>
      <point x="179" y="714" type="line"/>
      <point x="49" y="619" type="line"/>
      <point x="62" y="602" type="line"/>
      <point x="179" y="687" type="line"/>
      <point x="179" y="471" type="line" smooth="yes"/>
      <point x="179" y="395"/>
      <point x="239" y="334"/>
    </contour>
    <contour>
      <point x="315" y="355" type="curve" smooth="yes"/>
      <point x="252" y="355"/>
      <point x="203" y="405"/>
      <point x="203" y="471" type="curve" smooth="yes"/>
      <point x="203" y="539"/>
      <point x="252" y="586"/>
      <point x="315" y="586" type="curve" smooth="yes"/>
      <point x="387" y="586"/>
      <point x="428" y="537"/>
      <point x="428" y="471" type="curve" smooth="yes"/>
      <point x="428" y="405"/>
      <point x="387" y="355"/>
    </contour>
  </outline>
</glyph>
<glyph name="uni157C" format="2">
  <advance width="658"/>
  <unicode hex="157C"/>
  <note>
uni157C
</note>
  <outline>
    <contour>
      <point x="79" y="0" type="line"/>
      <point x="105" y="0" type="line"/>
      <point x="105" y="385" type="line"/>
      <point x="553" y="385" type="line"/>
      <point x="553" y="0" type="line"/>
      <point x="579" y="0" type="line"/>
      <point x="579" y="714" type="line"/>
      <point x="553" y="714" type="line"/>
      <point x="553" y="410" type="line"/>
      <point x="105" y="410" type="line"/>
      <point x="105" y="714" type="line"/>
      <point x="79" y="714" type="line"/>
    </contour>
  </outline>
</glyph>
<glyph name="uni157D" format="2">
  <advance width="386"/>
  <unicode hex="157D"/>
  <note>
uni157D
</note>
  <outline>
    <contour>
      <point x="307" y="392" type="line"/>
      <point x="337" y="392" type="line"/>
      <point x="85" y="714" type="line"/>
      <point x="56" y="714" type="line"/>
    </contour>
    <contour>
      <point x="49" y="392" type="line"/>
      <point x="79" y="392" type="line"/>
      <point x="330" y="714" type="line"/>
      <point x="301" y="714" type="line"/>
    </contour>
  </outline>
</glyph>
<glyph name="uni1586" format="2">
  <advance width="583"/>
  <unicode hex="1586"/>
  <note>
uni1586
</note>
  <outline>
    <contour>
      <point x="478" y="0" type="line"/>
      <point x="504" y="0" type="line"/>
      <point x="504" y="495" type="line" smooth="yes"/>
      <point x="504" y="634"/>
      <point x="422" y="726"/>
      <point x="281" y="726" type="curve" smooth="yes"/>
      <point x="142" y="726"/>
      <point x="69" y="636"/>
      <point x="69" y="501" type="curve" smooth="yes"/>
      <point x="69" y="358"/>
      <point x="151" y="263"/>
      <point x="293" y="263" type="curve" smooth="yes"/>
      <point x="397" y="263"/>
      <point x="456" y="314"/>
      <point x="478" y="384" type="curve"/>
    </contour>
    <contour>
      <point x="291" y="288" type="curve" smooth="yes"/>
      <point x="169" y="288"/>
      <point x="96" y="368"/>
      <point x="96" y="501" type="curve" smooth="yes"/>
      <point x="96" y="625"/>
      <point x="160" y="701"/>
      <point x="281" y="701" type="curve" smooth="yes"/>
      <point x="406" y="701"/>
      <point x="478" y="621"/>
      <point x="478" y="491" type="curve" smooth="yes"/>
      <point x="478" y="362"/>
      <point x="407" y="288"/>
    </contour>
    <contour>
      <point x="133" y="0" type="line"/>
      <point x="162" y="0" type="line"/>
      <point x="288" y="275" type="line"/>
      <point x="258" y="275" type="line"/>
    </contour>
  </outline>
</glyph>
<glyph name="uni1587" format="2">
  <advance width="583"/>
  <unicode hex="1587"/>
  <note>
uni1587
</note>
  <outline>
    <contour>
      <point x="79" y="0" type="line"/>
      <point x="105" y="0" type="line"/>
      <point x="105" y="384" type="line"/>
      <point x="127" y="314"/>
      <point x="186" y="263"/>
      <point x="290" y="263" type="curve" smooth="yes"/>
      <point x="432" y="263"/>
      <point x="514" y="358"/>
      <point x="514" y="501" type="curve" smooth="yes"/>
      <point x="514" y="636"/>
      <point x="441" y="726"/>
      <point x="302" y="726" type="curve" smooth="yes"/>
      <point x="161" y="726"/>
      <point x="79" y="634"/>
      <point x="79" y="495" type="curve" smooth="yes"/>
    </contour>
    <contour>
      <point x="421" y="0" type="line"/>
      <point x="450" y="0" type="line"/>
      <point x="325" y="275" type="line"/>
      <point x="295" y="275" type="line"/>
    </contour>
    <contour>
      <point x="292" y="288" type="curve" smooth="yes"/>
      <point x="176" y="288"/>
      <point x="105" y="362"/>
      <point x="105" y="491" type="curve" smooth="yes"/>
      <point x="105" y="621"/>
      <point x="177" y="701"/>
      <point x="302" y="701" type="curve" smooth="yes"/>
      <point x="423" y="701"/>
      <point x="487" y="625"/>
      <point x="487" y="501" type="curve" smooth="yes"/>
      <point x="487" y="368"/>
      <point x="414" y="288"/>
    </contour>
  </outline>
</glyph>
<glyph name="uni1588" format="2">
  <advance width="583"/>
  <unicode hex="1588"/>
  <note>
uni1588
</note>
  <outline>
    <contour>
      <point x="281" y="-12" type="curve" smooth="yes"/>
      <point x="422" y="-12"/>
      <point x="504" y="80"/>
      <point x="504" y="219" type="curve" smooth="yes"/>
      <point x="504" y="714" type="line"/>
      <point x="478" y="714" type="line"/>
      <point x="478" y="330" type="line"/>
      <point x="456" y="400"/>
      <point x="397" y="451"/>
      <point x="293" y="451" type="curve" smooth="yes"/>
      <point x="151" y="451"/>
      <point x="69" y="356"/>
      <point x="69" y="213" type="curve" smooth="yes"/>
      <point x="69" y="78"/>
      <point x="142" y="-12"/>
    </contour>
    <contour>
      <point x="281" y="13" type="curve" smooth="yes"/>
      <point x="160" y="13"/>
      <point x="96" y="89"/>
      <point x="96" y="213" type="curve" smooth="yes"/>
      <point x="96" y="346"/>
      <point x="169" y="426"/>
      <point x="291" y="426" type="curve" smooth="yes"/>
      <point x="407" y="426"/>
      <point x="478" y="352"/>
      <point x="478" y="223" type="curve" smooth="yes"/>
      <point x="478" y="93"/>
      <point x="406" y="13"/>
    </contour>
    <contour>
      <point x="258" y="439" type="line"/>
      <point x="288" y="439" type="line"/>
      <point x="162" y="714" type="line"/>
      <point x="133" y="714" type="line"/>
    </contour>
  </outline>
</glyph>
<glyph name="uni1589" format="2">
  <advance width="583"/>
  <unicode hex="1589"/>
  <note>
uni1589
</note>
  <outline>
    <contour>
      <point x="302" y="-12" type="curve" smooth="yes"/>
      <point x="441" y="-12"/>
      <point x="514" y="78"/>
      <point x="514" y="213" type="curve" smooth="yes"/>
      <point x="514" y="356"/>
      <point x="432" y="451"/>
      <point x="290" y="451" type="curve" smooth="yes"/>
      <point x="186" y="451"/>
      <point x="127" y="400"/>
      <point x="105" y="330" type="curve"/>
      <point x="105" y="714" type="line"/>
      <point x="79" y="714" type="line"/>
      <point x="79" y="219" type="line" smooth="yes"/>
      <point x="79" y="80"/>
      <point x="161" y="-12"/>
    </contour>
    <contour>
      <point x="302" y="13" type="curve" smooth="yes"/>
      <point x="177" y="13"/>
      <point x="105" y="93"/>
      <point x="105" y="223" type="curve" smooth="yes"/>
      <point x="105" y="352"/>
      <point x="176" y="426"/>
      <point x="292" y="426" type="curve" smooth="yes"/>
      <point x="414" y="426"/>
      <point x="487" y="346"/>
      <point x="487" y="213" type="curve" smooth="yes"/>
      <point x="487" y="89"/>
      <point x="423" y="13"/>
    </contour>
    <contour>
      <point x="295" y="439" type="line"/>
      <point x="325" y="439" type="line"/>
      <point x="450" y="714" type="line"/>
      <point x="421" y="714" type="line"/>
    </contour>
  </outline>
</glyph>
<glyph name="uni158B" format="2">
  <advance width="837"/>
  <unicode hex="158B"/>
  <note>
uni158B
</note>
  <outline>
    <contour>
      <point x="289" y="0" type="line"/>
      <point x="315" y="0" type="line"/>
      <point x="315" y="470" type="line" smooth="yes"/>
      <point x="315" y="639"/>
      <point x="387" y="699"/>
      <point x="524" y="699" type="curve" smooth="yes"/>
      <point x="658" y="699"/>
      <point x="742" y="641"/>
      <point x="742" y="458" type="curve" smooth="yes"/>
      <point x="742" y="410" type="line"/>
      <point x="768" y="410" type="line"/>
      <point x="768" y="460" type="line" smooth="yes"/>
      <point x="768" y="656"/>
      <point x="675" y="724"/>
      <point x="524" y="724" type="curve" smooth="yes"/>
      <point x="375" y="724"/>
      <point x="289" y="657"/>
      <point x="289" y="462" type="curve" smooth="yes"/>
    </contour>
    <contour>
      <point x="289" y="0" type="line"/>
      <point x="304" y="20" type="line"/>
      <point x="44" y="215" type="line"/>
      <point x="29" y="194" type="line"/>
    </contour>
  </outline>
</glyph>
<glyph name="uni158C" format="2">
  <advance width="837"/>
  <unicode hex="158C"/>
  <note>
uni158C
</note>
  <outline>
    <contour>
      <point x="313" y="-10" type="curve" smooth="yes"/>
      <point x="462" y="-10"/>
      <point x="548" y="57"/>
      <point x="548" y="252" type="curve" smooth="yes"/>
      <point x="548" y="714" type="line"/>
      <point x="522" y="714" type="line"/>
      <point x="522" y="244" type="line" smooth="yes"/>
      <point x="522" y="75"/>
      <point x="450" y="15"/>
      <point x="313" y="15" type="curve" smooth="yes"/>
      <point x="179" y="15"/>
      <point x="95" y="73"/>
      <point x="95" y="256" type="curve" smooth="yes"/>
      <point x="95" y="304" type="line"/>
      <point x="69" y="304" type="line"/>
      <point x="69" y="254" type="line" smooth="yes"/>
      <point x="69" y="58"/>
      <point x="162" y="-10"/>
    </contour>
    <contour>
      <point x="793" y="499" type="line"/>
      <point x="808" y="520" type="line"/>
      <point x="548" y="714" type="line"/>
      <point x="533" y="694" type="line"/>
    </contour>
  </outline>
</glyph>
<glyph name="uni158D" format="2">
  <advance width="837"/>
  <unicode hex="158D"/>
  <note>
uni158D
</note>
  <outline>
    <contour>
      <point x="524" y="-10" type="curve" smooth="yes"/>
      <point x="675" y="-10"/>
      <point x="768" y="58"/>
      <point x="768" y="254" type="curve" smooth="yes"/>
      <point x="768" y="304" type="line"/>
      <point x="742" y="304" type="line"/>
      <point x="742" y="256" type="line" smooth="yes"/>
      <point x="742" y="73"/>
      <point x="658" y="15"/>
      <point x="524" y="15" type="curve" smooth="yes"/>
      <point x="387" y="15"/>
      <point x="315" y="75"/>
      <point x="315" y="244" type="curve" smooth="yes"/>
      <point x="315" y="714" type="line"/>
      <point x="289" y="714" type="line"/>
      <point x="289" y="252" type="line" smooth="yes"/>
      <point x="289" y="57"/>
      <point x="375" y="-10"/>
    </contour>
    <contour>
      <point x="44" y="499" type="line"/>
      <point x="304" y="694" type="line"/>
      <point x="289" y="714" type="line"/>
      <point x="29" y="520" type="line"/>
    </contour>
  </outline>
</glyph>
<glyph name="uni1591" format="2">
  <advance width="915"/>
  <unicode hex="1591"/>
  <note>
uni1591
</note>
  <outline>
    <contour>
      <point x="601" y="-10" type="curve" smooth="yes"/>
      <point x="750" y="-10"/>
      <point x="836" y="57"/>
      <point x="836" y="252" type="curve" smooth="yes"/>
      <point x="836" y="714" type="line"/>
      <point x="810" y="714" type="line"/>
      <point x="810" y="244" type="line" smooth="yes"/>
      <point x="810" y="75"/>
      <point x="738" y="15"/>
      <point x="601" y="15" type="curve" smooth="yes"/>
      <point x="475" y="15"/>
      <point x="393" y="67"/>
      <point x="384" y="226" type="curve"/>
      <point x="358" y="226" type="line"/>
      <point x="366" y="51"/>
      <point x="457" y="-10"/>
    </contour>
    <contour>
      <point x="172" y="522" type="curve" smooth="yes"/>
      <point x="121" y="522"/>
      <point x="82" y="560"/>
      <point x="82" y="613" type="curve" smooth="yes"/>
      <point x="82" y="665"/>
      <point x="121" y="704"/>
      <point x="172" y="704" type="curve" smooth="yes"/>
      <point x="223" y="704"/>
      <point x="262" y="666"/>
      <point x="262" y="613" type="curve" smooth="yes"/>
      <point x="262" y="560"/>
      <point x="223" y="522"/>
    </contour>
    <contour>
      <point x="419" y="322" type="curve" smooth="yes"/>
      <point x="479" y="322"/>
      <point x="520" y="365"/>
      <point x="520" y="425" type="curve" smooth="yes"/>
      <point x="520" y="468" type="line"/>
      <point x="496" y="468" type="line"/>
      <point x="496" y="425" type="line" smooth="yes"/>
      <point x="496" y="372"/>
      <point x="468" y="344"/>
      <point x="419" y="344" type="curve" smooth="yes"/>
      <point x="369" y="344"/>
      <point x="338" y="374"/>
      <point x="338" y="425" type="curve" smooth="yes"/>
      <point x="338" y="522" type="line"/>
      <point x="238" y="522" type="line"/>
      <point x="270" y="544"/>
      <point x="285" y="576"/>
      <point x="285" y="612" type="curve" smooth="yes"/>
      <point x="285" y="677"/>
      <point x="236" y="726"/>
      <point x="172" y="726" type="curve" smooth="yes"/>
      <point x="109" y="726"/>
      <point x="59" y="677"/>
      <point x="59" y="613" type="curve" smooth="yes"/>
      <point x="59" y="549"/>
      <point x="108" y="500"/>
      <point x="172" y="500" type="curve" smooth="yes"/>
      <point x="315" y="500" type="line"/>
      <point x="315" y="425" type="line" smooth="yes"/>
      <point x="315" y="366"/>
      <point x="358" y="322"/>
    </contour>
  </outline>
</glyph>
<glyph name="uni1595" format="2">
  <advance width="534"/>
  <unicode hex="1595"/>
  <note>
uni1595
</note>
  <outline>
    <contour>
      <point x="383" y="361" type="curve" smooth="yes"/>
      <point x="439" y="361"/>
      <point x="475" y="400"/>
      <point x="475" y="453" type="curve" smooth="yes"/>
      <point x="475" y="492" type="line"/>
      <point x="452" y="492" type="line"/>
      <point x="452" y="453" type="line" smooth="yes"/>
      <point x="452" y="407"/>
      <point x="427" y="383"/>
      <point x="383" y="383" type="curve" smooth="yes"/>
      <point x="340" y="383"/>
      <point x="313" y="408"/>
      <point x="313" y="453" type="curve" smooth="yes"/>
      <point x="313" y="544" type="line"/>
      <point x="224" y="544" type="line"/>
      <point x="249" y="563"/>
      <point x="263" y="590"/>
      <point x="263" y="623" type="curve" smooth="yes"/>
      <point x="263" y="682"/>
      <point x="218" y="726"/>
      <point x="161" y="726" type="curve" smooth="yes"/>
      <point x="104" y="726"/>
      <point x="59" y="682"/>
      <point x="59" y="624" type="curve" smooth="yes"/>
      <point x="59" y="567"/>
      <point x="103" y="522"/>
      <point x="161" y="522" type="curve" smooth="yes"/>
      <point x="290" y="522" type="line"/>
      <point x="290" y="453" type="line" smooth="yes"/>
      <point x="290" y="401"/>
      <point x="329" y="361"/>
    </contour>
    <contour>
      <point x="161" y="544" type="curve" smooth="yes"/>
      <point x="116" y="544"/>
      <point x="82" y="577"/>
      <point x="82" y="624" type="curve" smooth="yes"/>
      <point x="82" y="670"/>
      <point x="116" y="704"/>
      <point x="161" y="704" type="curve" smooth="yes"/>
      <point x="206" y="704"/>
      <point x="240" y="671"/>
      <point x="240" y="624" type="curve" smooth="yes"/>
      <point x="240" y="577"/>
      <point x="206" y="544"/>
    </contour>
  </outline>
</glyph>
<glyph name="uni1596" format="2">
  <advance width="787"/>
  <unicode hex="1596"/>
  <note>
uni1596
</note>
  <outline>
    <contour>
      <point x="636" y="361" type="curve" smooth="yes"/>
      <point x="692" y="361"/>
      <point x="728" y="400"/>
      <point x="728" y="453" type="curve" smooth="yes"/>
      <point x="728" y="492" type="line"/>
      <point x="705" y="492" type="line"/>
      <point x="705" y="453" type="line" smooth="yes"/>
      <point x="705" y="407"/>
      <point x="680" y="383"/>
      <point x="636" y="383" type="curve" smooth="yes"/>
      <point x="593" y="383"/>
      <point x="566" y="408"/>
      <point x="566" y="453" type="curve" smooth="yes"/>
      <point x="566" y="544" type="line"/>
      <point x="477" y="544" type="line"/>
      <point x="502" y="563"/>
      <point x="516" y="590"/>
      <point x="516" y="623" type="curve" smooth="yes"/>
      <point x="516" y="682"/>
      <point x="471" y="726"/>
      <point x="414" y="726" type="curve" smooth="yes"/>
      <point x="357" y="726"/>
      <point x="312" y="682"/>
      <point x="312" y="624" type="curve" smooth="yes"/>
      <point x="312" y="591"/>
      <point x="326" y="563"/>
      <point x="350" y="544" type="curve"/>
      <point x="224" y="544" type="line"/>
      <point x="249" y="563"/>
      <point x="263" y="590"/>
      <point x="263" y="623" type="curve" smooth="yes"/>
      <point x="263" y="682"/>
      <point x="218" y="726"/>
      <point x="161" y="726" type="curve" smooth="yes"/>
      <point x="104" y="726"/>
      <point x="59" y="682"/>
      <point x="59" y="624" type="curve" smooth="yes"/>
      <point x="59" y="567"/>
      <point x="103" y="522"/>
      <point x="161" y="522" type="curve" smooth="yes"/>
      <point x="543" y="522" type="line"/>
      <point x="543" y="453" type="line" smooth="yes"/>
      <point x="543" y="401"/>
      <point x="582" y="361"/>
    </contour>
    <contour>
      <point x="161" y="544" type="curve" smooth="yes"/>
      <point x="116" y="544"/>
      <point x="82" y="577"/>
      <point x="82" y="624" type="curve" smooth="yes"/>
      <point x="82" y="670"/>
      <point x="116" y="704"/>
      <point x="161" y="704" type="curve" smooth="yes"/>
      <point x="206" y="704"/>
      <point x="240" y="671"/>
      <point x="240" y="624" type="curve" smooth="yes"/>
      <point x="240" y="577"/>
      <point x="206" y="544"/>
    </contour>
    <contour>
      <point x="414" y="544" type="curve" smooth="yes"/>
      <point x="369" y="544"/>
      <point x="335" y="577"/>
      <point x="335" y="624" type="curve" smooth="yes"/>
      <point x="335" y="670"/>
      <point x="369" y="704"/>
      <point x="414" y="704" type="curve" smooth="yes"/>
      <point x="459" y="704"/>
      <point x="493" y="671"/>
      <point x="493" y="624" type="curve" smooth="yes"/>
      <point x="493" y="577"/>
      <point x="459" y="544"/>
    </contour>
  </outline>
</glyph>
<glyph name="uni1597" format="2">
  <advance width="562"/>
  <unicode hex="1597"/>
  <note>
uni1597
</note>
  <outline>
    <contour>
      <point x="459" y="0" type="line"/>
      <point x="483" y="0" type="line"/>
      <point x="483" y="485" type="line" smooth="yes"/>
      <point x="483" y="649"/>
      <point x="391" y="726"/>
      <point x="274" y="726" type="curve" smooth="yes"/>
      <point x="141" y="726"/>
      <point x="69" y="625"/>
      <point x="69" y="481" type="curve" smooth="yes"/>
      <point x="69" y="349"/>
      <point x="130" y="279"/>
      <point x="213" y="279" type="curve" smooth="yes"/>
      <point x="289" y="279"/>
      <point x="364" y="338"/>
      <point x="364" y="459" type="curve"/>
      <point x="340" y="462" type="line"/>
      <point x="340" y="340"/>
      <point x="272" y="302"/>
      <point x="215" y="302" type="curve" smooth="yes"/>
      <point x="141" y="302"/>
      <point x="95" y="366"/>
      <point x="95" y="480" type="curve" smooth="yes"/>
      <point x="95" y="607"/>
      <point x="152" y="703"/>
      <point x="272" y="703" type="curve" smooth="yes"/>
      <point x="382" y="703"/>
      <point x="459" y="622"/>
      <point x="459" y="486" type="curve" smooth="yes"/>
    </contour>
  </outline>
</glyph>
<glyph name="uni1598" format="2">
  <advance width="562"/>
  <unicode hex="1598"/>
  <note>
uni1598
</note>
  <outline>
    <contour>
      <point x="79" y="0" type="line"/>
      <point x="103" y="0" type="line"/>
      <point x="103" y="486" type="line" smooth="yes"/>
      <point x="103" y="622"/>
      <point x="180" y="703"/>
      <point x="290" y="703" type="curve" smooth="yes"/>
      <point x="410" y="703"/>
      <point x="467" y="607"/>
      <point x="467" y="480" type="curve" smooth="yes"/>
      <point x="467" y="366"/>
      <point x="421" y="302"/>
      <point x="347" y="302" type="curve" smooth="yes"/>
      <point x="290" y="302"/>
      <point x="222" y="340"/>
      <point x="222" y="462" type="curve"/>
      <point x="198" y="459" type="line"/>
      <point x="198" y="338"/>
      <point x="273" y="279"/>
      <point x="349" y="279" type="curve" smooth="yes"/>
      <point x="432" y="279"/>
      <point x="493" y="349"/>
      <point x="493" y="481" type="curve" smooth="yes"/>
      <point x="493" y="625"/>
      <point x="421" y="726"/>
      <point x="288" y="726" type="curve" smooth="yes"/>
      <point x="171" y="726"/>
      <point x="79" y="649"/>
      <point x="79" y="485" type="curve" smooth="yes"/>
    </contour>
  </outline>
</glyph>
<glyph name="uni1599" format="2">
  <advance width="562"/>
  <unicode hex="1599"/>
  <note>
uni1599
</note>
  <outline>
    <contour>
      <point x="274" y="-12" type="curve" smooth="yes"/>
      <point x="391" y="-12"/>
      <point x="483" y="65"/>
      <point x="483" y="229" type="curve" smooth="yes"/>
      <point x="483" y="714" type="line"/>
      <point x="459" y="714" type="line"/>
      <point x="459" y="228" type="line" smooth="yes"/>
      <point x="459" y="92"/>
      <point x="382" y="11"/>
      <point x="272" y="11" type="curve" smooth="yes"/>
      <point x="152" y="11"/>
      <point x="95" y="107"/>
      <point x="95" y="234" type="curve" smooth="yes"/>
      <point x="95" y="348"/>
      <point x="141" y="412"/>
      <point x="215" y="412" type="curve" smooth="yes"/>
      <point x="272" y="412"/>
      <point x="340" y="374"/>
      <point x="340" y="252" type="curve"/>
      <point x="364" y="255" type="line"/>
      <point x="364" y="376"/>
      <point x="289" y="435"/>
      <point x="213" y="435" type="curve" smooth="yes"/>
      <point x="130" y="435"/>
      <point x="69" y="365"/>
      <point x="69" y="233" type="curve" smooth="yes"/>
      <point x="69" y="89"/>
      <point x="141" y="-12"/>
    </contour>
  </outline>
</glyph>
<glyph name="uni159A" format="2">
  <advance width="562"/>
  <unicode hex="159A"/>
  <note>
uni159A
</note>
  <outline>
    <contour>
      <point x="288" y="-12" type="curve" smooth="yes"/>
      <point x="421" y="-12"/>
      <point x="493" y="89"/>
      <point x="493" y="233" type="curve" smooth="yes"/>
      <point x="493" y="365"/>
      <point x="432" y="435"/>
      <point x="349" y="435" type="curve" smooth="yes"/>
      <point x="273" y="435"/>
      <point x="198" y="376"/>
      <point x="198" y="255" type="curve"/>
      <point x="222" y="252" type="line"/>
      <point x="222" y="374"/>
      <point x="290" y="412"/>
      <point x="347" y="412" type="curve" smooth="yes"/>
      <point x="421" y="412"/>
      <point x="467" y="348"/>
      <point x="467" y="234" type="curve" smooth="yes"/>
      <point x="467" y="107"/>
      <point x="410" y="11"/>
      <point x="290" y="11" type="curve" smooth="yes"/>
      <point x="180" y="11"/>
      <point x="103" y="92"/>
      <point x="103" y="228" type="curve" smooth="yes"/>
      <point x="103" y="714" type="line"/>
      <point x="79" y="714" type="line"/>
      <point x="79" y="229" type="line" smooth="yes"/>
      <point x="79" y="65"/>
      <point x="171" y="-12"/>
    </contour>
  </outline>
</glyph>
<glyph name="uni159B" format="2">
  <advance width="897"/>
  <unicode hex="159B"/>
  <note>
uni159B
</note>
  <outline>
    <contour>
      <point x="581" y="-12" type="curve" smooth="yes"/>
      <point x="717" y="-12"/>
      <point x="828" y="98"/>
      <point x="828" y="234" type="curve" smooth="yes"/>
      <point x="828" y="370"/>
      <point x="718" y="481"/>
      <point x="581" y="481" type="curve" smooth="yes"/>
      <point x="59" y="481" type="line"/>
      <point x="59" y="456" type="line"/>
      <point x="481" y="456" type="line"/>
      <point x="395" y="421"/>
      <point x="336" y="333"/>
      <point x="336" y="234" type="curve" smooth="yes"/>
      <point x="336" y="98"/>
      <point x="446" y="-12"/>
    </contour>
    <contour>
      <point x="581" y="13" type="curve" smooth="yes"/>
      <point x="460" y="13"/>
      <point x="363" y="112"/>
      <point x="363" y="234" type="curve" smooth="yes"/>
      <point x="363" y="356"/>
      <point x="459" y="456"/>
      <point x="581" y="456" type="curve" smooth="yes"/>
      <point x="704" y="456"/>
      <point x="801" y="356"/>
      <point x="801" y="234" type="curve" smooth="yes"/>
      <point x="801" y="112"/>
      <point x="703" y="13"/>
    </contour>
    <contour>
      <point x="59" y="652" type="line"/>
      <point x="816" y="652" type="line"/>
      <point x="816" y="677" type="line"/>
      <point x="59" y="677" type="line"/>
    </contour>
  </outline>
</glyph>
<glyph name="uni159C" format="2">
  <advance width="897"/>
  <unicode hex="159C"/>
  <note>
uni159C
</note>
  <outline>
    <contour>
      <point x="316" y="-12" type="curve" smooth="yes"/>
      <point x="451" y="-12"/>
      <point x="561" y="98"/>
      <point x="561" y="234" type="curve" smooth="yes"/>
      <point x="561" y="333"/>
      <point x="502" y="421"/>
      <point x="416" y="456" type="curve"/>
      <point x="838" y="456" type="line"/>
      <point x="838" y="481" type="line"/>
      <point x="316" y="481" type="line" smooth="yes"/>
      <point x="179" y="481"/>
      <point x="69" y="370"/>
      <point x="69" y="234" type="curve" smooth="yes"/>
      <point x="69" y="98"/>
      <point x="180" y="-12"/>
    </contour>
    <contour>
      <point x="316" y="13" type="curve" smooth="yes"/>
      <point x="194" y="13"/>
      <point x="96" y="112"/>
      <point x="96" y="234" type="curve" smooth="yes"/>
      <point x="96" y="356"/>
      <point x="193" y="456"/>
      <point x="316" y="456" type="curve" smooth="yes"/>
      <point x="438" y="456"/>
      <point x="534" y="356"/>
      <point x="534" y="234" type="curve" smooth="yes"/>
      <point x="534" y="112"/>
      <point x="437" y="13"/>
    </contour>
    <contour>
      <point x="81" y="652" type="line"/>
      <point x="838" y="652" type="line"/>
      <point x="838" y="677" type="line"/>
      <point x="81" y="677" type="line"/>
    </contour>
  </outline>
</glyph>
<glyph name="uni159D" format="2">
  <advance width="897"/>
  <unicode hex="159D"/>
  <note>
uni159D
</note>
  <outline>
    <contour>
      <point x="59" y="0" type="line"/>
      <point x="581" y="0" type="line" smooth="yes"/>
      <point x="718" y="0"/>
      <point x="828" y="111"/>
      <point x="828" y="247" type="curve" smooth="yes"/>
      <point x="828" y="383"/>
      <point x="717" y="493"/>
      <point x="581" y="493" type="curve" smooth="yes"/>
      <point x="446" y="493"/>
      <point x="336" y="383"/>
      <point x="336" y="247" type="curve" smooth="yes"/>
      <point x="336" y="148"/>
      <point x="395" y="60"/>
      <point x="481" y="25" type="curve"/>
      <point x="59" y="25" type="line"/>
    </contour>
    <contour>
      <point x="581" y="25" type="curve" smooth="yes"/>
      <point x="459" y="25"/>
      <point x="363" y="125"/>
      <point x="363" y="247" type="curve" smooth="yes"/>
      <point x="363" y="369"/>
      <point x="460" y="468"/>
      <point x="581" y="468" type="curve" smooth="yes"/>
      <point x="703" y="468"/>
      <point x="801" y="369"/>
      <point x="801" y="247" type="curve" smooth="yes"/>
      <point x="801" y="125"/>
      <point x="704" y="25"/>
    </contour>
    <contour>
      <point x="59" y="652" type="line"/>
      <point x="816" y="652" type="line"/>
      <point x="816" y="677" type="line"/>
      <point x="59" y="677" type="line"/>
    </contour>
  </outline>
</glyph>
<glyph name="uni159E" format="2">
  <advance width="897"/>
  <unicode hex="159E"/>
  <note>
uni159E
</note>
  <outline>
    <contour>
      <point x="316" y="0" type="curve" smooth="yes"/>
      <point x="838" y="0" type="line"/>
      <point x="838" y="25" type="line"/>
      <point x="416" y="25" type="line"/>
      <point x="502" y="60"/>
      <point x="561" y="148"/>
      <point x="561" y="247" type="curve" smooth="yes"/>
      <point x="561" y="383"/>
      <point x="451" y="493"/>
      <point x="316" y="493" type="curve" smooth="yes"/>
      <point x="180" y="493"/>
      <point x="69" y="383"/>
      <point x="69" y="247" type="curve" smooth="yes"/>
      <point x="69" y="111"/>
      <point x="179" y="0"/>
    </contour>
    <contour>
      <point x="316" y="25" type="curve" smooth="yes"/>
      <point x="193" y="25"/>
      <point x="96" y="125"/>
      <point x="96" y="247" type="curve" smooth="yes"/>
      <point x="96" y="369"/>
      <point x="194" y="468"/>
      <point x="316" y="468" type="curve" smooth="yes"/>
      <point x="437" y="468"/>
      <point x="534" y="369"/>
      <point x="534" y="247" type="curve" smooth="yes"/>
      <point x="534" y="125"/>
      <point x="438" y="25"/>
    </contour>
    <contour>
      <point x="81" y="652" type="line"/>
      <point x="838" y="652" type="line"/>
      <point x="838" y="677" type="line"/>
      <point x="81" y="677" type="line"/>
    </contour>
  </outline>
</glyph>
<glyph name="uni15A0" format="2">
  <advance width="859"/>
  <unicode hex="15A0"/>
  <note>
uni15A0
</note>
  <outline>
    <contour>
      <point x="316" y="0" type="curve" smooth="yes"/>
      <point x="374" y="0" type="line"/>
      <point x="374" y="25" type="line"/>
      <point x="316" y="25" type="line" smooth="yes"/>
      <point x="194" y="25"/>
      <point x="96" y="127"/>
      <point x="96" y="249" type="curve" smooth="yes"/>
      <point x="96" y="371"/>
      <point x="193" y="475"/>
      <point x="316" y="475" type="curve" smooth="yes"/>
      <point x="800" y="475" type="line"/>
      <point x="800" y="500" type="line"/>
      <point x="316" y="500" type="line" smooth="yes"/>
      <point x="179" y="500"/>
      <point x="69" y="385"/>
      <point x="69" y="249" type="curve" smooth="yes"/>
      <point x="69" y="113"/>
      <point x="180" y="0"/>
    </contour>
    <contour>
      <point x="780" y="485" type="line"/>
      <point x="800" y="500" type="line"/>
      <point x="607" y="768" type="line"/>
      <point x="586" y="753" type="line"/>
    </contour>
  </outline>
</glyph>
<glyph name="uni15A2" format="2">
  <advance width="859"/>
  <unicode hex="15A2"/>
  <note>
uni15A2
</note>
  <outline>
    <contour>
      <point x="59" y="0" type="line"/>
      <point x="543" y="0" type="line" smooth="yes"/>
      <point x="680" y="0"/>
      <point x="790" y="115"/>
      <point x="790" y="251" type="curve" smooth="yes"/>
      <point x="790" y="387"/>
      <point x="679" y="500"/>
      <point x="543" y="500" type="curve" smooth="yes"/>
      <point x="485" y="500" type="line"/>
      <point x="485" y="475" type="line"/>
      <point x="543" y="475" type="line" smooth="yes"/>
      <point x="665" y="475"/>
      <point x="763" y="373"/>
      <point x="763" y="251" type="curve" smooth="yes"/>
      <point x="763" y="129"/>
      <point x="666" y="25"/>
      <point x="543" y="25" type="curve" smooth="yes"/>
      <point x="59" y="25" type="line"/>
    </contour>
    <contour>
      <point x="252" y="-268" type="line"/>
      <point x="273" y="-253" type="line"/>
      <point x="79" y="15" type="line"/>
      <point x="59" y="0" type="line"/>
    </contour>
  </outline>
</glyph>
<glyph name="uni15A6" format="2">
  <advance width="568"/>
  <unicode hex="15A6"/>
  <note>
uni15A6
</note>
  <outline>
    <contour>
      <point x="207" y="393" type="curve" smooth="yes"/>
      <point x="519" y="393" type="line"/>
      <point x="519" y="415" type="line"/>
      <point x="214" y="415" type="line" smooth="yes"/>
      <point x="129" y="415"/>
      <point x="73" y="476"/>
      <point x="73" y="555" type="curve" smooth="yes"/>
      <point x="73" y="632"/>
      <point x="130" y="693"/>
      <point x="214" y="693" type="curve" smooth="yes"/>
      <point x="229" y="693" type="line"/>
      <point x="229" y="714" type="line"/>
      <point x="207" y="714" type="line" smooth="yes"/>
      <point x="121" y="714"/>
      <point x="49" y="641"/>
      <point x="49" y="555" type="curve" smooth="yes"/>
      <point x="49" y="467"/>
      <point x="120" y="393"/>
    </contour>
    <contour>
      <point x="409" y="241" type="line"/>
      <point x="519" y="393" type="line"/>
      <point x="500" y="402" type="line"/>
      <point x="391" y="254" type="line"/>
    </contour>
  </outline>
</glyph>
<glyph name="uni15A7" format="2">
  <advance width="617"/>
  <unicode hex="15A7"/>
  <note>
uni15A7
</note>
  <outline>
    <contour>
      <point x="464" y="0" type="line"/>
      <point x="490" y="0" type="line"/>
      <point x="490" y="297" type="line"/>
      <point x="88" y="297" type="line"/>
      <point x="424" y="711" type="line"/>
      <point x="403" y="726" type="line"/>
      <point x="49" y="290" type="line"/>
      <point x="49" y="272" type="line"/>
      <point x="464" y="272" type="line"/>
    </contour>
    <contour>
      <point x="184" y="125" type="line"/>
      <point x="558" y="125" type="line"/>
      <point x="558" y="150" type="line"/>
      <point x="184" y="150" type="line"/>
    </contour>
  </outline>
</glyph>
<glyph name="uni15A8" format="2">
  <advance width="617"/>
  <unicode hex="15A8"/>
  <note>
uni15A8
</note>
  <outline>
    <contour>
      <point x="127" y="0" type="line"/>
      <point x="153" y="0" type="line"/>
      <point x="153" y="272" type="line"/>
      <point x="568" y="272" type="line"/>
      <point x="568" y="290" type="line"/>
      <point x="214" y="726" type="line"/>
      <point x="193" y="711" type="line"/>
      <point x="529" y="297" type="line"/>
      <point x="127" y="297" type="line"/>
    </contour>
    <contour>
      <point x="59" y="125" type="line"/>
      <point x="433" y="125" type="line"/>
      <point x="433" y="150" type="line"/>
      <point x="59" y="150" type="line"/>
    </contour>
  </outline>
</glyph>
<glyph name="uni15AA" format="2">
  <advance width="617"/>
  <unicode hex="15AA"/>
  <note>
uni15AA
</note>
  <outline>
    <contour>
      <point x="403" y="-12" type="line"/>
      <point x="424" y="3" type="line"/>
      <point x="88" y="417" type="line"/>
      <point x="490" y="417" type="line"/>
      <point x="490" y="714" type="line"/>
      <point x="464" y="714" type="line"/>
      <point x="464" y="442" type="line"/>
      <point x="49" y="442" type="line"/>
      <point x="49" y="424" type="line"/>
    </contour>
    <contour>
      <point x="184" y="564" type="line"/>
      <point x="558" y="564" type="line"/>
      <point x="558" y="589" type="line"/>
      <point x="184" y="589" type="line"/>
    </contour>
  </outline>
</glyph>
<glyph name="uni15AC" format="2">
  <advance width="617"/>
  <unicode hex="15AC"/>
  <note>
uni15AC
</note>
  <outline>
    <contour>
      <point x="214" y="-12" type="line"/>
      <point x="568" y="424" type="line"/>
      <point x="568" y="442" type="line"/>
      <point x="153" y="442" type="line"/>
      <point x="153" y="714" type="line"/>
      <point x="127" y="714" type="line"/>
      <point x="127" y="417" type="line"/>
      <point x="529" y="417" type="line"/>
      <point x="193" y="3" type="line"/>
    </contour>
    <contour>
      <point x="59" y="564" type="line"/>
      <point x="433" y="564" type="line"/>
      <point x="433" y="589" type="line"/>
      <point x="59" y="589" type="line"/>
    </contour>
  </outline>
</glyph>
<glyph name="uni15AE" format="2">
  <advance width="380"/>
  <unicode hex="15AE"/>
  <note>
uni15AE
</note>
  <outline>
    <contour>
      <point x="127" y="326" type="line"/>
      <point x="331" y="570" type="line"/>
      <point x="331" y="582" type="line"/>
      <point x="110" y="582" type="line"/>
      <point x="110" y="714" type="line"/>
      <point x="86" y="714" type="line"/>
      <point x="86" y="560" type="line"/>
      <point x="293" y="560" type="line"/>
      <point x="109" y="340" type="line"/>
    </contour>
    <contour>
      <point x="49" y="645" type="line"/>
      <point x="254" y="645" type="line"/>
      <point x="254" y="667" type="line"/>
      <point x="49" y="667" type="line"/>
    </contour>
  </outline>
</glyph>
<glyph name="uni15AF" format="2">
  <advance width="583"/>
  <unicode hex="15AF"/>
  <note>
uni15AF
</note>
  <outline>
    <contour>
      <point x="292" y="-10" type="curve" smooth="yes"/>
      <point x="436" y="-10"/>
      <point x="514" y="105"/>
      <point x="514" y="253" type="curve" smooth="yes"/>
      <point x="514" y="407"/>
      <point x="430" y="500"/>
      <point x="302" y="500" type="curve" smooth="yes"/>
      <point x="205" y="500"/>
      <point x="126" y="446"/>
      <point x="105" y="371" type="curve"/>
      <point x="105" y="714" type="line"/>
      <point x="79" y="714" type="line"/>
      <point x="79" y="0" type="line"/>
      <point x="105" y="0" type="line"/>
      <point x="105" y="110" type="line"/>
      <point x="131" y="42"/>
      <point x="195" y="-10"/>
    </contour>
    <contour>
      <point x="287" y="15" type="curve" smooth="yes"/>
      <point x="173" y="15"/>
      <point x="105" y="92"/>
      <point x="105" y="234" type="curve" smooth="yes"/>
      <point x="105" y="244" type="line" smooth="yes"/>
      <point x="105" y="388"/>
      <point x="179" y="475"/>
      <point x="300" y="475" type="curve" smooth="yes"/>
      <point x="415" y="475"/>
      <point x="487" y="395"/>
      <point x="487" y="251" type="curve" smooth="yes"/>
      <point x="487" y="99"/>
      <point x="407" y="15"/>
    </contour>
  </outline>
</glyph>
<glyph name="uni15B0" format="2">
  <advance width="483"/>
  <unicode hex="15B0"/>
  <note>
uni15B0
</note>
  <outline>
    <contour>
      <point x="79" y="0" type="line"/>
      <point x="105" y="0" type="line"/>
      <point x="105" y="412" type="line"/>
      <point x="137" y="385"/>
      <point x="181" y="369"/>
      <point x="236" y="369" type="curve" smooth="yes"/>
      <point x="351" y="369"/>
      <point x="414" y="437"/>
      <point x="414" y="545" type="curve" smooth="yes"/>
      <point x="414" y="653"/>
      <point x="351" y="726"/>
      <point x="236" y="726" type="curve" smooth="yes"/>
      <point x="183" y="726"/>
      <point x="139" y="710"/>
      <point x="105" y="682" type="curve"/>
      <point x="105" y="714" type="line"/>
      <point x="79" y="714" type="line"/>
    </contour>
  </outline>
</glyph>
<glyph name="uni15B1" format="2">
  <advance width="483"/>
  <unicode hex="15B1"/>
  <note>
uni15B1
</note>
  <outline>
    <contour>
      <point x="247" y="-12" type="curve" smooth="yes"/>
      <point x="300" y="-12"/>
      <point x="344" y="4"/>
      <point x="378" y="32" type="curve"/>
      <point x="378" y="0" type="line"/>
      <point x="404" y="0" type="line"/>
      <point x="404" y="714" type="line"/>
      <point x="378" y="714" type="line"/>
      <point x="378" y="302" type="line"/>
      <point x="346" y="329"/>
      <point x="302" y="345"/>
      <point x="247" y="345" type="curve" smooth="yes"/>
      <point x="132" y="345"/>
      <point x="69" y="277"/>
      <point x="69" y="169" type="curve" smooth="yes"/>
      <point x="69" y="61"/>
      <point x="132" y="-12"/>
    </contour>
  </outline>
</glyph>
<glyph name="uni15B2" format="2">
  <advance width="483"/>
  <unicode hex="15B2"/>
  <note>
uni15B2
</note>
  <outline>
    <contour>
      <point x="236" y="-12" type="curve" smooth="yes"/>
      <point x="351" y="-12"/>
      <point x="414" y="61"/>
      <point x="414" y="169" type="curve" smooth="yes"/>
      <point x="414" y="277"/>
      <point x="351" y="345"/>
      <point x="236" y="345" type="curve" smooth="yes"/>
      <point x="181" y="345"/>
      <point x="137" y="329"/>
      <point x="105" y="302" type="curve"/>
      <point x="105" y="714" type="line"/>
      <point x="79" y="714" type="line"/>
      <point x="79" y="0" type="line"/>
      <point x="105" y="0" type="line"/>
      <point x="105" y="32" type="line"/>
      <point x="139" y="4"/>
      <point x="183" y="-12"/>
    </contour>
  </outline>
</glyph>
<glyph name="uni15B3" format="2">
  <advance width="483"/>
  <unicode hex="15B3"/>
  <note>
uni15B3
</note>
  <outline>
    <contour>
      <point x="378" y="0" type="line"/>
      <point x="404" y="0" type="line"/>
      <point x="404" y="714" type="line"/>
      <point x="378" y="714" type="line"/>
      <point x="378" y="682" type="line"/>
      <point x="344" y="710"/>
      <point x="300" y="726"/>
      <point x="247" y="726" type="curve" smooth="yes"/>
      <point x="132" y="726"/>
      <point x="69" y="653"/>
      <point x="69" y="545" type="curve" smooth="yes"/>
      <point x="69" y="437"/>
      <point x="132" y="369"/>
      <point x="247" y="369" type="curve" smooth="yes"/>
      <point x="302" y="369"/>
      <point x="346" y="385"/>
      <point x="378" y="412" type="curve"/>
    </contour>
  </outline>
</glyph>
<glyph name="uni15B5" format="2">
  <advance width="534"/>
  <unicode hex="15B5"/>
  <note>
uni15B5
</note>
  <outline>
    <contour>
      <point x="69" y="0" type="line"/>
      <point x="455" y="0" type="line"/>
      <point x="455" y="714" type="line"/>
      <point x="429" y="714" type="line"/>
      <point x="429" y="332" type="line"/>
      <point x="69" y="332" type="line"/>
      <point x="69" y="307" type="line"/>
      <point x="429" y="307" type="line"/>
      <point x="429" y="25" type="line"/>
      <point x="69" y="25" type="line"/>
    </contour>
  </outline>
</glyph>
<glyph name="uni15B6" format="2">
  <advance width="524"/>
  <unicode hex="15B6"/>
  <note>
uni15B6
</note>
  <outline>
    <contour>
      <point x="79" y="0" type="line"/>
      <point x="465" y="0" type="line"/>
      <point x="465" y="25" type="line"/>
      <point x="105" y="25" type="line"/>
      <point x="105" y="307" type="line"/>
      <point x="465" y="307" type="line"/>
      <point x="465" y="332" type="line"/>
      <point x="105" y="332" type="line"/>
      <point x="105" y="714" type="line"/>
      <point x="79" y="714" type="line"/>
    </contour>
  </outline>
</glyph>
<glyph name="uni15B7" format="2">
  <advance width="534"/>
  <unicode hex="15B7"/>
  <note>
uni15B7
</note>
  <outline>
    <contour>
      <point x="429" y="0" type="line"/>
      <point x="455" y="0" type="line"/>
      <point x="455" y="714" type="line"/>
      <point x="69" y="714" type="line"/>
      <point x="69" y="689" type="line"/>
      <point x="429" y="689" type="line"/>
      <point x="429" y="407" type="line"/>
      <point x="69" y="407" type="line"/>
      <point x="69" y="382" type="line"/>
      <point x="429" y="382" type="line"/>
    </contour>
  </outline>
</glyph>
<glyph name="uni15B8" format="2">
  <advance width="618"/>
  <unicode hex="15B8"/>
  <note>
uni15B8
</note>
  <outline>
    <contour>
      <point x="356" y="444" type="curve" smooth="yes"/>
      <point x="484" y="444"/>
      <point x="559" y="528"/>
      <point x="559" y="673" type="curve" smooth="yes"/>
      <point x="559" y="714" type="line"/>
      <point x="533" y="714" type="line"/>
      <point x="533" y="670" type="line" smooth="yes"/>
      <point x="533" y="545"/>
      <point x="466" y="469"/>
      <point x="356" y="469" type="curve" smooth="yes"/>
      <point x="246" y="469"/>
      <point x="179" y="545"/>
      <point x="179" y="670" type="curve" smooth="yes"/>
      <point x="179" y="714" type="line"/>
      <point x="153" y="714" type="line"/>
      <point x="153" y="673" type="line" smooth="yes"/>
      <point x="153" y="528"/>
      <point x="228" y="444"/>
    </contour>
    <contour>
      <point x="79" y="0" type="line"/>
      <point x="105" y="0" type="line"/>
      <point x="105" y="695" type="line"/>
      <point x="158" y="695" type="line"/>
      <point x="158" y="714" type="line"/>
      <point x="79" y="714" type="line"/>
    </contour>
  </outline>
</glyph>
<glyph name="uni15B9" format="2">
  <advance width="618"/>
  <unicode hex="15B9"/>
  <note>
uni15B9
</note>
  <outline>
    <contour>
      <point x="59" y="0" type="line"/>
      <point x="85" y="0" type="line"/>
      <point x="85" y="44" type="line" smooth="yes"/>
      <point x="85" y="169"/>
      <point x="152" y="245"/>
      <point x="262" y="245" type="curve" smooth="yes"/>
      <point x="372" y="245"/>
      <point x="439" y="169"/>
      <point x="439" y="44" type="curve" smooth="yes"/>
      <point x="439" y="0" type="line"/>
      <point x="465" y="0" type="line"/>
      <point x="465" y="41" type="line" smooth="yes"/>
      <point x="465" y="186"/>
      <point x="390" y="270"/>
      <point x="262" y="270" type="curve" smooth="yes"/>
      <point x="134" y="270"/>
      <point x="59" y="186"/>
      <point x="59" y="41" type="curve" smooth="yes"/>
    </contour>
    <contour>
      <point x="460" y="0" type="line"/>
      <point x="539" y="0" type="line"/>
      <point x="539" y="714" type="line"/>
      <point x="513" y="714" type="line"/>
      <point x="513" y="19" type="line"/>
      <point x="460" y="19" type="line"/>
    </contour>
  </outline>
</glyph>
<glyph name="uni15BA" format="2">
  <advance width="618"/>
  <unicode hex="15BA"/>
  <note>
uni15BA
</note>
  <outline>
    <contour>
      <point x="153" y="0" type="line"/>
      <point x="179" y="0" type="line"/>
      <point x="179" y="44" type="line" smooth="yes"/>
      <point x="179" y="169"/>
      <point x="246" y="245"/>
      <point x="356" y="245" type="curve" smooth="yes"/>
      <point x="466" y="245"/>
      <point x="533" y="169"/>
      <point x="533" y="44" type="curve" smooth="yes"/>
      <point x="533" y="0" type="line"/>
      <point x="559" y="0" type="line"/>
      <point x="559" y="41" type="line" smooth="yes"/>
      <point x="559" y="186"/>
      <point x="484" y="270"/>
      <point x="356" y="270" type="curve" smooth="yes"/>
      <point x="228" y="270"/>
      <point x="153" y="186"/>
      <point x="153" y="41" type="curve" smooth="yes"/>
    </contour>
    <contour>
      <point x="79" y="0" type="line"/>
      <point x="158" y="0" type="line"/>
      <point x="158" y="19" type="line"/>
      <point x="105" y="19" type="line"/>
      <point x="105" y="714" type="line"/>
      <point x="79" y="714" type="line"/>
    </contour>
  </outline>
</glyph>
<glyph name="uni15BB" format="2">
  <advance width="618"/>
  <unicode hex="15BB"/>
  <note>
uni15BB
</note>
  <outline>
    <contour>
      <point x="262" y="444" type="curve" smooth="yes"/>
      <point x="390" y="444"/>
      <point x="465" y="528"/>
      <point x="465" y="673" type="curve" smooth="yes"/>
      <point x="465" y="714" type="line"/>
      <point x="439" y="714" type="line"/>
      <point x="439" y="670" type="line" smooth="yes"/>
      <point x="439" y="545"/>
      <point x="372" y="469"/>
      <point x="262" y="469" type="curve" smooth="yes"/>
      <point x="152" y="469"/>
      <point x="85" y="545"/>
      <point x="85" y="670" type="curve" smooth="yes"/>
      <point x="85" y="714" type="line"/>
      <point x="59" y="714" type="line"/>
      <point x="59" y="673" type="line" smooth="yes"/>
      <point x="59" y="528"/>
      <point x="134" y="444"/>
    </contour>
    <contour>
      <point x="513" y="0" type="line"/>
      <point x="539" y="0" type="line"/>
      <point x="539" y="714" type="line"/>
      <point x="460" y="714" type="line"/>
      <point x="460" y="695" type="line"/>
      <point x="513" y="695" type="line"/>
    </contour>
  </outline>
</glyph>
<glyph name="uni15BC" format="2">
  <advance width="661"/>
  <unicode hex="15BC"/>
  <note>
uni15BC
</note>
  <outline>
    <contour>
      <point x="79" y="0" type="line"/>
      <point x="105" y="0" type="line"/>
      <point x="105" y="673" type="line"/>
      <point x="338" y="279" type="line"/>
      <point x="356" y="279" type="line"/>
      <point x="612" y="714" type="line"/>
      <point x="582" y="714" type="line"/>
      <point x="347" y="314" type="line"/>
      <point x="109" y="714" type="line"/>
      <point x="79" y="714" type="line"/>
    </contour>
  </outline>
</glyph>
<glyph name="uni15BD" format="2">
  <advance width="661"/>
  <unicode hex="15BD"/>
  <note>
uni15BD
</note>
  <outline>
    <contour>
      <point x="49" y="0" type="line"/>
      <point x="79" y="0" type="line"/>
      <point x="314" y="400" type="line"/>
      <point x="552" y="0" type="line"/>
      <point x="582" y="0" type="line"/>
      <point x="582" y="714" type="line"/>
      <point x="556" y="714" type="line"/>
      <point x="556" y="41" type="line"/>
      <point x="323" y="435" type="line"/>
      <point x="305" y="435" type="line"/>
    </contour>
  </outline>
</glyph>
<glyph name="uni15BE" format="2">
  <advance width="661"/>
  <unicode hex="15BE"/>
  <note>
uni15BE
</note>
  <outline>
    <contour>
      <point x="79" y="0" type="line"/>
      <point x="109" y="0" type="line"/>
      <point x="347" y="400" type="line"/>
      <point x="582" y="0" type="line"/>
      <point x="612" y="0" type="line"/>
      <point x="356" y="435" type="line"/>
      <point x="338" y="435" type="line"/>
      <point x="105" y="41" type="line"/>
      <point x="105" y="714" type="line"/>
      <point x="79" y="714" type="line"/>
    </contour>
  </outline>
</glyph>
<glyph name="uni15BF" format="2">
  <advance width="661"/>
  <unicode hex="15BF"/>
  <note>
uni15BF
</note>
  <outline>
    <contour>
      <point x="556" y="0" type="line"/>
      <point x="582" y="0" type="line"/>
      <point x="582" y="714" type="line"/>
      <point x="552" y="714" type="line"/>
      <point x="314" y="314" type="line"/>
      <point x="79" y="714" type="line"/>
      <point x="49" y="714" type="line"/>
      <point x="305" y="279" type="line"/>
      <point x="323" y="279" type="line"/>
      <point x="556" y="673" type="line"/>
    </contour>
  </outline>
</glyph>
<glyph name="uni15C0" format="2">
	<advance width="728"/>
	<unicode hex="15C0"/>
	<note>
		uni15C0
	</note>
	<outline>
		<contour>
			<point x="530" y="334" type="curve" smooth="yes"/>
			<point x="623" y="0" type="line"/>
			<point x="649" y="0" type="line"/>
			<point x="649" y="714" type="line"/>
			<point x="623" y="714" type="line"/>
			<point x="623" y="89" type="line"/>
			<point x="554" y="344" type="line" smooth="yes"/>
			<point x="479" y="623"/>
			<point x="400" y="724"/>
			<point x="257" y="724" type="curve" smooth="yes"/>
			<point x="144" y="724"/>
			<point x="74" y="640"/>
			<point x="74" y="505" type="curve" smooth="yes"/>
			<point x="74" y="435"/>
			<point x="94" y="354"/>
			<point x="122" y="313" type="curve"/>
			<point x="145" y="322" type="line"/>
			<point x="145" y="323"/>
			<point x="100" y="394"/>
			<point x="100" y="505" type="curve" smooth="yes"/>
			<point x="100" y="625"/>
			<point x="160" y="699"/>
			<point x="257" y="699" type="curve" smooth="yes"/>
			<point x="384" y="699"/>
			<point x="455" y="604"/>
		</contour>
	</outline>
</glyph>
<glyph name="uni15C1" format="2">
	<advance width="728"/>
	<unicode hex="15C1"/>
	<note>
		uni15C1
	</note>
	<outline>
		<contour>
			<point x="198" y="334" type="line" smooth="yes"/>
			<point x="273" y="604"/>
			<point x="344" y="699"/>
			<point x="471" y="699" type="curve" smooth="yes"/>
			<point x="568" y="699"/>
			<point x="628" y="625"/>
			<point x="628" y="505" type="curve" smooth="yes"/>
			<point x="628" y="394"/>
			<point x="583" y="323"/>
			<point x="583" y="322" type="curve"/>
			<point x="606" y="313" type="line"/>
			<point x="634" y="354"/>
			<point x="654" y="435"/>
			<point x="654" y="505" type="curve" smooth="yes"/>
			<point x="654" y="640"/>
			<point x="584" y="724"/>
			<point x="471" y="724" type="curve" smooth="yes"/>
			<point x="328" y="724"/>
			<point x="249" y="623"/>
			<point x="174" y="344" type="curve" smooth="yes"/>
			<point x="105" y="89" type="line"/>
			<point x="105" y="714" type="line"/>
			<point x="79" y="714" type="line"/>
			<point x="79" y="0" type="line"/>
			<point x="105" y="0" type="line"/>
		</contour>
	</outline>
</glyph>
<glyph name="uni15C2" format="2">
	<advance width="728"/>
	<unicode hex="15C2"/>
	<note>
		uni15C2
	</note>
	<outline>
		<contour>
			<point x="530" y="380" type="line" smooth="yes"/>
			<point x="455" y="110"/>
			<point x="384" y="15"/>
			<point x="257" y="15" type="curve" smooth="yes"/>
			<point x="160" y="15"/>
			<point x="100" y="89"/>
			<point x="100" y="209" type="curve" smooth="yes"/>
			<point x="100" y="320"/>
			<point x="145" y="391"/>
			<point x="145" y="392" type="curve"/>
			<point x="122" y="401" type="line"/>
			<point x="94" y="360"/>
			<point x="74" y="280"/>
			<point x="74" y="209" type="curve" smooth="yes"/>
			<point x="74" y="74"/>
			<point x="144" y="-10"/>
			<point x="257" y="-10" type="curve" smooth="yes"/>
			<point x="400" y="-10"/>
			<point x="479" y="91"/>
			<point x="554" y="370" type="curve" smooth="yes"/>
			<point x="623" y="625" type="line"/>
			<point x="623" y="0" type="line"/>
			<point x="649" y="0" type="line"/>
			<point x="649" y="714" type="line"/>
			<point x="623" y="714" type="line"/>
		</contour>
	</outline>
</glyph>
<glyph name="uni15C3" format="2">
	<advance width="728"/>
	<unicode hex="15C3"/>
	<note>
		uni15C3
	</note>
	<outline>
		<contour>
			<point x="198" y="380" type="curve" smooth="yes"/>
			<point x="105" y="714" type="line"/>
			<point x="79" y="714" type="line"/>
			<point x="79" y="0" type="line"/>
			<point x="105" y="0" type="line"/>
			<point x="105" y="625" type="line"/>
			<point x="174" y="370" type="line" smooth="yes"/>
			<point x="249" y="91"/>
			<point x="328" y="-10"/>
			<point x="471" y="-10" type="curve" smooth="yes"/>
			<point x="584" y="-10"/>
			<point x="654" y="74"/>
			<point x="654" y="209" type="curve" smooth="yes"/>
			<point x="654" y="280"/>
			<point x="634" y="360"/>
			<point x="606" y="401" type="curve"/>
			<point x="583" y="392" type="line"/>
			<point x="583" y="391"/>
			<point x="628" y="320"/>
			<point x="628" y="209" type="curve" smooth="yes"/>
			<point x="628" y="89"/>
			<point x="568" y="15"/>
			<point x="471" y="15" type="curve" smooth="yes"/>
			<point x="344" y="15"/>
			<point x="273" y="110"/>
		</contour>
	</outline>
</glyph>
<glyph name="uni15C5" format="2">
	<advance width="817"/>
	<unicode hex="15C5"/>
	<note>
		uni15C5
	</note>
	<outline>
		<contour>
			<point x="408" y="698" type="line"/>
			<point x="735" y="0" type="line"/>
			<point x="758" y="0" type="line"/>
			<point x="758" y="13" type="line"/>
			<point x="420" y="726" type="line"/>
			<point x="397" y="726" type="line"/>
			<point x="59" y="13" type="line"/>
			<point x="59" y="0" type="line"/>
			<point x="82" y="0" type="line"/>
		</contour>
		<contour>
			<point x="574" y="372" type="line"/>
			<point x="242" y="372" type="line"/>
			<point x="232" y="347" type="line"/>
			<point x="582" y="347" type="line"/>
		</contour>
	</outline>
</glyph>
<glyph name="uni15C6" format="2">
  <advance width="686"/>
  <unicode hex="15C6"/>
  <note>
uni15C6
</note>
  <outline>
    <contour>
      <point x="59" y="-10" type="line"/>
      <point x="69" y="-10" type="line"/>
      <point x="637" y="349" type="line"/>
      <point x="637" y="367" type="line"/>
      <point x="69" y="726" type="line"/>
      <point x="59" y="726" type="line"/>
      <point x="59" y="703" type="line"/>
      <point x="603" y="358" type="line"/>
      <point x="59" y="14" type="line"/>
    </contour>
    <contour>
      <point x="271" y="137" type="line"/>
      <point x="297" y="137" type="line"/>
      <point x="297" y="574" type="line"/>
      <point x="271" y="574" type="line"/>
    </contour>
  </outline>
</glyph>
<glyph name="uni15C7" format="2">
	<advance width="732"/>
	<unicode hex="15C7"/>
	<note>
		uni15C7
	</note>
	<outline>
		<contour>
			<point x="171" y="260" type="line"/>
			<point x="171" y="469" type="line"/>
			<point x="145" y="469" type="line"/>
			<point x="145" y="260" type="line"/>
		</contour>
		<contour>
			<point x="659" y="363" type="line"/>
			<point x="59" y="12" type="line"/>
			<point x="59" y="-12" type="line"/>
			<point x="69" y="-12" type="line"/>
			<point x="683" y="348" type="line"/>
			<point x="683" y="366" type="line"/>
			<point x="69" y="725" type="line"/>
			<point x="59" y="725" type="line"/>
			<point x="59" y="702" type="line"/>
			<point x="659" y="351" type="line"/>
		</contour>
		<contour>
			<point x="358" y="175" type="line"/>
			<point x="358" y="537" type="line"/>
			<point x="332" y="556" type="line"/>
			<point x="332" y="156" type="line"/>
		</contour>
	</outline>
</glyph>
<glyph name="uni15C8" format="2">
	<advance width="732"/>
	<unicode hex="15C8"/>
	<note>
		uni15C8
	</note>
	<outline>
		<contour>
			<point x="659" y="363" type="line"/>
			<point x="59" y="12" type="line"/>
			<point x="59" y="-12" type="line"/>
			<point x="69" y="-12" type="line"/>
			<point x="683" y="348" type="line"/>
			<point x="683" y="366" type="line"/>
			<point x="69" y="725" type="line"/>
			<point x="59" y="725" type="line"/>
			<point x="59" y="702" type="line"/>
			<point x="659" y="351" type="line"/>
		</contour>
		<contour>
			<point x="358" y="175" type="line"/>
			<point x="358" y="537" type="line"/>
			<point x="332" y="556" type="line"/>
			<point x="332" y="156" type="line"/>
		</contour>
		<contour>
			<point x="158" y="333" type="curve" smooth="yes"/>
			<point x="171" y="333"/>
			<point x="183" y="343"/>
			<point x="183" y="357" type="curve" smooth="yes"/>
			<point x="183" y="371"/>
			<point x="171" y="382"/>
			<point x="158" y="382" type="curve" smooth="yes"/>
			<point x="144" y="382"/>
			<point x="133" y="371"/>
			<point x="133" y="357" type="curve" smooth="yes"/>
			<point x="133" y="343"/>
			<point x="144" y="333"/>
		</contour>
	</outline>
</glyph>
<glyph name="uni15C9" format="2">
	<advance width="732"/>
	<unicode hex="15C9"/>
	<note>
		uni15C9
	</note>
	<outline>
		<contour>
			<point x="73" y="363" type="line"/>
			<point x="73" y="351" type="line"/>
			<point x="673" y="702" type="line"/>
			<point x="673" y="725" type="line"/>
			<point x="663" y="725" type="line"/>
			<point x="49" y="366" type="line"/>
			<point x="49" y="348" type="line"/>
			<point x="663" y="-12" type="line"/>
			<point x="673" y="-12" type="line"/>
			<point x="673" y="12" type="line"/>
		</contour>
		<contour>
			<point x="374" y="175" type="line"/>
			<point x="400" y="156" type="line"/>
			<point x="400" y="556" type="line"/>
			<point x="374" y="537" type="line"/>
		</contour>
	</outline>
</glyph>
<glyph name="uni15CA" format="2">
	<advance width="817"/>
	<unicode hex="15CA"/>
	<note>
		uni15CA
	</note>
	<outline>
		<contour>
			<point x="408" y="16" type="line"/>
			<point x="82" y="714" type="line"/>
			<point x="59" y="714" type="line"/>
			<point x="59" y="701" type="line"/>
			<point x="397" y="-12" type="line"/>
			<point x="420" y="-12" type="line"/>
			<point x="758" y="701" type="line"/>
			<point x="758" y="714" type="line"/>
			<point x="735" y="714" type="line"/>
		</contour>
		<contour>
			<point x="684" y="572" type="line"/>
			<point x="692" y="597" type="line"/>
			<point x="122" y="597" type="line"/>
			<point x="132" y="572" type="line"/>
		</contour>
	</outline>
</glyph>
<glyph name="uni15CB" format="2">
	<advance width="817"/>
	<unicode hex="15CB"/>
	<note>
		uni15CB
	</note>
	<outline>
		<contour>
			<point x="408" y="698" type="line"/>
			<point x="735" y="0" type="line"/>
			<point x="758" y="0" type="line"/>
			<point x="758" y="13" type="line"/>
			<point x="420" y="726" type="line"/>
			<point x="397" y="726" type="line"/>
			<point x="59" y="13" type="line"/>
			<point x="59" y="0" type="line"/>
			<point x="82" y="0" type="line"/>
		</contour>
		<contour>
			<point x="684" y="142" type="line"/>
			<point x="132" y="142" type="line"/>
			<point x="122" y="117" type="line"/>
			<point x="692" y="117" type="line"/>
		</contour>
	</outline>
</glyph>
<glyph name="uni15CC" format="2">
	<advance width="732"/>
	<unicode hex="15CC"/>
	<note>
		uni15CC
	</note>
	<outline>
		<contour>
			<point x="659" y="363" type="line"/>
			<point x="59" y="12" type="line"/>
			<point x="59" y="-12" type="line"/>
			<point x="69" y="-12" type="line"/>
			<point x="683" y="348" type="line"/>
			<point x="683" y="366" type="line"/>
			<point x="69" y="725" type="line"/>
			<point x="59" y="725" type="line"/>
			<point x="59" y="702" type="line"/>
			<point x="659" y="351" type="line"/>
		</contour>
		<contour>
			<point x="178" y="66" type="line"/>
			<point x="178" y="644" type="line"/>
			<point x="152" y="663" type="line"/>
			<point x="152" y="47" type="line"/>
		</contour>
	</outline>
</glyph>
<glyph name="uni15CF" format="2">
	<advance width="732"/>
	<unicode hex="15CF"/>
	<note>
		uni15CF
	</note>
	<outline>
		<contour>
			<point x="73" y="363" type="line"/>
			<point x="73" y="351" type="line"/>
			<point x="673" y="702" type="line"/>
			<point x="673" y="725" type="line"/>
			<point x="663" y="725" type="line"/>
			<point x="49" y="366" type="line"/>
			<point x="49" y="348" type="line"/>
			<point x="663" y="-12" type="line"/>
			<point x="673" y="-12" type="line"/>
			<point x="673" y="12" type="line"/>
		</contour>
		<contour>
			<point x="554" y="66" type="line"/>
			<point x="580" y="47" type="line"/>
			<point x="580" y="663" type="line"/>
			<point x="554" y="644" type="line"/>
		</contour>
	</outline>
</glyph>
<glyph name="uni15D0" format="2">
  <advance width="797"/>
  <unicode hex="15D0"/>
  <note>
uni15D0
</note>
  <outline>
    <contour>
      <point x="387" y="-6" type="line"/>
      <point x="410" y="-6" type="line"/>
      <point x="738" y="701" type="line"/>
      <point x="738" y="714" type="line"/>
      <point x="715" y="714" type="line"/>
      <point x="411" y="50" type="line"/>
      <point x="411" y="714" type="line"/>
      <point x="385" y="714" type="line"/>
      <point x="385" y="50" type="line"/>
      <point x="82" y="714" type="line"/>
      <point x="59" y="714" type="line"/>
      <point x="59" y="701" type="line"/>
    </contour>
  </outline>
</glyph>
<glyph name="uni15D1" format="2">
	<advance width="817"/>
	<unicode hex="15D1"/>
	<note>
		uni15D1
	</note>
	<outline>
		<contour>
			<point x="397" y="712" type="line"/>
			<point x="395" y="0" type="line"/>
			<point x="421" y="0" type="line"/>
			<point x="419" y="712" type="line"/>
		</contour>
		<contour>
			<point x="408" y="698" type="line"/>
			<point x="735" y="0" type="line"/>
			<point x="758" y="0" type="line"/>
			<point x="758" y="13" type="line"/>
			<point x="420" y="726" type="line"/>
			<point x="397" y="726" type="line"/>
			<point x="59" y="13" type="line"/>
			<point x="59" y="0" type="line"/>
			<point x="82" y="0" type="line"/>
		</contour>
	</outline>
</glyph>
<glyph name="uni15D3" format="2">
	<advance width="732"/>
	<unicode hex="15D3"/>
	<note>
		uni15D3
	</note>
	<outline>
		<contour>
			<point x="237" y="235" type="line"/>
			<point x="237" y="480" type="line"/>
			<point x="211" y="480" type="line"/>
			<point x="211" y="235" type="line"/>
		</contour>
		<contour>
			<point x="663" y="369" type="line"/>
			<point x="59" y="370" type="line"/>
			<point x="59" y="345" type="line"/>
			<point x="663" y="346" type="line"/>
		</contour>
		<contour>
			<point x="660" y="363" type="line"/>
			<point x="59" y="12" type="line"/>
			<point x="59" y="-12" type="line"/>
			<point x="69" y="-12" type="line"/>
			<point x="683" y="348" type="line"/>
			<point x="683" y="366" type="line"/>
			<point x="69" y="725" type="line"/>
			<point x="59" y="725" type="line"/>
			<point x="59" y="702" type="line"/>
			<point x="660" y="351" type="line"/>
		</contour>
	</outline>
</glyph>
<glyph name="uni15D4" format="2">
	<advance width="732"/>
	<unicode hex="15D4"/>
	<note>
		uni15D4
	</note>
	<outline>
		<contour>
			<point x="263" y="306" type="curve" smooth="yes"/>
			<point x="292" y="306"/>
			<point x="315" y="329"/>
			<point x="315" y="358" type="curve" smooth="yes"/>
			<point x="315" y="387"/>
			<point x="292" y="410"/>
			<point x="263" y="410" type="curve" smooth="yes"/>
			<point x="234" y="410"/>
			<point x="211" y="387"/>
			<point x="211" y="358" type="curve" smooth="yes"/>
			<point x="211" y="329"/>
			<point x="234" y="306"/>
		</contour>
		<contour>
			<point x="663" y="369" type="line"/>
			<point x="59" y="370" type="line"/>
			<point x="59" y="345" type="line"/>
			<point x="663" y="346" type="line"/>
		</contour>
		<contour>
			<point x="660" y="363" type="line"/>
			<point x="59" y="12" type="line"/>
			<point x="59" y="-12" type="line"/>
			<point x="69" y="-12" type="line"/>
			<point x="683" y="348" type="line"/>
			<point x="683" y="366" type="line"/>
			<point x="69" y="725" type="line"/>
			<point x="59" y="725" type="line"/>
			<point x="59" y="702" type="line"/>
			<point x="660" y="351" type="line"/>
		</contour>
	</outline>
</glyph>
<glyph name="uni15D5" format="2">
  <advance width="686"/>
  <unicode hex="15D5"/>
  <note>
uni15D5
</note>
  <outline>
    <contour>
      <point x="617" y="-10" type="line"/>
      <point x="627" y="-10" type="line"/>
      <point x="627" y="14" type="line"/>
      <point x="102" y="346" type="line"/>
      <point x="627" y="346" type="line"/>
      <point x="627" y="371" type="line"/>
      <point x="103" y="371" type="line"/>
      <point x="627" y="703" type="line"/>
      <point x="627" y="726" type="line"/>
      <point x="617" y="726" type="line"/>
      <point x="49" y="367" type="line"/>
      <point x="49" y="349" type="line"/>
    </contour>
  </outline>
</glyph>
<glyph name="uni15D6" format="2">
	<advance width="817"/>
	<unicode hex="15D6"/>
	<note>
		uni15D6
	</note>
	<outline>
		<contour>
			<point x="397" y="2" type="line"/>
			<point x="419" y="2" type="line"/>
			<point x="421" y="714" type="line"/>
			<point x="395" y="714" type="line"/>
		</contour>
		<contour>
			<point x="408" y="16" type="line"/>
			<point x="82" y="714" type="line"/>
			<point x="59" y="714" type="line"/>
			<point x="59" y="701" type="line"/>
			<point x="397" y="-12" type="line"/>
			<point x="420" y="-12" type="line"/>
			<point x="758" y="701" type="line"/>
			<point x="758" y="714" type="line"/>
			<point x="735" y="714" type="line"/>
		</contour>
		<contour>
			<point x="594" y="370" type="line"/>
			<point x="602" y="395" type="line"/>
			<point x="222" y="395" type="line"/>
			<point x="232" y="370" type="line"/>
		</contour>
	</outline>
</glyph>
